<?xml version="1.0" encoding="UTF-8" standalone="no"?>
<!DOCTYPE svg PUBLIC "-//W3C//DTD SVG 1.1//EN"
 "http://www.w3.org/Graphics/SVG/1.1/DTD/svg11.dtd">
<!-- Generated by graphviz version 2.40.1 (20161225.0304)
 -->
<!-- Title: %3 Pages: 1 -->
<svg width="265pt" height="1060pt"
 viewBox="0.00 0.00 265.04 1060.00" xmlns="http://www.w3.org/2000/svg" xmlns:xlink="http://www.w3.org/1999/xlink">
<g id="graph0" class="graph" transform="scale(1 1) rotate(0) translate(4 1056)">
<title>%3</title>
<polygon fill="#ffffff" stroke="transparent" points="-4,4 -4,-1056 261.0374,-1056 261.0374,4 -4,4"/>
<!-- 0 -->
<g id="node1" class="node">
<title>0</title>
<polygon fill="#e6e6e6" stroke="#4a4a4a" points="172.5374,-1052 87.5374,-1052 87.5374,-1016 172.5374,-1016 172.5374,-1052"/>
<text text-anchor="middle" x="130.0374" y="-1030.3" font-family="Times,serif" font-size="14.00" fill="#4a4a4a">0: v←0+0</text>
</g>
<!-- 1 -->
<g id="node2" class="node">
<title>1</title>
<polygon fill="#e6e6e6" stroke="#4a4a4a" points="180.5374,-950 79.5374,-950 79.5374,-914 180.5374,-914 180.5374,-950"/>
<text text-anchor="middle" x="130.0374" y="-928.3" font-family="Times,serif" font-size="14.00" fill="#4a4a4a">1: store(v,0)</text>
</g>
<!-- 0&#45;&gt;1 -->
<g id="edge1" class="edge">
<title>0&#45;&gt;1</title>
<path fill="none" stroke="#a2a2a2" stroke-width="1.5" d="M128.8233,-1015.6941C128.5004,-1010.0251 128.1971,-1003.7566 128.0374,-998 127.6674,-984.6718 127.6674,-981.3282 128.0374,-968 128.1048,-965.5714 128.1977,-963.0517 128.3069,-960.5244"/>
<polygon fill="#a2a2a2" stroke="#a2a2a2" stroke-width="1.5" points="131.814,-960.4699 128.8233,-950.3059 124.8229,-960.1165 131.814,-960.4699"/>
</g>
<!-- 0&#45;&gt;1 -->
<g id="edge11" class="edge">
<title>0&#45;&gt;1</title>
<path fill="none" stroke="#f60000" stroke-width="3.5" d="M130.0374,-1015.7644C130.0374,-1000.317 130.0374,-977.9149 130.0374,-960.164"/>
<polygon fill="#f60000" stroke="#f60000" stroke-width="3.5" points="133.5375,-960.0776 130.0374,-950.0777 126.5375,-960.0777 133.5375,-960.0776"/>
<text text-anchor="middle" x="164.0374" y="-986.8" font-family="Times,serif" font-size="14.00" fill="#f60000">@0</text>
<text text-anchor="middle" x="164.0374" y="-971.8" font-family="Times,serif" font-size="14.00" fill="#f60000"># A=0+0</text>
</g>
<!-- 2 -->
<g id="node3" class="node">
<title>2</title>
<polygon fill="#e6e6e6" stroke="#4a4a4a" points="181.5374,-833 78.5374,-833 78.5374,-797 181.5374,-797 181.5374,-833"/>
<text text-anchor="middle" x="130.0374" y="-811.3" font-family="Times,serif" font-size="14.00" fill="#4a4a4a">2: v←100+0</text>
</g>
<!-- 1&#45;&gt;2 -->
<g id="edge2" class="edge">
<title>1&#45;&gt;2</title>
<path fill="none" stroke="#a2a2a2" stroke-width="1.5" d="M128.8233,-913.6941C128.5004,-908.0251 128.1971,-901.7566 128.0374,-896 127.4824,-876.0077 127.4824,-870.9923 128.0374,-851 128.1048,-848.5714 128.1977,-846.0517 128.3069,-843.5244"/>
<polygon fill="#a2a2a2" stroke="#a2a2a2" stroke-width="1.5" points="131.814,-843.4699 128.8233,-833.3059 124.8229,-843.1165 131.814,-843.4699"/>
</g>
<!-- 1&#45;&gt;2 -->
<g id="edge12" class="edge">
<title>1&#45;&gt;2</title>
<path fill="none" stroke="#f60000" stroke-width="3.5" d="M130.0374,-913.9752C130.0374,-895.1356 130.0374,-865.3112 130.0374,-843.3213"/>
<polygon fill="#f60000" stroke="#f60000" stroke-width="3.5" points="133.5375,-843.2381 130.0374,-833.2381 126.5375,-843.2381 133.5375,-843.2381"/>
<text text-anchor="middle" x="179.5374" y="-884.8" font-family="Times,serif" font-size="14.00" fill="#f60000">@1</text>
<text text-anchor="middle" x="179.5374" y="-869.8" font-family="Times,serif" font-size="14.00" fill="#f60000"># update(0,A)</text>
<text text-anchor="middle" x="179.5374" y="-854.8" font-family="Times,serif" font-size="14.00" fill="#f60000">store(0)</text>
</g>
<!-- 3 -->
<g id="node4" class="node">
<title>3</title>
<polygon fill="#e6e6e6" stroke="#4a4a4a" points="180.5374,-731 79.5374,-731 79.5374,-695 180.5374,-695 180.5374,-731"/>
<text text-anchor="middle" x="130.0374" y="-709.3" font-family="Times,serif" font-size="14.00" fill="#4a4a4a">3: store(v,1)</text>
</g>
<!-- 2&#45;&gt;3 -->
<g id="edge3" class="edge">
<title>2&#45;&gt;3</title>
<path fill="none" stroke="#a2a2a2" stroke-width="1.5" d="M128.8233,-796.6941C128.5004,-791.0251 128.1971,-784.7566 128.0374,-779 127.6674,-765.6718 127.6674,-762.3282 128.0374,-749 128.1048,-746.5714 128.1977,-744.0517 128.3069,-741.5244"/>
<polygon fill="#a2a2a2" stroke="#a2a2a2" stroke-width="1.5" points="131.814,-741.4699 128.8233,-731.3059 124.8229,-741.1165 131.814,-741.4699"/>
</g>
<!-- 2&#45;&gt;3 -->
<g id="edge13" class="edge">
<title>2&#45;&gt;3</title>
<path fill="none" stroke="#f60000" stroke-width="3.5" d="M130.0374,-796.7644C130.0374,-781.317 130.0374,-758.9149 130.0374,-741.164"/>
<polygon fill="#f60000" stroke="#f60000" stroke-width="3.5" points="133.5375,-741.0776 130.0374,-731.0777 126.5375,-741.0777 133.5375,-741.0776"/>
<text text-anchor="middle" x="173.5374" y="-767.8" font-family="Times,serif" font-size="14.00" fill="#f60000">@2</text>
<text text-anchor="middle" x="173.5374" y="-752.8" font-family="Times,serif" font-size="14.00" fill="#f60000"># B=100+0</text>
</g>
<!-- 4 -->
<g id="node5" class="node">
<title>4</title>
<polygon fill="#e6e6e6" stroke="#4a4a4a" points="186.5374,-614 73.5374,-614 73.5374,-578 186.5374,-578 186.5374,-614"/>
<text text-anchor="middle" x="130.0374" y="-592.3" font-family="Times,serif" font-size="14.00" fill="#4a4a4a">4: load(r,x∧1)</text>
</g>
<!-- 3&#45;&gt;4 -->
<g id="edge4" class="edge">
<title>3&#45;&gt;4</title>
<path fill="none" stroke="#a2a2a2" stroke-width="1.5" d="M128.8233,-694.6941C128.5004,-689.0251 128.1971,-682.7566 128.0374,-677 127.4824,-657.0077 127.4824,-651.9923 128.0374,-632 128.1048,-629.5714 128.1977,-627.0517 128.3069,-624.5244"/>
<polygon fill="#a2a2a2" stroke="#a2a2a2" stroke-width="1.5" points="131.814,-624.4699 128.8233,-614.3059 124.8229,-624.1165 131.814,-624.4699"/>
</g>
<!-- 3&#45;&gt;4 -->
<g id="edge14" class="edge">
<title>3&#45;&gt;4</title>
<path fill="none" stroke="#f60000" stroke-width="3.5" d="M130.0374,-694.9752C130.0374,-676.1356 130.0374,-646.3112 130.0374,-624.3213"/>
<polygon fill="#f60000" stroke="#f60000" stroke-width="3.5" points="133.5375,-624.2381 130.0374,-614.2381 126.5375,-624.2381 133.5375,-624.2381"/>
<text text-anchor="middle" x="180.0374" y="-665.8" font-family="Times,serif" font-size="14.00" fill="#f60000">@3</text>
<text text-anchor="middle" x="180.0374" y="-650.8" font-family="Times,serif" font-size="14.00" fill="#f60000"># update(1,B)</text>
<text text-anchor="middle" x="180.0374" y="-635.8" font-family="Times,serif" font-size="14.00" fill="#f60000">store(1)</text>
</g>
<!-- 5 -->
<g id="node6" class="node">
<title>5</title>
<polygon fill="#e6e6e6" stroke="#4a4a4a" points="179.0374,-497 81.0374,-497 81.0374,-461 179.0374,-461 179.0374,-497"/>
<text text-anchor="middle" x="130.0374" y="-475.3" font-family="Times,serif" font-size="14.00" fill="#4a4a4a">5: beqz(r,8)</text>
</g>
<!-- 4&#45;&gt;5 -->
<g id="edge5" class="edge">
<title>4&#45;&gt;5</title>
<path fill="none" stroke="#a2a2a2" stroke-width="1.5" d="M128.8233,-577.6941C128.5004,-572.0251 128.1971,-565.7566 128.0374,-560 127.4824,-540.0077 127.4824,-534.9923 128.0374,-515 128.1048,-512.5714 128.1977,-510.0517 128.3069,-507.5244"/>
<polygon fill="#a2a2a2" stroke="#a2a2a2" stroke-width="1.5" points="131.814,-507.4699 128.8233,-497.3059 124.8229,-507.1165 131.814,-507.4699"/>
</g>
<!-- 4&#45;&gt;5 -->
<g id="edge15" class="edge">
<title>4&#45;&gt;5</title>
<path fill="none" stroke="#f60000" stroke-width="3.5" d="M130.0374,-577.9752C130.0374,-559.1356 130.0374,-529.3112 130.0374,-507.3213"/>
<polygon fill="#f60000" stroke="#f60000" stroke-width="3.5" points="133.5375,-507.2381 130.0374,-497.2381 126.5375,-507.2381 133.5375,-507.2381"/>
<text text-anchor="middle" x="193.5374" y="-548.8" font-family="Times,serif" font-size="14.00" fill="#f60000">@4</text>
<text text-anchor="middle" x="193.5374" y="-533.8" font-family="Times,serif" font-size="14.00" fill="#f60000">load(0∧1)</text>
<text text-anchor="middle" x="193.5374" y="-518.8" font-family="Times,serif" font-size="14.00" fill="#f60000"># element(0∧1,C)</text>
</g>
<!-- 6 -->
<g id="node7" class="node">
<title>6</title>
<polygon fill="#e6e6e6" stroke="#4a4a4a" points="117.5374,-365 26.5374,-365 26.5374,-329 117.5374,-329 117.5374,-365"/>
<text text-anchor="middle" x="72.0374" y="-343.3" font-family="Times,serif" font-size="14.00" fill="#4a4a4a">6: v1←256</text>
</g>
<!-- 5&#45;&gt;6 -->
<g id="edge6" class="edge">
<title>5&#45;&gt;6</title>
<path fill="none" stroke="#a2a2a2" stroke-width="1.5" d="M80.6807,-465.8634C69.7688,-460.5713 59.5339,-453.2089 53.0374,-443 38.7207,-420.5024 46.6258,-408.8844 53.0374,-383 53.7383,-380.1704 54.7066,-377.3179 55.838,-374.5235"/>
<polygon fill="#a2a2a2" stroke="#a2a2a2" stroke-width="1.5" points="59.0581,-375.9009 60.161,-365.3636 52.7277,-372.9132 59.0581,-375.9009"/>
</g>
<!-- 5&#45;&gt;6 -->
<g id="edge16" class="edge">
<title>5&#45;&gt;6</title>
<path fill="none" stroke="#f60000" stroke-width="3.5" d="M89.8143,-460.9335C83.1002,-456.0882 77.0295,-450.1546 73.0374,-443 61.6096,-422.5194 62.4423,-395.5499 65.51,-375.4124"/>
<polygon fill="#f60000" stroke="#f60000" stroke-width="3.5" points="69.0044,-375.7546 67.3224,-365.2942 62.114,-374.5204 69.0044,-375.7546"/>
<text text-anchor="middle" x="119.5374" y="-431.8" font-family="Times,serif" font-size="14.00" fill="#f60000">@5</text>
<text text-anchor="middle" x="119.5374" y="-416.8" font-family="Times,serif" font-size="14.00" fill="#f60000"># cond(C=0)</text>
<text text-anchor="middle" x="119.5374" y="-401.8" font-family="Times,serif" font-size="14.00" fill="#f60000">start(0)</text>
<text text-anchor="middle" x="119.5374" y="-386.8" font-family="Times,serif" font-size="14.00" fill="#f60000">pc(6)</text>
</g>
<!-- 5&#45;&gt;6 -->
<g id="edge22" class="edge">
<title>5&#45;&gt;6</title>
<path fill="none" stroke="#00934a" stroke-width="3" stroke-dasharray="5,2" d="M153.4787,-460.9949C158.5733,-455.7962 163.2637,-449.6961 166.0374,-443 176.2422,-418.3632 181.15,-404.9709 166.0374,-383 160.0209,-374.2532 138.5415,-365.6999 117.6321,-359.1266"/>
<text text-anchor="middle" x="185.5374" y="-409.3" font-family="Times,serif" font-size="14.00" fill="#00934a"> t0</text>
</g>
<!-- 8 -->
<g id="node8" class="node">
<title>8</title>
<polygon fill="#e6e6e6" stroke="#4a4a4a" points="165.5374,-36 74.5374,-36 74.5374,0 165.5374,0 165.5374,-36"/>
<text text-anchor="middle" x="120.0374" y="-14.3" font-family="Times,serif" font-size="14.00" fill="#4a4a4a">8: v1←257</text>
</g>
<!-- 5&#45;&gt;8 -->
<g id="edge7" class="edge">
<title>5&#45;&gt;8</title>
<path fill="none" stroke="#a2a2a2" stroke-width="1.5" d="M177.8747,-460.9911C185.8682,-456.1798 193.3858,-450.2441 199.0374,-443 226.0249,-408.408 222.0374,-390.8741 222.0374,-347 222.0374,-347 222.0374,-347 222.0374,-139 222.0374,-97.8642 187.1487,-63.4572 158.1804,-41.9786"/>
<polygon fill="#a2a2a2" stroke="#a2a2a2" stroke-width="1.5" points="159.9857,-38.9669 149.8142,-36.0019 155.9166,-44.6628 159.9857,-38.9669"/>
</g>
<!-- 7 -->
<g id="node9" class="node">
<title>7</title>
<polygon fill="#e6e6e6" stroke="#4a4a4a" points="112.5374,-278 31.5374,-278 31.5374,-242 112.5374,-242 112.5374,-278"/>
<text text-anchor="middle" x="72.0374" y="-256.3" font-family="Times,serif" font-size="14.00" fill="#4a4a4a">7: jmp(9)</text>
</g>
<!-- 6&#45;&gt;7 -->
<g id="edge8" class="edge">
<title>6&#45;&gt;7</title>
<path fill="none" stroke="#a2a2a2" stroke-width="1.5" d="M60.161,-328.6364C57.245,-323.1769 54.5326,-317.0366 53.0374,-311 51.0886,-303.1326 52.5792,-294.8113 55.423,-287.2237"/>
<polygon fill="#a2a2a2" stroke="#a2a2a2" stroke-width="1.5" points="58.6216,-288.6449 59.5918,-278.0946 52.2541,-285.7371 58.6216,-288.6449"/>
</g>
<!-- 6&#45;&gt;7 -->
<g id="edge17" class="edge">
<title>6&#45;&gt;7</title>
<path fill="none" stroke="#f60000" stroke-width="3.5" d="M72.0374,-328.9735C72.0374,-317.1918 72.0374,-301.5607 72.0374,-288.1581"/>
<polygon fill="#f60000" stroke="#f60000" stroke-width="3.5" points="75.5375,-288.0033 72.0374,-278.0034 68.5375,-288.0034 75.5375,-288.0033"/>
<text text-anchor="middle" x="83.5374" y="-299.8" font-family="Times,serif" font-size="14.00" fill="#f60000">@6</text>
</g>
<!-- 6&#45;&gt;7 -->
<g id="edge23" class="edge">
<title>6&#45;&gt;7</title>
<path fill="none" stroke="#00934a" stroke-width="3" stroke-dasharray="5,2" d="M87.2551,-328.638C90.8426,-323.2742 94.1654,-317.1828 96.0374,-311 99.4402,-299.7612 94.3794,-287.8527 88.042,-278.3718"/>
<text text-anchor="middle" x="107.5374" y="-299.8" font-family="Times,serif" font-size="14.00" fill="#00934a"> t0</text>
</g>
<!-- 9 -->
<g id="node10" class="node">
<title>9</title>
<polygon fill="#e6e6e6" stroke="#4a4a4a" points="98.5985,-131.5442 98.5985,-146.4558 78.9388,-157 51.1359,-157 31.4762,-146.4558 31.4762,-131.5442 51.1359,-121 78.9388,-121 98.5985,-131.5442"/>
<polygon fill="none" stroke="#4a4a4a" points="102.5741,-129.1436 102.5741,-148.8564 79.9323,-161 50.1424,-161 27.5007,-148.8564 27.5007,-129.1436 50.1424,-117 79.9323,-117 102.5741,-129.1436"/>
<text text-anchor="middle" x="65.0374" y="-135.3" font-family="Times,serif" font-size="14.00" fill="#4a4a4a">9: ⊥</text>
</g>
<!-- 8&#45;&gt;9 -->
<g id="edge10" class="edge">
<title>8&#45;&gt;9</title>
<path fill="none" stroke="#a2a2a2" stroke-width="1.5" d="M114.4991,-36.1337C109.1224,-52.8445 100.2866,-78.1379 90.0374,-99 88.593,-101.94 86.9896,-104.9379 85.3122,-107.9037"/>
<polygon fill="#a2a2a2" stroke="#a2a2a2" stroke-width="1.5" points="82.2361,-106.2291 80.1428,-116.6151 88.256,-109.8014 82.2361,-106.2291"/>
</g>
<!-- 8&#45;&gt;9 -->
<g id="edge21" class="edge">
<title>8&#45;&gt;9</title>
<path fill="none" stroke="#f60000" stroke-width="3.5" d="M122.3076,-36.1582C123.6021,-53.3409 123.2928,-79.3554 113.0374,-99 109.6206,-105.5449 104.6277,-111.4371 99.1383,-116.561"/>
<polygon fill="#f60000" stroke="#f60000" stroke-width="3.5" points="96.8253,-113.9333 91.4463,-123.0611 101.3435,-119.2799 96.8253,-113.9333"/>
<text text-anchor="middle" x="139.0374" y="-72.8" font-family="Times,serif" font-size="14.00" fill="#f60000">@10</text>
</g>
<!-- 7&#45;&gt;9 -->
<g id="edge9" class="edge">
<title>7&#45;&gt;9</title>
<path fill="none" stroke="#a2a2a2" stroke-width="1.5" d="M31.5083,-243.5503C23.7221,-238.4706 16.5861,-232.034 12.0374,-224 2.1834,-206.596 3.12,-196.902 12.0374,-179 15.7236,-171.5997 21.5041,-165.2064 27.9162,-159.8367"/>
<polygon fill="#a2a2a2" stroke="#a2a2a2" stroke-width="1.5" points="30.3595,-162.3796 36.2658,-153.5837 26.1635,-156.7766 30.3595,-162.3796"/>
</g>
<!-- 7&#45;&gt;9 -->
<g id="edge18" class="edge">
<title>7&#45;&gt;9</title>
<path fill="none" stroke="#f60000" stroke-width="3.5" d="M45.2147,-241.6448C39.8736,-236.5995 35.0021,-230.657 32.0374,-224 23.9006,-205.73 25.2753,-197.8222 32.0374,-179 33.5859,-174.6896 35.8223,-170.5127 38.4119,-166.5864"/>
<polygon fill="#f60000" stroke="#f60000" stroke-width="3.5" points="41.3222,-168.5391 44.5155,-158.437 35.7194,-164.3428 41.3222,-168.5391"/>
<text text-anchor="middle" x="58.5374" y="-212.8" font-family="Times,serif" font-size="14.00" fill="#f60000">@7</text>
<text text-anchor="middle" x="58.5374" y="-197.8" font-family="Times,serif" font-size="14.00" fill="#f60000">start(1)</text>
<text text-anchor="middle" x="58.5374" y="-182.8" font-family="Times,serif" font-size="14.00" fill="#f60000">pc(9)</text>
</g>
<!-- 7&#45;&gt;9 -->
<g id="edge24" class="edge">
<title>7&#45;&gt;9</title>
<path fill="none" stroke="#00934a" stroke-width="3" stroke-dasharray="5,2" d="M80.0463,-241.6508C82.0934,-236.0893 84.0063,-229.891 85.0374,-224 88.4854,-204.2995 89.6324,-198.465 85.0374,-179 83.6103,-172.9549 81.122,-166.7817 78.3752,-161.1508"/>
<text text-anchor="middle" x="98.5374" y="-197.8" font-family="Times,serif" font-size="14.00" fill="#00934a"> t0</text>
</g>
<!-- 7&#45;&gt;9 -->
<g id="edge25" class="edge">
<title>7&#45;&gt;9</title>
<path fill="none" stroke="#4363d8" stroke-width="3" stroke-dasharray="5,2" d="M98.86,-241.6448C104.2011,-236.5995 109.0726,-230.657 112.0374,-224 120.1741,-205.73 120.4264,-197.1555 112.0374,-179 107.6329,-169.4679 99.713,-161.372 91.6146,-155.0096"/>
<text text-anchor="middle" x="128.5374" y="-197.8" font-family="Times,serif" font-size="14.00" fill="#4363d8"> t1</text>
</g>
<!-- 9&#45;&gt;8 -->
<g id="edge20" class="edge">
<title>9&#45;&gt;8</title>
<path fill="none" stroke="#f60000" stroke-width="3.5" d="M34.7496,-125.239C24.3318,-118.8485 13.8371,-110.1553 8.0374,-99 -1.1884,-81.255 -3.7439,-70.1617 8.0374,-54 15.2014,-44.1722 39.9383,-35.6974 64.3477,-29.4436"/>
<polygon fill="#f60000" stroke="#f60000" stroke-width="3.5" points="65.4918,-32.7668 74.3715,-26.9874 63.8258,-25.968 65.4918,-32.7668"/>
<text text-anchor="middle" x="47.0374" y="-87.8" font-family="Times,serif" font-size="14.00" fill="#f60000">@9</text>
<text text-anchor="middle" x="47.0374" y="-72.8" font-family="Times,serif" font-size="14.00" fill="#f60000">rollback(0)</text>
<text text-anchor="middle" x="47.0374" y="-57.8" font-family="Times,serif" font-size="14.00" fill="#f60000">pc(8)</text>
</g>
<!-- 9&#45;&gt;9 -->
<g id="edge19" class="edge">
<title>9&#45;&gt;9</title>
<path fill="none" stroke="#f60000" stroke-width="3.5" d="M99.3459,-150.6222C111.2177,-150.7451 120.805,-146.8711 120.805,-139 120.805,-133.5886 116.2735,-130.0665 109.5835,-128.4335"/>
<polygon fill="#f60000" stroke="#f60000" stroke-width="3.5" points="109.6521,-124.9221 99.3459,-127.3778 108.9341,-131.8852 109.6521,-124.9221"/>
<text text-anchor="middle" x="157.305" y="-142.8" font-family="Times,serif" font-size="14.00" fill="#f60000">@8</text>
<text text-anchor="middle" x="157.305" y="-127.8" font-family="Times,serif" font-size="14.00" fill="#f60000">commit(1)</text>
</g>
</g>
</svg>
