<?xml version="1.0" encoding="UTF-8" standalone="no"?>
<!DOCTYPE svg PUBLIC "-//W3C//DTD SVG 1.1//EN"
 "http://www.w3.org/Graphics/SVG/1.1/DTD/svg11.dtd">
<!-- Generated by graphviz version 2.40.1 (20161225.0304)
 -->
<!-- Title: %3 Pages: 1 -->
<svg width="230pt" height="970pt"
 viewBox="0.00 0.00 230.04 970.00" xmlns="http://www.w3.org/2000/svg" xmlns:xlink="http://www.w3.org/1999/xlink">
<g id="graph0" class="graph" transform="scale(1 1) rotate(0) translate(4 966)">
<title>%3</title>
<polygon fill="#ffffff" stroke="transparent" points="-4,4 -4,-966 226.0374,-966 226.0374,4 -4,4"/>
<!-- 0 -->
<g id="node1" class="node">
<title>0</title>
<polygon fill="#e6e6e6" stroke="#4a4a4a" points="192.5374,-962 107.5374,-962 107.5374,-926 192.5374,-926 192.5374,-962"/>
<text text-anchor="middle" x="150.0374" y="-940.3" font-family="Times,serif" font-size="14.00" fill="#4a4a4a">0: v←0+0</text>
</g>
<!-- 1 -->
<g id="node2" class="node">
<title>1</title>
<polygon fill="#e6e6e6" stroke="#4a4a4a" points="200.5374,-875 99.5374,-875 99.5374,-839 200.5374,-839 200.5374,-875"/>
<text text-anchor="middle" x="150.0374" y="-853.3" font-family="Times,serif" font-size="14.00" fill="#4a4a4a">1: store(v,0)</text>
</g>
<!-- 0&#45;&gt;1 -->
<g id="edge1" class="edge">
<title>0&#45;&gt;1</title>
<path fill="none" stroke="#a2a2a2" stroke-width="1.5" d="M148.8233,-925.6941C148.5004,-920.0251 148.1971,-913.7566 148.0374,-908 147.8358,-900.7396 147.9684,-892.9 148.2418,-885.5964"/>
<polygon fill="#a2a2a2" stroke="#a2a2a2" stroke-width="1.5" points="151.7471,-885.5627 148.7206,-875.4094 144.7549,-885.234 151.7471,-885.5627"/>
</g>
<!-- 0&#45;&gt;1 -->
<g id="edge11" class="edge">
<title>0&#45;&gt;1</title>
<path fill="none" stroke="#f60000" stroke-width="3.5" d="M150.0374,-925.9735C150.0374,-914.1918 150.0374,-898.5607 150.0374,-885.1581"/>
<polygon fill="#f60000" stroke="#f60000" stroke-width="3.5" points="153.5375,-885.0033 150.0374,-875.0034 146.5375,-885.0034 153.5375,-885.0033"/>
<text text-anchor="middle" x="161.5374" y="-896.8" font-family="Times,serif" font-size="14.00" fill="#f60000">@0</text>
</g>
<!-- 2 -->
<g id="node3" class="node">
<title>2</title>
<polygon fill="#e6e6e6" stroke="#4a4a4a" points="201.5374,-773 98.5374,-773 98.5374,-737 201.5374,-737 201.5374,-773"/>
<text text-anchor="middle" x="150.0374" y="-751.3" font-family="Times,serif" font-size="14.00" fill="#4a4a4a">2: v←100+0</text>
</g>
<!-- 1&#45;&gt;2 -->
<g id="edge2" class="edge">
<title>1&#45;&gt;2</title>
<path fill="none" stroke="#a2a2a2" stroke-width="1.5" d="M148.8233,-838.6941C148.5004,-833.0251 148.1971,-826.7566 148.0374,-821 147.6674,-807.6718 147.6674,-804.3282 148.0374,-791 148.1048,-788.5714 148.1977,-786.0517 148.3069,-783.5244"/>
<polygon fill="#a2a2a2" stroke="#a2a2a2" stroke-width="1.5" points="151.814,-783.4699 148.8233,-773.3059 144.8229,-783.1165 151.814,-783.4699"/>
</g>
<!-- 1&#45;&gt;2 -->
<g id="edge12" class="edge">
<title>1&#45;&gt;2</title>
<path fill="none" stroke="#f60000" stroke-width="3.5" d="M150.0374,-838.7644C150.0374,-823.317 150.0374,-800.9149 150.0374,-783.164"/>
<polygon fill="#f60000" stroke="#f60000" stroke-width="3.5" points="153.5375,-783.0776 150.0374,-773.0777 146.5375,-783.0777 153.5375,-783.0776"/>
<text text-anchor="middle" x="178.0374" y="-809.8" font-family="Times,serif" font-size="14.00" fill="#f60000">@1</text>
<text text-anchor="middle" x="178.0374" y="-794.8" font-family="Times,serif" font-size="14.00" fill="#f60000">store(0)</text>
</g>
<!-- 3 -->
<g id="node4" class="node">
<title>3</title>
<polygon fill="#e6e6e6" stroke="#4a4a4a" points="200.5374,-686 99.5374,-686 99.5374,-650 200.5374,-650 200.5374,-686"/>
<text text-anchor="middle" x="150.0374" y="-664.3" font-family="Times,serif" font-size="14.00" fill="#4a4a4a">3: store(v,1)</text>
</g>
<!-- 2&#45;&gt;3 -->
<g id="edge3" class="edge">
<title>2&#45;&gt;3</title>
<path fill="none" stroke="#a2a2a2" stroke-width="1.5" d="M148.7206,-736.5906C148.1776,-726.8955 147.7374,-714.8062 148.0374,-704 148.1048,-701.5714 148.1977,-699.0517 148.3069,-696.5244"/>
<polygon fill="#a2a2a2" stroke="#a2a2a2" stroke-width="1.5" points="151.814,-696.4699 148.8233,-686.3059 144.8229,-696.1165 151.814,-696.4699"/>
</g>
<!-- 2&#45;&gt;3 -->
<g id="edge13" class="edge">
<title>2&#45;&gt;3</title>
<path fill="none" stroke="#f60000" stroke-width="3.5" d="M150.0374,-736.9735C150.0374,-725.1918 150.0374,-709.5607 150.0374,-696.1581"/>
<polygon fill="#f60000" stroke="#f60000" stroke-width="3.5" points="153.5375,-696.0033 150.0374,-686.0034 146.5375,-696.0034 153.5375,-696.0033"/>
<text text-anchor="middle" x="161.5374" y="-707.8" font-family="Times,serif" font-size="14.00" fill="#f60000">@2</text>
</g>
<!-- 4 -->
<g id="node5" class="node">
<title>4</title>
<polygon fill="#e6e6e6" stroke="#4a4a4a" points="206.5374,-584 93.5374,-584 93.5374,-548 206.5374,-548 206.5374,-584"/>
<text text-anchor="middle" x="150.0374" y="-562.3" font-family="Times,serif" font-size="14.00" fill="#4a4a4a">4: load(r,x∧1)</text>
</g>
<!-- 3&#45;&gt;4 -->
<g id="edge4" class="edge">
<title>3&#45;&gt;4</title>
<path fill="none" stroke="#a2a2a2" stroke-width="1.5" d="M148.8233,-649.6941C148.5004,-644.0251 148.1971,-637.7566 148.0374,-632 147.6674,-618.6718 147.6674,-615.3282 148.0374,-602 148.1048,-599.5714 148.1977,-597.0517 148.3069,-594.5244"/>
<polygon fill="#a2a2a2" stroke="#a2a2a2" stroke-width="1.5" points="151.814,-594.4699 148.8233,-584.3059 144.8229,-594.1165 151.814,-594.4699"/>
</g>
<!-- 3&#45;&gt;4 -->
<g id="edge14" class="edge">
<title>3&#45;&gt;4</title>
<path fill="none" stroke="#f60000" stroke-width="3.5" d="M150.0374,-649.7644C150.0374,-634.317 150.0374,-611.9149 150.0374,-594.164"/>
<polygon fill="#f60000" stroke="#f60000" stroke-width="3.5" points="153.5375,-594.0776 150.0374,-584.0777 146.5375,-594.0777 153.5375,-594.0776"/>
<text text-anchor="middle" x="178.0374" y="-620.8" font-family="Times,serif" font-size="14.00" fill="#f60000">@3</text>
<text text-anchor="middle" x="178.0374" y="-605.8" font-family="Times,serif" font-size="14.00" fill="#f60000">store(1)</text>
</g>
<!-- 5 -->
<g id="node6" class="node">
<title>5</title>
<polygon fill="#e6e6e6" stroke="#4a4a4a" points="199.0374,-482 101.0374,-482 101.0374,-446 199.0374,-446 199.0374,-482"/>
<text text-anchor="middle" x="150.0374" y="-460.3" font-family="Times,serif" font-size="14.00" fill="#4a4a4a">5: beqz(r,8)</text>
</g>
<!-- 4&#45;&gt;5 -->
<g id="edge5" class="edge">
<title>4&#45;&gt;5</title>
<path fill="none" stroke="#a2a2a2" stroke-width="1.5" d="M148.8233,-547.6941C148.5004,-542.0251 148.1971,-535.7566 148.0374,-530 147.6674,-516.6718 147.6674,-513.3282 148.0374,-500 148.1048,-497.5714 148.1977,-495.0517 148.3069,-492.5244"/>
<polygon fill="#a2a2a2" stroke="#a2a2a2" stroke-width="1.5" points="151.814,-492.4699 148.8233,-482.3059 144.8229,-492.1165 151.814,-492.4699"/>
</g>
<!-- 4&#45;&gt;5 -->
<g id="edge15" class="edge">
<title>4&#45;&gt;5</title>
<path fill="none" stroke="#f60000" stroke-width="3.5" d="M150.0374,-547.7644C150.0374,-532.317 150.0374,-509.9149 150.0374,-492.164"/>
<polygon fill="#f60000" stroke="#f60000" stroke-width="3.5" points="153.5375,-492.0776 150.0374,-482.0777 146.5375,-492.0777 153.5375,-492.0776"/>
<text text-anchor="middle" x="185.0374" y="-518.8" font-family="Times,serif" font-size="14.00" fill="#f60000">@4</text>
<text text-anchor="middle" x="185.0374" y="-503.8" font-family="Times,serif" font-size="14.00" fill="#f60000">load(0∧1)</text>
</g>
<!-- 6 -->
<g id="node7" class="node">
<title>6</title>
<polygon fill="#e6e6e6" stroke="#4a4a4a" points="157.5374,-365 66.5374,-365 66.5374,-329 157.5374,-329 157.5374,-365"/>
<text text-anchor="middle" x="112.0374" y="-343.3" font-family="Times,serif" font-size="14.00" fill="#4a4a4a">6: v1←256</text>
</g>
<!-- 5&#45;&gt;6 -->
<g id="edge6" class="edge">
<title>5&#45;&gt;6</title>
<path fill="none" stroke="#a2a2a2" stroke-width="1.5" d="M109.7552,-445.9663C103.0459,-441.1182 96.9921,-435.1753 93.0374,-428 83.8868,-411.3979 89.1122,-390.5296 96.3786,-374.1328"/>
<polygon fill="#a2a2a2" stroke="#a2a2a2" stroke-width="1.5" points="99.5648,-375.584 100.7995,-365.0613 93.2723,-372.5174 99.5648,-375.584"/>
</g>
<!-- 5&#45;&gt;6 -->
<g id="edge16" class="edge">
<title>5&#45;&gt;6</title>
<path fill="none" stroke="#f60000" stroke-width="3.5" d="M125.6315,-445.691C120.5417,-440.574 115.8672,-434.5879 113.0374,-428 106.0019,-411.6215 105.6881,-391.6052 107.1646,-375.5683"/>
<polygon fill="#f60000" stroke="#f60000" stroke-width="3.5" points="110.6929,-375.5417 108.4121,-365.1953 103.743,-374.7057 110.6929,-375.5417"/>
<text text-anchor="middle" x="139.5374" y="-416.8" font-family="Times,serif" font-size="14.00" fill="#f60000">@5</text>
<text text-anchor="middle" x="139.5374" y="-401.8" font-family="Times,serif" font-size="14.00" fill="#f60000">start(0)</text>
<text text-anchor="middle" x="139.5374" y="-386.8" font-family="Times,serif" font-size="14.00" fill="#f60000">pc(6)</text>
</g>
<!-- 5&#45;&gt;6 -->
<g id="edge22" class="edge">
<title>5&#45;&gt;6</title>
<path fill="none" stroke="#00934a" stroke-width="3" stroke-dasharray="5,2" d="M160.1294,-445.9303C168.2327,-428.8117 176.6564,-402.8418 166.0374,-383 162.2626,-375.9468 156.428,-370.0368 149.9664,-365.1784"/>
<text text-anchor="middle" x="180.5374" y="-401.8" font-family="Times,serif" font-size="14.00" fill="#00934a"> t0</text>
</g>
<!-- 8 -->
<g id="node8" class="node">
<title>8</title>
<polygon fill="#e6e6e6" stroke="#4a4a4a" points="165.5374,-36 74.5374,-36 74.5374,0 165.5374,0 165.5374,-36"/>
<text text-anchor="middle" x="120.0374" y="-14.3" font-family="Times,serif" font-size="14.00" fill="#4a4a4a">8: v1←257</text>
</g>
<!-- 5&#45;&gt;8 -->
<g id="edge7" class="edge">
<title>5&#45;&gt;8</title>
<path fill="none" stroke="#a2a2a2" stroke-width="1.5" d="M176.9702,-445.9152C183.2299,-440.7179 189.408,-434.6386 194.0374,-428 215.825,-396.7564 222.0374,-385.0902 222.0374,-347 222.0374,-347 222.0374,-347 222.0374,-139 222.0374,-97.8642 187.1487,-63.4572 158.1804,-41.9786"/>
<polygon fill="#a2a2a2" stroke="#a2a2a2" stroke-width="1.5" points="159.9857,-38.9669 149.8142,-36.0019 155.9166,-44.6628 159.9857,-38.9669"/>
</g>
<!-- 7 -->
<g id="node9" class="node">
<title>7</title>
<polygon fill="#e6e6e6" stroke="#4a4a4a" points="152.5374,-278 71.5374,-278 71.5374,-242 152.5374,-242 152.5374,-278"/>
<text text-anchor="middle" x="112.0374" y="-256.3" font-family="Times,serif" font-size="14.00" fill="#4a4a4a">7: jmp(9)</text>
</g>
<!-- 6&#45;&gt;7 -->
<g id="edge8" class="edge">
<title>6&#45;&gt;7</title>
<path fill="none" stroke="#a2a2a2" stroke-width="1.5" d="M100.161,-328.6364C97.245,-323.1769 94.5326,-317.0366 93.0374,-311 91.0886,-303.1326 92.5792,-294.8113 95.423,-287.2237"/>
<polygon fill="#a2a2a2" stroke="#a2a2a2" stroke-width="1.5" points="98.6216,-288.6449 99.5918,-278.0946 92.2541,-285.7371 98.6216,-288.6449"/>
</g>
<!-- 6&#45;&gt;7 -->
<g id="edge17" class="edge">
<title>6&#45;&gt;7</title>
<path fill="none" stroke="#f60000" stroke-width="3.5" d="M112.0374,-328.9735C112.0374,-317.1918 112.0374,-301.5607 112.0374,-288.1581"/>
<polygon fill="#f60000" stroke="#f60000" stroke-width="3.5" points="115.5375,-288.0033 112.0374,-278.0034 108.5375,-288.0034 115.5375,-288.0033"/>
<text text-anchor="middle" x="123.5374" y="-299.8" font-family="Times,serif" font-size="14.00" fill="#f60000">@6</text>
</g>
<!-- 6&#45;&gt;7 -->
<g id="edge23" class="edge">
<title>6&#45;&gt;7</title>
<path fill="none" stroke="#00934a" stroke-width="3" stroke-dasharray="5,2" d="M127.2551,-328.638C130.8426,-323.2742 134.1654,-317.1828 136.0374,-311 139.4402,-299.7612 134.3794,-287.8527 128.042,-278.3718"/>
<text text-anchor="middle" x="147.5374" y="-299.8" font-family="Times,serif" font-size="14.00" fill="#00934a"> t0</text>
</g>
<!-- 9 -->
<g id="node10" class="node">
<title>9</title>
<polygon fill="#e6e6e6" stroke="#4a4a4a" points="98.5985,-131.5442 98.5985,-146.4558 78.9388,-157 51.1359,-157 31.4762,-146.4558 31.4762,-131.5442 51.1359,-121 78.9388,-121 98.5985,-131.5442"/>
<polygon fill="none" stroke="#4a4a4a" points="102.5741,-129.1436 102.5741,-148.8564 79.9323,-161 50.1424,-161 27.5007,-148.8564 27.5007,-129.1436 50.1424,-117 79.9323,-117 102.5741,-129.1436"/>
<text text-anchor="middle" x="65.0374" y="-135.3" font-family="Times,serif" font-size="14.00" fill="#4a4a4a">9: ⊥</text>
</g>
<!-- 8&#45;&gt;9 -->
<g id="edge10" class="edge">
<title>8&#45;&gt;9</title>
<path fill="none" stroke="#a2a2a2" stroke-width="1.5" d="M114.4991,-36.1337C109.1224,-52.8445 100.2866,-78.1379 90.0374,-99 88.593,-101.94 86.9896,-104.9379 85.3122,-107.9037"/>
<polygon fill="#a2a2a2" stroke="#a2a2a2" stroke-width="1.5" points="82.2361,-106.2291 80.1428,-116.6151 88.256,-109.8014 82.2361,-106.2291"/>
</g>
<!-- 8&#45;&gt;9 -->
<g id="edge21" class="edge">
<title>8&#45;&gt;9</title>
<path fill="none" stroke="#f60000" stroke-width="3.5" d="M122.3076,-36.1582C123.6021,-53.3409 123.2928,-79.3554 113.0374,-99 109.6206,-105.5449 104.6277,-111.4371 99.1383,-116.561"/>
<polygon fill="#f60000" stroke="#f60000" stroke-width="3.5" points="96.8253,-113.9333 91.4463,-123.0611 101.3435,-119.2799 96.8253,-113.9333"/>
<text text-anchor="middle" x="139.0374" y="-72.8" font-family="Times,serif" font-size="14.00" fill="#f60000">@10</text>
</g>
<!-- 7&#45;&gt;9 -->
<g id="edge9" class="edge">
<title>7&#45;&gt;9</title>
<path fill="none" stroke="#a2a2a2" stroke-width="1.5" d="M71.2745,-251.5179C56.3134,-246.2193 40.8859,-237.685 32.0374,-224 21.1779,-207.205 25.2753,-197.8222 32.0374,-179 33.5859,-174.6896 35.8223,-170.5127 38.4119,-166.5864"/>
<polygon fill="#a2a2a2" stroke="#a2a2a2" stroke-width="1.5" points="41.3222,-168.5391 44.5155,-158.437 35.7194,-164.3428 41.3222,-168.5391"/>
</g>
<!-- 7&#45;&gt;9 -->
<g id="edge18" class="edge">
<title>7&#45;&gt;9</title>
<path fill="none" stroke="#f60000" stroke-width="3.5" d="M71.5083,-243.5503C63.7221,-238.4706 56.5861,-232.034 52.0374,-224 43.0226,-208.0781 45.6193,-187.9188 50.7757,-171.229"/>
<polygon fill="#f60000" stroke="#f60000" stroke-width="3.5" points="54.2319,-171.9493 54.2361,-161.3545 47.6258,-169.6342 54.2319,-171.9493"/>
<text text-anchor="middle" x="78.5374" y="-212.8" font-family="Times,serif" font-size="14.00" fill="#f60000">@7</text>
<text text-anchor="middle" x="78.5374" y="-197.8" font-family="Times,serif" font-size="14.00" fill="#f60000">start(1)</text>
<text text-anchor="middle" x="78.5374" y="-182.8" font-family="Times,serif" font-size="14.00" fill="#f60000">pc(9)</text>
</g>
<!-- 7&#45;&gt;9 -->
<g id="edge24" class="edge">
<title>7&#45;&gt;9</title>
<path fill="none" stroke="#00934a" stroke-width="3" stroke-dasharray="5,2" d="M113.9225,-241.7146C114.8986,-224.673 114.3325,-198.9612 105.0374,-179 101.1403,-170.6312 94.7121,-163.0152 88.137,-156.7274"/>
<text text-anchor="middle" x="124.5374" y="-197.8" font-family="Times,serif" font-size="14.00" fill="#00934a"> t0</text>
</g>
<!-- 7&#45;&gt;9 -->
<g id="edge25" class="edge">
<title>7&#45;&gt;9</title>
<path fill="none" stroke="#4363d8" stroke-width="3" stroke-dasharray="5,2" d="M128.5075,-241.8045C132.3939,-236.4414 135.9974,-230.3086 138.0374,-224 144.1907,-204.9701 148.2302,-196.2078 138.0374,-179 129.9358,-165.3227 115.3184,-156.0141 101.2806,-149.8451"/>
<text text-anchor="middle" x="154.5374" y="-197.8" font-family="Times,serif" font-size="14.00" fill="#4363d8"> t1</text>
</g>
<!-- 9&#45;&gt;8 -->
<g id="edge20" class="edge">
<title>9&#45;&gt;8</title>
<path fill="none" stroke="#f60000" stroke-width="3.5" d="M34.7496,-125.239C24.3318,-118.8485 13.8371,-110.1553 8.0374,-99 -1.1884,-81.255 -3.7439,-70.1617 8.0374,-54 15.2014,-44.1722 39.9383,-35.6974 64.3477,-29.4436"/>
<polygon fill="#f60000" stroke="#f60000" stroke-width="3.5" points="65.4918,-32.7668 74.3715,-26.9874 63.8258,-25.968 65.4918,-32.7668"/>
<text text-anchor="middle" x="47.0374" y="-87.8" font-family="Times,serif" font-size="14.00" fill="#f60000">@9</text>
<text text-anchor="middle" x="47.0374" y="-72.8" font-family="Times,serif" font-size="14.00" fill="#f60000">rollback(0)</text>
<text text-anchor="middle" x="47.0374" y="-57.8" font-family="Times,serif" font-size="14.00" fill="#f60000">pc(8)</text>
</g>
<!-- 9&#45;&gt;9 -->
<g id="edge19" class="edge">
<title>9&#45;&gt;9</title>
<path fill="none" stroke="#f60000" stroke-width="3.5" d="M99.3459,-150.6222C111.2177,-150.7451 120.805,-146.8711 120.805,-139 120.805,-133.5886 116.2735,-130.0665 109.5835,-128.4335"/>
<polygon fill="#f60000" stroke="#f60000" stroke-width="3.5" points="109.6521,-124.9221 99.3459,-127.3778 108.9341,-131.8852 109.6521,-124.9221"/>
<text text-anchor="middle" x="157.305" y="-142.8" font-family="Times,serif" font-size="14.00" fill="#f60000">@8</text>
<text text-anchor="middle" x="157.305" y="-127.8" font-family="Times,serif" font-size="14.00" fill="#f60000">commit(1)</text>
</g>
</g>
</svg>
