<?xml version="1.0" encoding="UTF-8" standalone="no"?>
<!DOCTYPE svg PUBLIC "-//W3C//DTD SVG 1.1//EN"
 "http://www.w3.org/Graphics/SVG/1.1/DTD/svg11.dtd">
<!-- Generated by graphviz version 2.40.1 (20161225.0304)
 -->
<!-- Title: %3 Pages: 1 -->
<svg width="336pt" height="1121pt"
 viewBox="0.00 0.00 336.00 1121.00" xmlns="http://www.w3.org/2000/svg" xmlns:xlink="http://www.w3.org/1999/xlink">
<g id="graph0" class="graph" transform="scale(1 1) rotate(0) translate(4 1117)">
<title>%3</title>
<polygon fill="#ffffff" stroke="transparent" points="-4,4 -4,-1117 332,-1117 332,4 -4,4"/>
<g id="clust1" class="cluster">
<title>cluster_0</title>
<polygon fill="none" stroke="#0087bd" stroke-width="1.5" stroke-dasharray="1,5" points="8,-8 8,-436 193,-436 193,-8 8,-8"/>
<text text-anchor="middle" x="100.5" y="-420.8" font-family="Times,serif" font-size="14.00" fill="#000000">Transaction 0</text>
</g>
<g id="clust2" class="cluster">
<title>cluster_1</title>
<polygon fill="none" stroke="#0087bd" stroke-width="1.5" stroke-dasharray="1,5" points="16,-16 16,-91 185,-91 185,-16 16,-16"/>
<text text-anchor="middle" x="100.5" y="-75.8" font-family="Times,serif" font-size="14.00" fill="#000000">Transaction 1</text>
</g>
<!-- 0 -->
<g id="node1" class="node">
<title>0</title>
<ellipse fill="#e6e6e6" stroke="#a2a2a2" cx="152" cy="-1095" rx="55.4913" ry="18"/>
<text text-anchor="middle" x="152" y="-1091.3" font-family="Times,serif" font-size="14.00" fill="#000000">0: v←0+0</text>
</g>
<!-- 1 -->
<g id="node2" class="node">
<title>1</title>
<ellipse fill="#e6e6e6" stroke="#a2a2a2" cx="152" cy="-993" rx="65.7887" ry="18"/>
<text text-anchor="middle" x="152" y="-989.3" font-family="Times,serif" font-size="14.00" fill="#000000">1: store(v,0)</text>
</g>
<!-- 0&#45;&gt;1 -->
<g id="edge1" class="edge">
<title>0&#45;&gt;1</title>
<path fill="none" stroke="#a2a2a2" stroke-width="1.5" d="M150.786,-1076.6941C150.463,-1071.0251 150.1598,-1064.7566 150,-1059 149.6301,-1045.6718 149.6301,-1042.3282 150,-1029 150.0674,-1026.5714 150.1603,-1024.0517 150.2695,-1021.5244"/>
<polygon fill="#a2a2a2" stroke="#a2a2a2" stroke-width="1.5" points="153.7767,-1021.4699 150.786,-1011.3059 146.7856,-1021.1165 153.7767,-1021.4699"/>
</g>
<!-- 0&#45;&gt;1 -->
<g id="edge11" class="edge">
<title>0&#45;&gt;1</title>
<path fill="none" stroke="#ff0000" stroke-width="2.5" d="M152,-1076.7644C152,-1061.317 152,-1038.9149 152,-1021.164"/>
<polygon fill="#ff0000" stroke="#ff0000" stroke-width="2.5" points="155.5001,-1021.0776 152,-1011.0777 148.5001,-1021.0777 155.5001,-1021.0776"/>
<text text-anchor="middle" x="186" y="-1047.8" font-family="Times,serif" font-size="14.00" fill="#000000">@0</text>
<text text-anchor="middle" x="186" y="-1032.8" font-family="Times,serif" font-size="14.00" fill="#000000"># A=0+0</text>
</g>
<!-- 2 -->
<g id="node3" class="node">
<title>2</title>
<ellipse fill="#e6e6e6" stroke="#a2a2a2" cx="152" cy="-876" rx="66.8882" ry="18"/>
<text text-anchor="middle" x="152" y="-872.3" font-family="Times,serif" font-size="14.00" fill="#000000">2: v←100+0</text>
</g>
<!-- 1&#45;&gt;2 -->
<g id="edge2" class="edge">
<title>1&#45;&gt;2</title>
<path fill="none" stroke="#a2a2a2" stroke-width="1.5" d="M150.786,-974.6941C150.463,-969.0251 150.1598,-962.7566 150,-957 149.4451,-937.0077 149.4451,-931.9923 150,-912 150.0674,-909.5714 150.1603,-907.0517 150.2695,-904.5244"/>
<polygon fill="#a2a2a2" stroke="#a2a2a2" stroke-width="1.5" points="153.7767,-904.4699 150.786,-894.3059 146.7856,-904.1165 153.7767,-904.4699"/>
</g>
<!-- 1&#45;&gt;2 -->
<g id="edge12" class="edge">
<title>1&#45;&gt;2</title>
<path fill="none" stroke="#ff0000" stroke-width="2.5" d="M152,-974.9752C152,-956.1356 152,-926.3112 152,-904.3213"/>
<polygon fill="#ff0000" stroke="#ff0000" stroke-width="2.5" points="155.5001,-904.2381 152,-894.2381 148.5001,-904.2381 155.5001,-904.2381"/>
<text text-anchor="middle" x="201.5" y="-945.8" font-family="Times,serif" font-size="14.00" fill="#000000">@1</text>
<text text-anchor="middle" x="201.5" y="-930.8" font-family="Times,serif" font-size="14.00" fill="#000000"># update(0,A)</text>
<text text-anchor="middle" x="201.5" y="-915.8" font-family="Times,serif" font-size="14.00" fill="#000000">store(0)</text>
</g>
<!-- 3 -->
<g id="node4" class="node">
<title>3</title>
<ellipse fill="#e6e6e6" stroke="#a2a2a2" cx="152" cy="-774" rx="65.7887" ry="18"/>
<text text-anchor="middle" x="152" y="-770.3" font-family="Times,serif" font-size="14.00" fill="#000000">3: store(v,1)</text>
</g>
<!-- 2&#45;&gt;3 -->
<g id="edge3" class="edge">
<title>2&#45;&gt;3</title>
<path fill="none" stroke="#a2a2a2" stroke-width="1.5" d="M150.786,-857.6941C150.463,-852.0251 150.1598,-845.7566 150,-840 149.6301,-826.6718 149.6301,-823.3282 150,-810 150.0674,-807.5714 150.1603,-805.0517 150.2695,-802.5244"/>
<polygon fill="#a2a2a2" stroke="#a2a2a2" stroke-width="1.5" points="153.7767,-802.4699 150.786,-792.3059 146.7856,-802.1165 153.7767,-802.4699"/>
</g>
<!-- 2&#45;&gt;3 -->
<g id="edge13" class="edge">
<title>2&#45;&gt;3</title>
<path fill="none" stroke="#ff0000" stroke-width="2.5" d="M152,-857.7644C152,-842.317 152,-819.9149 152,-802.164"/>
<polygon fill="#ff0000" stroke="#ff0000" stroke-width="2.5" points="155.5001,-802.0776 152,-792.0777 148.5001,-802.0777 155.5001,-802.0776"/>
<text text-anchor="middle" x="195.5" y="-828.8" font-family="Times,serif" font-size="14.00" fill="#000000">@2</text>
<text text-anchor="middle" x="195.5" y="-813.8" font-family="Times,serif" font-size="14.00" fill="#000000"># B=100+0</text>
</g>
<!-- 4 -->
<g id="node5" class="node">
<title>4</title>
<ellipse fill="#e6e6e6" stroke="#a2a2a2" cx="152" cy="-657" rx="73.387" ry="18"/>
<text text-anchor="middle" x="152" y="-653.3" font-family="Times,serif" font-size="14.00" fill="#000000">4: load(r,x∧1)</text>
</g>
<!-- 3&#45;&gt;4 -->
<g id="edge4" class="edge">
<title>3&#45;&gt;4</title>
<path fill="none" stroke="#a2a2a2" stroke-width="1.5" d="M150.786,-755.6941C150.463,-750.0251 150.1598,-743.7566 150,-738 149.4451,-718.0077 149.4451,-712.9923 150,-693 150.0674,-690.5714 150.1603,-688.0517 150.2695,-685.5244"/>
<polygon fill="#a2a2a2" stroke="#a2a2a2" stroke-width="1.5" points="153.7767,-685.4699 150.786,-675.3059 146.7856,-685.1165 153.7767,-685.4699"/>
</g>
<!-- 3&#45;&gt;4 -->
<g id="edge14" class="edge">
<title>3&#45;&gt;4</title>
<path fill="none" stroke="#ff0000" stroke-width="2.5" d="M152,-755.9752C152,-737.1356 152,-707.3112 152,-685.3213"/>
<polygon fill="#ff0000" stroke="#ff0000" stroke-width="2.5" points="155.5001,-685.2381 152,-675.2381 148.5001,-685.2381 155.5001,-685.2381"/>
<text text-anchor="middle" x="202" y="-726.8" font-family="Times,serif" font-size="14.00" fill="#000000">@3</text>
<text text-anchor="middle" x="202" y="-711.8" font-family="Times,serif" font-size="14.00" fill="#000000"># update(1,B)</text>
<text text-anchor="middle" x="202" y="-696.8" font-family="Times,serif" font-size="14.00" fill="#000000">store(1)</text>
</g>
<!-- 5 -->
<g id="node6" class="node">
<title>5</title>
<ellipse fill="#e6e6e6" stroke="#a2a2a2" cx="152" cy="-540" rx="63.8893" ry="18"/>
<text text-anchor="middle" x="152" y="-536.3" font-family="Times,serif" font-size="14.00" fill="#000000">5: beqz(r,8)</text>
</g>
<!-- 4&#45;&gt;5 -->
<g id="edge5" class="edge">
<title>4&#45;&gt;5</title>
<path fill="none" stroke="#a2a2a2" stroke-width="1.5" d="M150.786,-638.6941C150.463,-633.0251 150.1598,-626.7566 150,-621 149.4451,-601.0077 149.4451,-595.9923 150,-576 150.0674,-573.5714 150.1603,-571.0517 150.2695,-568.5244"/>
<polygon fill="#a2a2a2" stroke="#a2a2a2" stroke-width="1.5" points="153.7767,-568.4699 150.786,-558.3059 146.7856,-568.1165 153.7767,-568.4699"/>
</g>
<!-- 4&#45;&gt;5 -->
<g id="edge15" class="edge">
<title>4&#45;&gt;5</title>
<path fill="none" stroke="#ff0000" stroke-width="2.5" d="M152,-638.9752C152,-620.1356 152,-590.3112 152,-568.3213"/>
<polygon fill="#ff0000" stroke="#ff0000" stroke-width="2.5" points="155.5001,-568.2381 152,-558.2381 148.5001,-568.2381 155.5001,-568.2381"/>
<text text-anchor="middle" x="215.5" y="-609.8" font-family="Times,serif" font-size="14.00" fill="#000000">@4</text>
<text text-anchor="middle" x="215.5" y="-594.8" font-family="Times,serif" font-size="14.00" fill="#000000">load(0∧1)</text>
<text text-anchor="middle" x="215.5" y="-579.8" font-family="Times,serif" font-size="14.00" fill="#000000"># element(0∧1,C)</text>
</g>
<!-- 6 -->
<g id="node7" class="node">
<title>6</title>
<ellipse fill="#e6e6e6" stroke="#a2a2a2" cx="121" cy="-387" rx="59.2899" ry="18"/>
<text text-anchor="middle" x="121" y="-383.3" font-family="Times,serif" font-size="14.00" fill="#000000">6: v1←256</text>
</g>
<!-- 5&#45;&gt;6 -->
<g id="edge6" class="edge">
<title>5&#45;&gt;6</title>
<path fill="none" stroke="#a2a2a2" stroke-width="1.5" d="M140.9169,-522.2681C137.8672,-516.6225 134.8835,-510.2229 133,-504 124.1255,-474.6803 121.5313,-439.5437 120.9042,-415.4772"/>
<polygon fill="#a2a2a2" stroke="#a2a2a2" stroke-width="1.5" points="124.4003,-415.2013 120.7391,-405.2592 117.4012,-415.3145 124.4003,-415.2013"/>
</g>
<!-- 5&#45;&gt;6 -->
<g id="edge16" class="edge">
<title>5&#45;&gt;6</title>
<path fill="none" stroke="#ff0000" stroke-width="2.5" d="M148.3222,-521.8481C142.9852,-495.5075 133.0443,-446.4446 126.7384,-415.3219"/>
<polygon fill="#ff0000" stroke="#ff0000" stroke-width="2.5" points="130.0892,-414.2341 124.6731,-405.1283 123.2286,-415.6242 130.0892,-414.2341"/>
<text text-anchor="middle" x="190.5" y="-492.8" font-family="Times,serif" font-size="14.00" fill="#000000">@5</text>
<text text-anchor="middle" x="190.5" y="-477.8" font-family="Times,serif" font-size="14.00" fill="#000000"># cond(C=0)</text>
<text text-anchor="middle" x="190.5" y="-462.8" font-family="Times,serif" font-size="14.00" fill="#000000">start(0)</text>
<text text-anchor="middle" x="190.5" y="-447.8" font-family="Times,serif" font-size="14.00" fill="#000000">pc(6)</text>
</g>
<!-- 8 -->
<g id="node8" class="node">
<title>8</title>
<ellipse fill="#e6e6e6" stroke="#a2a2a2" cx="260" cy="-184.5" rx="59.2899" ry="18"/>
<text text-anchor="middle" x="260" y="-180.8" font-family="Times,serif" font-size="14.00" fill="#000000">8: v1←257</text>
</g>
<!-- 5&#45;&gt;8 -->
<g id="edge7" class="edge">
<title>5&#45;&gt;8</title>
<path fill="none" stroke="#a2a2a2" stroke-width="1.5" d="M203.4644,-529.1854C217.556,-523.829 231.5372,-515.8536 241,-504 273.867,-462.8288 260,-439.6812 260,-387 260,-387 260,-387 260,-262 260,-245.81 260,-227.7176 260,-213.088"/>
<polygon fill="#a2a2a2" stroke="#a2a2a2" stroke-width="1.5" points="263.5001,-212.6644 260,-202.6645 256.5001,-212.6645 263.5001,-212.6644"/>
</g>
<!-- 7 -->
<g id="node9" class="node">
<title>7</title>
<ellipse fill="#e6e6e6" stroke="#a2a2a2" cx="86" cy="-262" rx="52.7911" ry="18"/>
<text text-anchor="middle" x="86" y="-258.3" font-family="Times,serif" font-size="14.00" fill="#000000">7: jmp(9)</text>
</g>
<!-- 6&#45;&gt;7 -->
<g id="edge8" class="edge">
<title>6&#45;&gt;7</title>
<path fill="none" stroke="#a2a2a2" stroke-width="1.5" d="M113.2217,-368.9271C108.8789,-358.3195 103.6289,-344.5695 100,-332 96.0789,-318.4184 92.8726,-303.0431 90.5227,-290.1687"/>
<polygon fill="#a2a2a2" stroke="#a2a2a2" stroke-width="1.5" points="93.9215,-289.2855 88.7532,-280.0367 87.0258,-290.4898 93.9215,-289.2855"/>
</g>
<!-- 6&#45;&gt;7 -->
<g id="edge17" class="edge">
<title>6&#45;&gt;7</title>
<path fill="none" stroke="#ff0000" stroke-width="2.5" d="M116.3026,-368.8828C111.5866,-350.8644 104.0313,-322.4545 97,-298 96.2308,-295.3248 95.4131,-292.5432 94.5842,-289.7647"/>
<polygon fill="#ff0000" stroke="#ff0000" stroke-width="2.5" points="97.8483,-288.4671 91.6005,-279.9105 91.1487,-290.4957 97.8483,-288.4671"/>
<text text-anchor="middle" x="117.5" y="-320.8" font-family="Times,serif" font-size="14.00" fill="#000000">@6</text>
</g>
<!-- 9 -->
<g id="node10" class="node">
<title>9</title>
<ellipse fill="#e6e6e6" stroke="#a2a2a2" cx="55" cy="-42" rx="31.3957" ry="18"/>
<text text-anchor="middle" x="55" y="-38.3" font-family="Times,serif" font-size="14.00" fill="#000000">9: ⊥</text>
</g>
<!-- 8&#45;&gt;9 -->
<g id="edge10" class="edge">
<title>8&#45;&gt;9</title>
<path fill="none" stroke="#a2a2a2" stroke-width="1.5" d="M222.5392,-170.3711C200.404,-161.6689 174.8363,-150.8957 165,-144 142.5987,-128.2957 142.8535,-117.8224 123,-99 109.8865,-86.5675 94.513,-73.5606 81.7041,-63.116"/>
<polygon fill="#a2a2a2" stroke="#a2a2a2" stroke-width="1.5" points="83.6847,-60.2166 73.7067,-56.6543 79.2854,-65.6615 83.6847,-60.2166"/>
</g>
<!-- 8&#45;&gt;9 -->
<g id="edge21" class="edge">
<title>8&#45;&gt;9</title>
<path fill="none" stroke="#ff0000" stroke-width="2.5" d="M225.3637,-169.7059C212.3866,-163.0823 198.1097,-154.4002 187,-144 169.6301,-127.7393 175.3786,-115.2514 158,-99 138.3237,-80.5999 111.603,-66.0365 90.3085,-56.2368"/>
<polygon fill="#ff0000" stroke="#ff0000" stroke-width="2.5" points="91.5105,-52.9409 80.9513,-52.0729 88.6645,-59.3362 91.5105,-52.9409"/>
<text text-anchor="middle" x="203" y="-117.8" font-family="Times,serif" font-size="14.00" fill="#000000">@10</text>
</g>
<!-- 7&#45;&gt;9 -->
<g id="edge9" class="edge">
<title>7&#45;&gt;9</title>
<path fill="none" stroke="#a2a2a2" stroke-width="1.5" d="M77.5707,-244.0911C73.0109,-233.5382 67.7609,-219.7882 65,-207 54.8248,-159.8703 53.6982,-103.5351 54.1258,-70.376"/>
<polygon fill="#a2a2a2" stroke="#a2a2a2" stroke-width="1.5" points="57.6309,-70.1301 54.3195,-60.0661 50.6321,-69.9985 57.6309,-70.1301"/>
</g>
<!-- 7&#45;&gt;9 -->
<g id="edge18" class="edge">
<title>7&#45;&gt;9</title>
<path fill="none" stroke="#ff0000" stroke-width="2.5" d="M83.4631,-243.9965C78.0681,-205.7093 65.422,-115.9629 58.9572,-70.0832"/>
<polygon fill="#ff0000" stroke="#ff0000" stroke-width="2.5" points="62.3896,-69.3575 57.5284,-59.9437 55.4581,-70.3343 62.3896,-69.3575"/>
<text text-anchor="middle" x="104.5" y="-195.8" font-family="Times,serif" font-size="14.00" fill="#000000">@7</text>
<text text-anchor="middle" x="104.5" y="-180.8" font-family="Times,serif" font-size="14.00" fill="#000000">start(1)</text>
<text text-anchor="middle" x="104.5" y="-165.8" font-family="Times,serif" font-size="14.00" fill="#000000">pc(9)</text>
</g>
<!-- 9&#45;&gt;8 -->
<g id="edge20" class="edge">
<title>9&#45;&gt;8</title>
<path fill="none" stroke="#ff0000" stroke-width="2.5" d="M86.106,-44.9611C123.0496,-50.0205 184.5019,-63.5118 223,-99 239.4558,-114.1693 248.9323,-137.9203 254.1666,-156.5436"/>
<polygon fill="#ff0000" stroke="#ff0000" stroke-width="2.5" points="250.7868,-157.4544 256.6554,-166.2754 257.5685,-155.72 250.7868,-157.4544"/>
<text text-anchor="middle" x="289" y="-132.8" font-family="Times,serif" font-size="14.00" fill="#000000">@9</text>
<text text-anchor="middle" x="289" y="-117.8" font-family="Times,serif" font-size="14.00" fill="#000000">rollback(0)</text>
<text text-anchor="middle" x="289" y="-102.8" font-family="Times,serif" font-size="14.00" fill="#000000">pc(8)</text>
</g>
<!-- 9&#45;&gt;9 -->
<g id="edge19" class="edge">
<title>9&#45;&gt;9</title>
<path fill="none" stroke="#ff0000" stroke-width="2.5" d="M76.2388,-55.336C90.4066,-59.0899 104.1972,-54.6445 104.1972,-42 104.1972,-32.4178 96.2775,-27.5443 86.2757,-27.3793"/>
<polygon fill="#ff0000" stroke="#ff0000" stroke-width="2.5" points="85.7135,-23.9226 76.2388,-28.664 86.6022,-30.866 85.7135,-23.9226"/>
<text text-anchor="middle" x="140.6972" y="-45.8" font-family="Times,serif" font-size="14.00" fill="#000000">@8</text>
<text text-anchor="middle" x="140.6972" y="-30.8" font-family="Times,serif" font-size="14.00" fill="#000000">commit(1)</text>
</g>
</g>
</svg>
