<?xml version="1.0" encoding="UTF-8" standalone="no"?>
<!DOCTYPE svg PUBLIC "-//W3C//DTD SVG 1.1//EN"
 "http://www.w3.org/Graphics/SVG/1.1/DTD/svg11.dtd">
<!-- Generated by graphviz version 2.40.1 (20161225.0304)
 -->
<!-- Title: %3 Pages: 1 -->
<svg width="187pt" height="985pt"
 viewBox="0.00 0.00 186.94 985.00" xmlns="http://www.w3.org/2000/svg" xmlns:xlink="http://www.w3.org/1999/xlink">
<g id="graph0" class="graph" transform="scale(1 1) rotate(0) translate(4 981)">
<title>%3</title>
<polygon fill="#ffffff" stroke="transparent" points="-4,4 -4,-981 182.9391,-981 182.9391,4 -4,4"/>
<!-- 0 -->
<g id="node1" class="node">
<title>0</title>
<polygon fill="#e6e6e6" stroke="#4a4a4a" points="149.4391,-977 64.4391,-977 64.4391,-941 149.4391,-941 149.4391,-977"/>
<text text-anchor="middle" x="106.9391" y="-955.3" font-family="Times,serif" font-size="14.00" fill="#4a4a4a">0: v←0+0</text>
</g>
<!-- 1 -->
<g id="node2" class="node">
<title>1</title>
<polygon fill="#e6e6e6" stroke="#4a4a4a" points="157.4391,-890 56.4391,-890 56.4391,-854 157.4391,-854 157.4391,-890"/>
<text text-anchor="middle" x="106.9391" y="-868.3" font-family="Times,serif" font-size="14.00" fill="#4a4a4a">1: store(v,0)</text>
</g>
<!-- 0&#45;&gt;1 -->
<g id="edge1" class="edge">
<title>0&#45;&gt;1</title>
<path fill="none" stroke="#a2a2a2" stroke-width="1.5" d="M105.7251,-940.6941C105.4022,-935.0251 105.0989,-928.7566 104.9391,-923 104.7376,-915.7396 104.8702,-907.9 105.1436,-900.5964"/>
<polygon fill="#a2a2a2" stroke="#a2a2a2" stroke-width="1.5" points="108.6489,-900.5627 105.6223,-890.4094 101.6566,-900.234 108.6489,-900.5627"/>
</g>
<!-- 0&#45;&gt;1 -->
<g id="edge11" class="edge">
<title>0&#45;&gt;1</title>
<path fill="none" stroke="#f60000" stroke-width="3.5" d="M106.9391,-940.9735C106.9391,-929.1918 106.9391,-913.5607 106.9391,-900.1581"/>
<polygon fill="#f60000" stroke="#f60000" stroke-width="3.5" points="110.4392,-900.0033 106.9391,-890.0034 103.4392,-900.0034 110.4392,-900.0033"/>
<text text-anchor="middle" x="118.4391" y="-911.8" font-family="Times,serif" font-size="14.00" fill="#f60000">@0</text>
</g>
<!-- 2 -->
<g id="node3" class="node">
<title>2</title>
<polygon fill="#e6e6e6" stroke="#4a4a4a" points="158.4391,-788 55.4391,-788 55.4391,-752 158.4391,-752 158.4391,-788"/>
<text text-anchor="middle" x="106.9391" y="-766.3" font-family="Times,serif" font-size="14.00" fill="#4a4a4a">2: v←100+0</text>
</g>
<!-- 1&#45;&gt;2 -->
<g id="edge2" class="edge">
<title>1&#45;&gt;2</title>
<path fill="none" stroke="#a2a2a2" stroke-width="1.5" d="M105.7251,-853.6941C105.4022,-848.0251 105.0989,-841.7566 104.9391,-836 104.5692,-822.6718 104.5692,-819.3282 104.9391,-806 105.0065,-803.5714 105.0995,-801.0517 105.2087,-798.5244"/>
<polygon fill="#a2a2a2" stroke="#a2a2a2" stroke-width="1.5" points="108.7158,-798.4699 105.7251,-788.3059 101.7247,-798.1165 108.7158,-798.4699"/>
</g>
<!-- 1&#45;&gt;2 -->
<g id="edge12" class="edge">
<title>1&#45;&gt;2</title>
<path fill="none" stroke="#f60000" stroke-width="3.5" d="M106.9391,-853.7644C106.9391,-838.317 106.9391,-815.9149 106.9391,-798.164"/>
<polygon fill="#f60000" stroke="#f60000" stroke-width="3.5" points="110.4392,-798.0776 106.9391,-788.0777 103.4392,-798.0777 110.4392,-798.0776"/>
<text text-anchor="middle" x="134.9391" y="-824.8" font-family="Times,serif" font-size="14.00" fill="#f60000">@1</text>
<text text-anchor="middle" x="134.9391" y="-809.8" font-family="Times,serif" font-size="14.00" fill="#f60000">store(0)</text>
</g>
<!-- 3 -->
<g id="node4" class="node">
<title>3</title>
<polygon fill="#e6e6e6" stroke="#4a4a4a" points="157.4391,-701 56.4391,-701 56.4391,-665 157.4391,-665 157.4391,-701"/>
<text text-anchor="middle" x="106.9391" y="-679.3" font-family="Times,serif" font-size="14.00" fill="#4a4a4a">3: store(v,1)</text>
</g>
<!-- 2&#45;&gt;3 -->
<g id="edge3" class="edge">
<title>2&#45;&gt;3</title>
<path fill="none" stroke="#a2a2a2" stroke-width="1.5" d="M105.6223,-751.5906C105.0794,-741.8955 104.6392,-729.8062 104.9391,-719 105.0065,-716.5714 105.0995,-714.0517 105.2087,-711.5244"/>
<polygon fill="#a2a2a2" stroke="#a2a2a2" stroke-width="1.5" points="108.7158,-711.4699 105.7251,-701.3059 101.7247,-711.1165 108.7158,-711.4699"/>
</g>
<!-- 2&#45;&gt;3 -->
<g id="edge13" class="edge">
<title>2&#45;&gt;3</title>
<path fill="none" stroke="#f60000" stroke-width="3.5" d="M106.9391,-751.9735C106.9391,-740.1918 106.9391,-724.5607 106.9391,-711.1581"/>
<polygon fill="#f60000" stroke="#f60000" stroke-width="3.5" points="110.4392,-711.0033 106.9391,-701.0034 103.4392,-711.0034 110.4392,-711.0033"/>
<text text-anchor="middle" x="118.4391" y="-722.8" font-family="Times,serif" font-size="14.00" fill="#f60000">@2</text>
</g>
<!-- 4 -->
<g id="node5" class="node">
<title>4</title>
<polygon fill="#e6e6e6" stroke="#4a4a4a" points="163.4391,-599 50.4391,-599 50.4391,-563 163.4391,-563 163.4391,-599"/>
<text text-anchor="middle" x="106.9391" y="-577.3" font-family="Times,serif" font-size="14.00" fill="#4a4a4a">4: load(r,x∧1)</text>
</g>
<!-- 3&#45;&gt;4 -->
<g id="edge4" class="edge">
<title>3&#45;&gt;4</title>
<path fill="none" stroke="#a2a2a2" stroke-width="1.5" d="M105.7251,-664.6941C105.4022,-659.0251 105.0989,-652.7566 104.9391,-647 104.5692,-633.6718 104.5692,-630.3282 104.9391,-617 105.0065,-614.5714 105.0995,-612.0517 105.2087,-609.5244"/>
<polygon fill="#a2a2a2" stroke="#a2a2a2" stroke-width="1.5" points="108.7158,-609.4699 105.7251,-599.3059 101.7247,-609.1165 108.7158,-609.4699"/>
</g>
<!-- 3&#45;&gt;4 -->
<g id="edge14" class="edge">
<title>3&#45;&gt;4</title>
<path fill="none" stroke="#f60000" stroke-width="3.5" d="M106.9391,-664.7644C106.9391,-649.317 106.9391,-626.9149 106.9391,-609.164"/>
<polygon fill="#f60000" stroke="#f60000" stroke-width="3.5" points="110.4392,-609.0776 106.9391,-599.0777 103.4392,-609.0777 110.4392,-609.0776"/>
<text text-anchor="middle" x="134.9391" y="-635.8" font-family="Times,serif" font-size="14.00" fill="#f60000">@3</text>
<text text-anchor="middle" x="134.9391" y="-620.8" font-family="Times,serif" font-size="14.00" fill="#f60000">store(1)</text>
</g>
<!-- 5 -->
<g id="node6" class="node">
<title>5</title>
<polygon fill="#e6e6e6" stroke="#4a4a4a" points="155.9391,-497 57.9391,-497 57.9391,-461 155.9391,-461 155.9391,-497"/>
<text text-anchor="middle" x="106.9391" y="-475.3" font-family="Times,serif" font-size="14.00" fill="#4a4a4a">5: beqz(r,8)</text>
</g>
<!-- 4&#45;&gt;5 -->
<g id="edge5" class="edge">
<title>4&#45;&gt;5</title>
<path fill="none" stroke="#a2a2a2" stroke-width="1.5" d="M105.7251,-562.6941C105.4022,-557.0251 105.0989,-550.7566 104.9391,-545 104.5692,-531.6718 104.5692,-528.3282 104.9391,-515 105.0065,-512.5714 105.0995,-510.0517 105.2087,-507.5244"/>
<polygon fill="#a2a2a2" stroke="#a2a2a2" stroke-width="1.5" points="108.7158,-507.4699 105.7251,-497.3059 101.7247,-507.1165 108.7158,-507.4699"/>
</g>
<!-- 4&#45;&gt;5 -->
<g id="edge15" class="edge">
<title>4&#45;&gt;5</title>
<path fill="none" stroke="#f60000" stroke-width="3.5" d="M106.9391,-562.7644C106.9391,-547.317 106.9391,-524.9149 106.9391,-507.164"/>
<polygon fill="#f60000" stroke="#f60000" stroke-width="3.5" points="110.4392,-507.0776 106.9391,-497.0777 103.4392,-507.0777 110.4392,-507.0776"/>
<text text-anchor="middle" x="141.9391" y="-533.8" font-family="Times,serif" font-size="14.00" fill="#f60000">@4</text>
<text text-anchor="middle" x="141.9391" y="-518.8" font-family="Times,serif" font-size="14.00" fill="#f60000">load(0∧1)</text>
</g>
<!-- 6 -->
<g id="node7" class="node">
<title>6</title>
<polygon fill="#e6e6e6" stroke="#4a4a4a" points="114.4391,-380 23.4391,-380 23.4391,-344 114.4391,-344 114.4391,-380"/>
<text text-anchor="middle" x="68.9391" y="-358.3" font-family="Times,serif" font-size="14.00" fill="#4a4a4a">6: v1←256</text>
</g>
<!-- 5&#45;&gt;6 -->
<g id="edge6" class="edge">
<title>5&#45;&gt;6</title>
<path fill="none" stroke="#a2a2a2" stroke-width="1.5" d="M66.6569,-460.9663C59.9477,-456.1182 53.8939,-450.1753 49.9391,-443 40.7886,-426.3979 46.014,-405.5296 53.2803,-389.1328"/>
<polygon fill="#a2a2a2" stroke="#a2a2a2" stroke-width="1.5" points="56.4666,-390.584 57.7012,-380.0613 50.174,-387.5174 56.4666,-390.584"/>
</g>
<!-- 5&#45;&gt;6 -->
<g id="edge16" class="edge">
<title>5&#45;&gt;6</title>
<path fill="none" stroke="#f60000" stroke-width="3.5" d="M82.5333,-460.691C77.4434,-455.574 72.769,-449.5879 69.9391,-443 62.9037,-426.6215 62.5899,-406.6052 64.0663,-390.5683"/>
<polygon fill="#f60000" stroke="#f60000" stroke-width="3.5" points="67.5947,-390.5417 65.3139,-380.1953 60.6448,-389.7057 67.5947,-390.5417"/>
<text text-anchor="middle" x="96.4391" y="-431.8" font-family="Times,serif" font-size="14.00" fill="#f60000">@5</text>
<text text-anchor="middle" x="96.4391" y="-416.8" font-family="Times,serif" font-size="14.00" fill="#f60000">start(0)</text>
<text text-anchor="middle" x="96.4391" y="-401.8" font-family="Times,serif" font-size="14.00" fill="#f60000">pc(6)</text>
</g>
<!-- 5&#45;&gt;6 -->
<g id="edge21" class="edge">
<title>5&#45;&gt;6</title>
<path fill="none" stroke="#00934a" stroke-width="3" stroke-dasharray="5,2" d="M117.0312,-460.9303C125.1345,-443.8117 133.5582,-417.8418 122.9391,-398 119.1644,-390.9468 113.3297,-385.0368 106.8682,-380.1784"/>
<text text-anchor="middle" x="137.4391" y="-416.8" font-family="Times,serif" font-size="14.00" fill="#00934a"> t0</text>
</g>
<!-- 8 -->
<g id="node8" class="node">
<title>8</title>
<polygon fill="#e6e6e6" stroke="#4a4a4a" points="167.4391,-36 76.4391,-36 76.4391,0 167.4391,0 167.4391,-36"/>
<text text-anchor="middle" x="121.9391" y="-14.3" font-family="Times,serif" font-size="14.00" fill="#4a4a4a">8: v1←257</text>
</g>
<!-- 5&#45;&gt;8 -->
<g id="edge7" class="edge">
<title>5&#45;&gt;8</title>
<path fill="none" stroke="#a2a2a2" stroke-width="1.5" d="M133.872,-460.9152C140.1317,-455.7179 146.3097,-449.6386 150.9391,-443 172.7268,-411.7564 178.9391,-400.0902 178.9391,-362 178.9391,-362 178.9391,-362 178.9391,-154 178.9391,-107.7244 170.9648,-95.2232 149.9391,-54 148.2573,-50.7025 146.2559,-47.4088 144.1079,-44.2275"/>
<polygon fill="#a2a2a2" stroke="#a2a2a2" stroke-width="1.5" points="146.9251,-42.1506 138.1978,-36.1434 141.2741,-46.2818 146.9251,-42.1506"/>
</g>
<!-- 7 -->
<g id="node9" class="node">
<title>7</title>
<polygon fill="#e6e6e6" stroke="#4a4a4a" points="109.4391,-293 28.4391,-293 28.4391,-257 109.4391,-257 109.4391,-293"/>
<text text-anchor="middle" x="68.9391" y="-271.3" font-family="Times,serif" font-size="14.00" fill="#4a4a4a">7: jmp(9)</text>
</g>
<!-- 6&#45;&gt;7 -->
<g id="edge8" class="edge">
<title>6&#45;&gt;7</title>
<path fill="none" stroke="#a2a2a2" stroke-width="1.5" d="M57.0628,-343.6364C54.1468,-338.1769 51.4344,-332.0366 49.9391,-326 47.9904,-318.1326 49.481,-309.8113 52.3247,-302.2237"/>
<polygon fill="#a2a2a2" stroke="#a2a2a2" stroke-width="1.5" points="55.5234,-303.6449 56.4936,-293.0946 49.1559,-300.7371 55.5234,-303.6449"/>
</g>
<!-- 6&#45;&gt;7 -->
<g id="edge17" class="edge">
<title>6&#45;&gt;7</title>
<path fill="none" stroke="#f60000" stroke-width="3.5" d="M68.9391,-343.9735C68.9391,-332.1918 68.9391,-316.5607 68.9391,-303.1581"/>
<polygon fill="#f60000" stroke="#f60000" stroke-width="3.5" points="72.4392,-303.0033 68.9391,-293.0034 65.4392,-303.0034 72.4392,-303.0033"/>
<text text-anchor="middle" x="80.4391" y="-314.8" font-family="Times,serif" font-size="14.00" fill="#f60000">@6</text>
</g>
<!-- 6&#45;&gt;7 -->
<g id="edge22" class="edge">
<title>6&#45;&gt;7</title>
<path fill="none" stroke="#00934a" stroke-width="3" stroke-dasharray="5,2" d="M84.1569,-343.638C87.7444,-338.2742 91.0671,-332.1828 92.9391,-326 96.342,-314.7612 91.2812,-302.8527 84.9438,-293.3718"/>
<text text-anchor="middle" x="104.4391" y="-314.8" font-family="Times,serif" font-size="14.00" fill="#00934a"> t0</text>
</g>
<!-- 9 -->
<g id="node10" class="node">
<title>9</title>
<polygon fill="#e6e6e6" stroke="#4a4a4a" points="136.5003,-146.5442 136.5003,-161.4558 116.8406,-172 89.0376,-172 69.378,-161.4558 69.378,-146.5442 89.0376,-136 116.8406,-136 136.5003,-146.5442"/>
<polygon fill="none" stroke="#4a4a4a" points="140.4758,-144.1436 140.4758,-163.8564 117.8341,-176 88.0442,-176 65.4024,-163.8564 65.4024,-144.1436 88.0442,-132 117.8341,-132 140.4758,-144.1436"/>
<text text-anchor="middle" x="102.9391" y="-150.3" font-family="Times,serif" font-size="14.00" fill="#4a4a4a">9: ⊥</text>
</g>
<!-- 8&#45;&gt;9 -->
<g id="edge10" class="edge">
<title>8&#45;&gt;9</title>
<path fill="none" stroke="#a2a2a2" stroke-width="1.5" d="M119.3935,-36.2214C116.3401,-58.077 111.1672,-95.1041 107.4356,-121.8146"/>
<polygon fill="#a2a2a2" stroke="#a2a2a2" stroke-width="1.5" points="103.9515,-121.4585 106.0341,-131.8466 110.8841,-122.427 103.9515,-121.4585"/>
</g>
<!-- 8&#45;&gt;9 -->
<g id="edge20" class="edge">
<title>8&#45;&gt;9</title>
<path fill="none" stroke="#f60000" stroke-width="3.5" d="M122.5191,-36.2355C122.7835,-55.6877 122.1931,-87.3087 116.9391,-114 116.4112,-116.6823 115.7415,-119.4286 114.9824,-122.1639"/>
<polygon fill="#f60000" stroke="#f60000" stroke-width="3.5" points="111.586,-121.2979 111.9352,-131.887 118.2657,-123.3913 111.586,-121.2979"/>
<text text-anchor="middle" x="134.4391" y="-80.3" font-family="Times,serif" font-size="14.00" fill="#f60000">@9</text>
</g>
<!-- 7&#45;&gt;9 -->
<g id="edge9" class="edge">
<title>7&#45;&gt;9</title>
<path fill="none" stroke="#a2a2a2" stroke-width="1.5" d="M28.3751,-259.0704C20.216,-253.9252 12.6952,-247.3295 7.9391,-239 -1.978,-221.6319 -3.1238,-210.6617 7.9391,-194 18.6298,-177.8989 37.2082,-168.264 55.1163,-162.5051"/>
<polygon fill="#a2a2a2" stroke="#a2a2a2" stroke-width="1.5" points="56.2939,-165.8085 64.942,-159.6879 54.3646,-159.0796 56.2939,-165.8085"/>
</g>
<!-- 7&#45;&gt;9 -->
<g id="edge18" class="edge">
<title>7&#45;&gt;9</title>
<path fill="none" stroke="#f60000" stroke-width="3.5" d="M41.4581,-256.752C35.983,-251.7022 30.9864,-245.7309 27.9391,-239 19.6905,-220.7802 17.6492,-211.1499 27.9391,-194 34.589,-182.9169 45.4677,-174.7354 56.9032,-168.7673"/>
<polygon fill="#f60000" stroke="#f60000" stroke-width="3.5" points="58.5563,-171.8579 66.1234,-164.4425 55.5836,-165.5205 58.5563,-171.8579"/>
<text text-anchor="middle" x="54.4391" y="-227.8" font-family="Times,serif" font-size="14.00" fill="#f60000">@7</text>
<text text-anchor="middle" x="54.4391" y="-212.8" font-family="Times,serif" font-size="14.00" fill="#f60000">start(1)</text>
<text text-anchor="middle" x="54.4391" y="-197.8" font-family="Times,serif" font-size="14.00" fill="#f60000">pc(9)</text>
</g>
<!-- 7&#45;&gt;9 -->
<g id="edge23" class="edge">
<title>7&#45;&gt;9</title>
<path fill="none" stroke="#00934a" stroke-width="3" stroke-dasharray="5,2" d="M75.2876,-256.7625C77.1873,-251.0964 79.2204,-244.8122 80.9391,-239 87.2066,-217.8046 93.4322,-193.3502 97.6526,-176.1285"/>
<text text-anchor="middle" x="102.4391" y="-212.8" font-family="Times,serif" font-size="14.00" fill="#00934a"> t0</text>
</g>
<!-- 7&#45;&gt;9 -->
<g id="edge24" class="edge">
<title>7&#45;&gt;9</title>
<path fill="none" stroke="#4363d8" stroke-width="3" stroke-dasharray="5,2" d="M101.3227,-256.6265C107.2245,-251.7054 112.5722,-245.8201 115.9391,-239 125.7197,-219.1885 119.8465,-193.8746 113.1503,-176.0421"/>
<text text-anchor="middle" x="131.4391" y="-212.8" font-family="Times,serif" font-size="14.00" fill="#4363d8"> t1</text>
</g>
<!-- 9&#45;&gt;8 -->
<g id="edge19" class="edge">
<title>9&#45;&gt;8</title>
<path fill="none" stroke="#f60000" stroke-width="3.5" d="M65.6461,-143.6755C50.9175,-137.5705 35.4931,-128.1685 26.9391,-114 13.1567,-91.1712 11.7878,-75.9442 26.9391,-54 32.1181,-46.4992 48.6012,-39.1868 66.4162,-33.1334"/>
<polygon fill="#f60000" stroke="#f60000" stroke-width="3.5" points="67.9505,-36.3157 76.3871,-29.9067 65.7952,-29.6557 67.9505,-36.3157"/>
<text text-anchor="middle" x="65.9391" y="-102.8" font-family="Times,serif" font-size="14.00" fill="#f60000">@8</text>
<text text-anchor="middle" x="65.9391" y="-87.8" font-family="Times,serif" font-size="14.00" fill="#f60000">commit(1)</text>
<text text-anchor="middle" x="65.9391" y="-72.8" font-family="Times,serif" font-size="14.00" fill="#f60000">rollback(0)</text>
<text text-anchor="middle" x="65.9391" y="-57.8" font-family="Times,serif" font-size="14.00" fill="#f60000">pc(8)</text>
</g>
</g>
</svg>
