<?xml version="1.0" encoding="UTF-8" standalone="no"?>
<!DOCTYPE svg PUBLIC "-//W3C//DTD SVG 1.1//EN"
 "http://www.w3.org/Graphics/SVG/1.1/DTD/svg11.dtd">
<!-- Generated by graphviz version 2.40.1 (20161225.0304)
 -->
<!-- Title: %3 Pages: 1 -->
<svg width="523pt" height="1152pt"
 viewBox="0.00 0.00 523.00 1152.00" xmlns="http://www.w3.org/2000/svg" xmlns:xlink="http://www.w3.org/1999/xlink">
<g id="graph0" class="graph" transform="scale(1 1) rotate(0) translate(4 1148)">
<title>%3</title>
<polygon fill="#ffffff" stroke="transparent" points="-4,4 -4,-1148 519,-1148 519,4 -4,4"/>
<!-- 0 -->
<g id="node1" class="node">
<title>0</title>
<polygon fill="#e6e6e6" stroke="#4a4a4a" points="129.5,-1069 44.5,-1069 44.5,-1033 129.5,-1033 129.5,-1069"/>
<text text-anchor="middle" x="87" y="-1047.3" font-family="Times,serif" font-size="14.00" fill="#4a4a4a">0: v←0+0</text>
</g>
<!-- 1 -->
<g id="node2" class="node">
<title>1</title>
<polygon fill="#e6e6e6" stroke="#4a4a4a" points="137.5,-967 36.5,-967 36.5,-931 137.5,-931 137.5,-967"/>
<text text-anchor="middle" x="87" y="-945.3" font-family="Times,serif" font-size="14.00" fill="#4a4a4a">1: store(v,0)</text>
</g>
<!-- 0&#45;&gt;1 -->
<g id="edge1" class="edge">
<title>0&#45;&gt;1</title>
<path fill="none" stroke="#a2a2a2" stroke-width="1.5" d="M85.786,-1032.6941C85.463,-1027.0251 85.1598,-1020.7566 85,-1015 84.6301,-1001.6718 84.6301,-998.3282 85,-985 85.0674,-982.5714 85.1603,-980.0517 85.2695,-977.5244"/>
<polygon fill="#a2a2a2" stroke="#a2a2a2" stroke-width="1.5" points="88.7767,-977.4699 85.786,-967.3059 81.7856,-977.1165 88.7767,-977.4699"/>
</g>
<!-- 0&#45;&gt;1 -->
<g id="edge11" class="edge">
<title>0&#45;&gt;1</title>
<path fill="none" stroke="#f60000" stroke-width="3.5" d="M87,-1032.7644C87,-1017.317 87,-994.9149 87,-977.164"/>
<polygon fill="#f60000" stroke="#f60000" stroke-width="3.5" points="90.5001,-977.0776 87,-967.0777 83.5001,-977.0777 90.5001,-977.0776"/>
<text text-anchor="middle" x="121" y="-1003.8" font-family="Times,serif" font-size="14.00" fill="#f60000">@0</text>
<text text-anchor="middle" x="121" y="-988.8" font-family="Times,serif" font-size="14.00" fill="#f60000"># A=0+0</text>
</g>
<!-- 2 -->
<g id="node3" class="node">
<title>2</title>
<polygon fill="#e6e6e6" stroke="#4a4a4a" points="138.5,-850 35.5,-850 35.5,-814 138.5,-814 138.5,-850"/>
<text text-anchor="middle" x="87" y="-828.3" font-family="Times,serif" font-size="14.00" fill="#4a4a4a">2: v←100+0</text>
</g>
<!-- 1&#45;&gt;2 -->
<g id="edge2" class="edge">
<title>1&#45;&gt;2</title>
<path fill="none" stroke="#a2a2a2" stroke-width="1.5" d="M85.786,-930.6941C85.463,-925.0251 85.1598,-918.7566 85,-913 84.4451,-893.0077 84.4451,-887.9923 85,-868 85.0674,-865.5714 85.1603,-863.0517 85.2695,-860.5244"/>
<polygon fill="#a2a2a2" stroke="#a2a2a2" stroke-width="1.5" points="88.7767,-860.4699 85.786,-850.3059 81.7856,-860.1165 88.7767,-860.4699"/>
</g>
<!-- 1&#45;&gt;2 -->
<g id="edge12" class="edge">
<title>1&#45;&gt;2</title>
<path fill="none" stroke="#f60000" stroke-width="3.5" d="M87,-930.9752C87,-912.1356 87,-882.3112 87,-860.3213"/>
<polygon fill="#f60000" stroke="#f60000" stroke-width="3.5" points="90.5001,-860.2381 87,-850.2381 83.5001,-860.2381 90.5001,-860.2381"/>
<text text-anchor="middle" x="136.5" y="-901.8" font-family="Times,serif" font-size="14.00" fill="#f60000">@1</text>
<text text-anchor="middle" x="136.5" y="-886.8" font-family="Times,serif" font-size="14.00" fill="#f60000"># update(0,A)</text>
<text text-anchor="middle" x="136.5" y="-871.8" font-family="Times,serif" font-size="14.00" fill="#f60000">store(0)</text>
</g>
<!-- 3 -->
<g id="node4" class="node">
<title>3</title>
<polygon fill="#e6e6e6" stroke="#4a4a4a" points="137.5,-748 36.5,-748 36.5,-712 137.5,-712 137.5,-748"/>
<text text-anchor="middle" x="87" y="-726.3" font-family="Times,serif" font-size="14.00" fill="#4a4a4a">3: store(v,1)</text>
</g>
<!-- 2&#45;&gt;3 -->
<g id="edge3" class="edge">
<title>2&#45;&gt;3</title>
<path fill="none" stroke="#a2a2a2" stroke-width="1.5" d="M85.786,-813.6941C85.463,-808.0251 85.1598,-801.7566 85,-796 84.6301,-782.6718 84.6301,-779.3282 85,-766 85.0674,-763.5714 85.1603,-761.0517 85.2695,-758.5244"/>
<polygon fill="#a2a2a2" stroke="#a2a2a2" stroke-width="1.5" points="88.7767,-758.4699 85.786,-748.3059 81.7856,-758.1165 88.7767,-758.4699"/>
</g>
<!-- 2&#45;&gt;3 -->
<g id="edge13" class="edge">
<title>2&#45;&gt;3</title>
<path fill="none" stroke="#f60000" stroke-width="3.5" d="M87,-813.7644C87,-798.317 87,-775.9149 87,-758.164"/>
<polygon fill="#f60000" stroke="#f60000" stroke-width="3.5" points="90.5001,-758.0776 87,-748.0777 83.5001,-758.0777 90.5001,-758.0776"/>
<text text-anchor="middle" x="130.5" y="-784.8" font-family="Times,serif" font-size="14.00" fill="#f60000">@2</text>
<text text-anchor="middle" x="130.5" y="-769.8" font-family="Times,serif" font-size="14.00" fill="#f60000"># B=100+0</text>
</g>
<!-- 4 -->
<g id="node5" class="node">
<title>4</title>
<polygon fill="#e6e6e6" stroke="#4a4a4a" points="143.5,-631 30.5,-631 30.5,-595 143.5,-595 143.5,-631"/>
<text text-anchor="middle" x="87" y="-609.3" font-family="Times,serif" font-size="14.00" fill="#4a4a4a">4: load(r,x∧1)</text>
</g>
<!-- 3&#45;&gt;4 -->
<g id="edge4" class="edge">
<title>3&#45;&gt;4</title>
<path fill="none" stroke="#a2a2a2" stroke-width="1.5" d="M85.786,-711.6941C85.463,-706.0251 85.1598,-699.7566 85,-694 84.4451,-674.0077 84.4451,-668.9923 85,-649 85.0674,-646.5714 85.1603,-644.0517 85.2695,-641.5244"/>
<polygon fill="#a2a2a2" stroke="#a2a2a2" stroke-width="1.5" points="88.7767,-641.4699 85.786,-631.3059 81.7856,-641.1165 88.7767,-641.4699"/>
</g>
<!-- 3&#45;&gt;4 -->
<g id="edge14" class="edge">
<title>3&#45;&gt;4</title>
<path fill="none" stroke="#f60000" stroke-width="3.5" d="M87,-711.9752C87,-693.1356 87,-663.3112 87,-641.3213"/>
<polygon fill="#f60000" stroke="#f60000" stroke-width="3.5" points="90.5001,-641.2381 87,-631.2381 83.5001,-641.2381 90.5001,-641.2381"/>
<text text-anchor="middle" x="137" y="-682.8" font-family="Times,serif" font-size="14.00" fill="#f60000">@3</text>
<text text-anchor="middle" x="137" y="-667.8" font-family="Times,serif" font-size="14.00" fill="#f60000"># update(1,B)</text>
<text text-anchor="middle" x="137" y="-652.8" font-family="Times,serif" font-size="14.00" fill="#f60000">store(1)</text>
</g>
<!-- 5 -->
<g id="node6" class="node">
<title>5</title>
<polygon fill="#e6e6e6" stroke="#4a4a4a" points="136,-514 38,-514 38,-478 136,-478 136,-514"/>
<text text-anchor="middle" x="87" y="-492.3" font-family="Times,serif" font-size="14.00" fill="#4a4a4a">5: beqz(r,8)</text>
</g>
<!-- 4&#45;&gt;5 -->
<g id="edge5" class="edge">
<title>4&#45;&gt;5</title>
<path fill="none" stroke="#a2a2a2" stroke-width="1.5" d="M85.786,-594.6941C85.463,-589.0251 85.1598,-582.7566 85,-577 84.4451,-557.0077 84.4451,-551.9923 85,-532 85.0674,-529.5714 85.1603,-527.0517 85.2695,-524.5244"/>
<polygon fill="#a2a2a2" stroke="#a2a2a2" stroke-width="1.5" points="88.7767,-524.4699 85.786,-514.3059 81.7856,-524.1165 88.7767,-524.4699"/>
</g>
<!-- 4&#45;&gt;5 -->
<g id="edge15" class="edge">
<title>4&#45;&gt;5</title>
<path fill="none" stroke="#f60000" stroke-width="3.5" d="M87,-594.9752C87,-576.1356 87,-546.3112 87,-524.3213"/>
<polygon fill="#f60000" stroke="#f60000" stroke-width="3.5" points="90.5001,-524.2381 87,-514.2381 83.5001,-524.2381 90.5001,-524.2381"/>
<text text-anchor="middle" x="150.5" y="-565.8" font-family="Times,serif" font-size="14.00" fill="#f60000">@4</text>
<text text-anchor="middle" x="150.5" y="-550.8" font-family="Times,serif" font-size="14.00" fill="#f60000">load(0∧1)</text>
<text text-anchor="middle" x="150.5" y="-535.8" font-family="Times,serif" font-size="14.00" fill="#f60000"># element(0∧1,C)</text>
</g>
<!-- 6 -->
<g id="node7" class="node">
<title>6</title>
<polygon fill="#e6e6e6" stroke="#4a4a4a" points="157.5,-382 66.5,-382 66.5,-346 157.5,-346 157.5,-382"/>
<text text-anchor="middle" x="112" y="-360.3" font-family="Times,serif" font-size="14.00" fill="#4a4a4a">6: v1←256</text>
</g>
<!-- 5&#45;&gt;6 -->
<g id="edge6" class="edge">
<title>5&#45;&gt;6</title>
<path fill="none" stroke="#a2a2a2" stroke-width="1.5" d="M83.0611,-477.7651C79.6069,-458.0402 76.3546,-425.9363 85,-400 86.0623,-396.813 87.5295,-393.681 89.2357,-390.6753"/>
<polygon fill="#a2a2a2" stroke="#a2a2a2" stroke-width="1.5" points="92.3046,-392.3799 94.9047,-382.1091 86.4671,-388.5167 92.3046,-392.3799"/>
</g>
<!-- 5&#45;&gt;6 -->
<g id="edge16" class="edge">
<title>5&#45;&gt;6</title>
<path fill="none" stroke="#f60000" stroke-width="3.5" d="M90.3479,-477.9458C93.9356,-458.6452 99.8153,-427.1495 105,-400 105.4807,-397.4828 105.9833,-394.8671 106.489,-392.2463"/>
<polygon fill="#f60000" stroke="#f60000" stroke-width="3.5" points="109.9482,-392.7929 108.4152,-382.3095 103.0761,-391.4607 109.9482,-392.7929"/>
<text text-anchor="middle" x="151.5" y="-448.8" font-family="Times,serif" font-size="14.00" fill="#f60000">@5</text>
<text text-anchor="middle" x="151.5" y="-433.8" font-family="Times,serif" font-size="14.00" fill="#f60000"># cond(C=0)</text>
<text text-anchor="middle" x="151.5" y="-418.8" font-family="Times,serif" font-size="14.00" fill="#f60000">start(0)</text>
<text text-anchor="middle" x="151.5" y="-403.8" font-family="Times,serif" font-size="14.00" fill="#f60000">pc(6)</text>
</g>
<!-- 5&#45;&gt;6 -->
<g id="edge21" class="edge">
<title>5&#45;&gt;6</title>
<path fill="none" stroke="#00934a" stroke-width="3" stroke-dasharray="5,2" d="M136.1767,-486.0146C162.1913,-479.628 190.3165,-470.5694 198,-460 213.6801,-438.4304 212.7737,-422.2002 198,-400 188.7638,-386.1209 173.0381,-377.5824 157.5401,-372.3338"/>
<text text-anchor="middle" x="216.5" y="-426.3" font-family="Times,serif" font-size="14.00" fill="#00934a">t0</text>
</g>
<!-- 8 -->
<g id="node8" class="node">
<title>8</title>
<polygon fill="#e6e6e6" stroke="#4a4a4a" points="116.5,-37 25.5,-37 25.5,-1 116.5,-1 116.5,-37"/>
<text text-anchor="middle" x="71" y="-15.3" font-family="Times,serif" font-size="14.00" fill="#4a4a4a">8: v1←257</text>
</g>
<!-- 5&#45;&gt;8 -->
<g id="edge7" class="edge">
<title>5&#45;&gt;8</title>
<path fill="none" stroke="#a2a2a2" stroke-width="1.5" d="M75.6353,-477.989C61.1602,-453.2798 38,-407.0226 38,-364 38,-364 38,-364 38,-156 38,-110.9903 40.9279,-99.0697 54,-56 54.965,-52.8207 56.1486,-49.5616 57.4381,-46.3593"/>
<polygon fill="#a2a2a2" stroke="#a2a2a2" stroke-width="1.5" points="60.7056,-47.6229 61.5114,-37.0588 54.2936,-44.8146 60.7056,-47.6229"/>
</g>
<!-- 7 -->
<g id="node9" class="node">
<title>7</title>
<polygon fill="#e6e6e6" stroke="#4a4a4a" points="152.5,-295 71.5,-295 71.5,-259 152.5,-259 152.5,-295"/>
<text text-anchor="middle" x="112" y="-273.3" font-family="Times,serif" font-size="14.00" fill="#4a4a4a">7: jmp(9)</text>
</g>
<!-- 6&#45;&gt;7 -->
<g id="edge8" class="edge">
<title>6&#45;&gt;7</title>
<path fill="none" stroke="#a2a2a2" stroke-width="1.5" d="M100.1237,-345.6364C97.2076,-340.1769 94.4953,-334.0366 93,-328 91.0513,-320.1326 92.5418,-311.8113 95.3856,-304.2237"/>
<polygon fill="#a2a2a2" stroke="#a2a2a2" stroke-width="1.5" points="98.5843,-305.6449 99.5544,-295.0946 92.2167,-302.7371 98.5843,-305.6449"/>
</g>
<!-- 6&#45;&gt;7 -->
<g id="edge17" class="edge">
<title>6&#45;&gt;7</title>
<path fill="none" stroke="#f60000" stroke-width="3.5" d="M112,-345.9735C112,-334.1918 112,-318.5607 112,-305.1581"/>
<polygon fill="#f60000" stroke="#f60000" stroke-width="3.5" points="115.5001,-305.0033 112,-295.0034 108.5001,-305.0034 115.5001,-305.0033"/>
<text text-anchor="middle" x="123.5" y="-316.8" font-family="Times,serif" font-size="14.00" fill="#f60000">@6</text>
</g>
<!-- 6&#45;&gt;7 -->
<g id="edge22" class="edge">
<title>6&#45;&gt;7</title>
<path fill="none" stroke="#00934a" stroke-width="3" stroke-dasharray="5,2" d="M127.2178,-345.638C130.8053,-340.2742 134.128,-334.1828 136,-328 139.4028,-316.7612 134.3421,-304.8527 128.0047,-295.3718"/>
<text text-anchor="middle" x="145.5" y="-316.8" font-family="Times,serif" font-size="14.00" fill="#00934a">t0</text>
</g>
<!-- 9 -->
<g id="node10" class="node">
<title>9</title>
<polygon fill="#e6e6e6" stroke="#4a4a4a" points="205.5612,-148.5442 205.5612,-163.4558 185.9015,-174 158.0985,-174 138.4388,-163.4558 138.4388,-148.5442 158.0985,-138 185.9015,-138 205.5612,-148.5442"/>
<polygon fill="none" stroke="#4a4a4a" points="209.5367,-146.1436 209.5367,-165.8564 186.8949,-178 157.1051,-178 134.4633,-165.8564 134.4633,-146.1436 157.1051,-134 186.8949,-134 209.5367,-146.1436"/>
<text text-anchor="middle" x="172" y="-152.3" font-family="Times,serif" font-size="14.00" fill="#4a4a4a">9: ⊥</text>
</g>
<!-- 8&#45;&gt;9 -->
<g id="edge10" class="edge">
<title>8&#45;&gt;9</title>
<path fill="none" stroke="#a2a2a2" stroke-width="1.5" d="M116.7044,-36.3241C131.3879,-42.7299 145.128,-49.9091 150,-56 165.1982,-75.0007 170.4336,-102.2702 172.015,-123.5347"/>
<polygon fill="#a2a2a2" stroke="#a2a2a2" stroke-width="1.5" points="168.53,-123.9205 172.5341,-133.7296 175.521,-123.5645 168.53,-123.9205"/>
</g>
<!-- 8&#45;&gt;9 -->
<g id="edge20" class="edge">
<title>8&#45;&gt;9</title>
<path fill="none" stroke="#f60000" stroke-width="3.5" d="M116.7681,-34.7932C143.8459,-44.2429 173.0674,-54.6741 174,-56 187.7359,-75.5295 186.1395,-102.9287 181.7184,-124.1098"/>
<polygon fill="#f60000" stroke="#f60000" stroke-width="3.5" points="178.2877,-123.4078 179.3759,-133.9466 185.0973,-125.0294 178.2877,-123.4078"/>
<text text-anchor="middle" x="195.5" y="-82.3" font-family="Times,serif" font-size="14.00" fill="#f60000">@9</text>
</g>
<!-- 7&#45;&gt;9 -->
<g id="edge9" class="edge">
<title>7&#45;&gt;9</title>
<path fill="none" stroke="#a2a2a2" stroke-width="1.5" d="M94.9047,-258.8909C90.8689,-253.5282 87.1247,-247.374 85,-241 78.6754,-222.0263 74.2086,-212.8388 85,-196 94.0623,-181.8591 109.5221,-172.6497 124.9182,-166.6817"/>
<polygon fill="#a2a2a2" stroke="#a2a2a2" stroke-width="1.5" points="126.1438,-169.9612 134.4385,-163.3696 123.8437,-163.3498 126.1438,-169.9612"/>
</g>
<!-- 7&#45;&gt;9 -->
<g id="edge18" class="edge">
<title>7&#45;&gt;9</title>
<path fill="none" stroke="#f60000" stroke-width="3.5" d="M104.761,-258.6746C99.1717,-241.3709 94.0604,-215.272 105,-196 110.5299,-186.2582 119.4774,-178.6365 129.0579,-172.7816"/>
<polygon fill="#f60000" stroke="#f60000" stroke-width="3.5" points="130.8771,-175.7756 137.9544,-167.8912 127.5051,-169.6412 130.8771,-175.7756"/>
<text text-anchor="middle" x="131.5" y="-229.8" font-family="Times,serif" font-size="14.00" fill="#f60000">@7</text>
<text text-anchor="middle" x="131.5" y="-214.8" font-family="Times,serif" font-size="14.00" fill="#f60000">start(1)</text>
<text text-anchor="middle" x="131.5" y="-199.8" font-family="Times,serif" font-size="14.00" fill="#f60000">pc(9)</text>
</g>
<!-- 7&#45;&gt;9 -->
<g id="edge23" class="edge">
<title>7&#45;&gt;9</title>
<path fill="none" stroke="#00934a" stroke-width="3" stroke-dasharray="5,2" d="M141.942,-258.859C148.1215,-253.8049 153.9672,-247.8047 158,-241 169.3613,-221.8296 172.2399,-196.1801 172.6616,-178.0878"/>
<text text-anchor="middle" x="178.5" y="-214.8" font-family="Times,serif" font-size="14.00" fill="#00934a">t0</text>
</g>
<!-- 7&#45;&gt;9 -->
<g id="edge24" class="edge">
<title>7&#45;&gt;9</title>
<path fill="none" stroke="#4363d8" stroke-width="3" stroke-dasharray="5,2" d="M152.5893,-267.9688C166.9216,-262.6176 181.5599,-254.1911 190,-241 202.1132,-222.0681 194.0282,-196.3795 185.1535,-178.2128"/>
<text text-anchor="middle" x="203.5" y="-214.8" font-family="Times,serif" font-size="14.00" fill="#4363d8">t1</text>
</g>
<!-- 9&#45;&gt;8 -->
<g id="edge19" class="edge">
<title>9&#45;&gt;8</title>
<path fill="none" stroke="#f60000" stroke-width="3.5" d="M134.2271,-146.3233C107.8059,-138.7024 75.8854,-127.4813 68,-116 54.2915,-96.0399 56.9204,-67.9195 61.8636,-47.0919"/>
<polygon fill="#f60000" stroke="#f60000" stroke-width="3.5" points="65.2974,-47.7993 64.4996,-37.2346 58.535,-45.9909 65.2974,-47.7993"/>
<text text-anchor="middle" x="107" y="-104.8" font-family="Times,serif" font-size="14.00" fill="#f60000">@8</text>
<text text-anchor="middle" x="107" y="-89.8" font-family="Times,serif" font-size="14.00" fill="#f60000">commit(1)</text>
<text text-anchor="middle" x="107" y="-74.8" font-family="Times,serif" font-size="14.00" fill="#f60000">rollback(0)</text>
<text text-anchor="middle" x="107" y="-59.8" font-family="Times,serif" font-size="14.00" fill="#f60000">pc(8)</text>
</g>
<!-- conf_9 -->
<g id="node12" class="node">
<title>conf_9</title>
<polygon fill="none" stroke="#4a4a4a" points="509,-38 135,-38 135,0 515,0 515,-32 509,-38"/>
<polyline fill="none" stroke="#4a4a4a" points="509,-38 509,-32 "/>
<polyline fill="none" stroke="#4a4a4a" points="515,-32 509,-32 "/>
<text text-anchor="middle" x="325" y="-22.8" font-family="Times,serif" font-size="14.00" fill="#4a4a4a">mem: {&#39;0&#39;: &#39;A&#39;, &#39;1&#39;: &#39;B&#39;}</text>
<text text-anchor="middle" x="325" y="-7.8" font-family="Times,serif" font-size="14.00" fill="#4a4a4a">reg: {&#39;pc&#39;: &#39;9&#39;, &#39;x&#39;: &#39;0&#39;, &#39;v&#39;: &#39;B&#39;, &#39;r&#39;: &#39;C&#39;, &#39;v1&#39;: &#39;0x101&#39;}</text>
</g>
<!-- 9&#45;&gt;conf_9 -->
<g id="edge26" class="edge">
<title>9&#45;&gt;conf_9</title>
<path fill="none" stroke="#c0c0c0" stroke-width="2" stroke-dasharray="1,5" d="M192.9532,-137.238C221.9251,-111.2958 273.9583,-64.704 303.3135,-38.4186"/>
</g>
<!-- conf_0 -->
<g id="node11" class="node">
<title>conf_0</title>
<polygon fill="none" stroke="#4a4a4a" points="168,-1144 0,-1144 0,-1106 174,-1106 174,-1138 168,-1144"/>
<polyline fill="none" stroke="#4a4a4a" points="168,-1144 168,-1138 "/>
<polyline fill="none" stroke="#4a4a4a" points="174,-1138 168,-1138 "/>
<text text-anchor="middle" x="87" y="-1128.8" font-family="Times,serif" font-size="14.00" fill="#4a4a4a">mem: {}</text>
<text text-anchor="middle" x="87" y="-1113.8" font-family="Times,serif" font-size="14.00" fill="#4a4a4a">reg: {&#39;pc&#39;: &#39;0&#39;, &#39;x&#39;: &#39;0&#39;}</text>
</g>
<!-- conf_0&#45;&gt;0 -->
<g id="edge25" class="edge">
<title>conf_0&#45;&gt;0</title>
<path fill="none" stroke="#c0c0c0" stroke-width="2" stroke-dasharray="1,5" d="M87,-1105.9432C87,-1094.6377 87,-1080.3833 87,-1069.2269"/>
</g>
</g>
</svg>
