<?xml version="1.0" encoding="UTF-8" standalone="no"?>
<!DOCTYPE svg PUBLIC "-//W3C//DTD SVG 1.1//EN"
 "http://www.w3.org/Graphics/SVG/1.1/DTD/svg11.dtd">
<!-- Generated by graphviz version 2.40.1 (20161225.0304)
 -->
<!-- Title: %3 Pages: 1 -->
<svg width="239pt" height="1075pt"
 viewBox="0.00 0.00 238.50 1075.00" xmlns="http://www.w3.org/2000/svg" xmlns:xlink="http://www.w3.org/1999/xlink">
<g id="graph0" class="graph" transform="scale(1 1) rotate(0) translate(4 1071)">
<title>%3</title>
<polygon fill="#ffffff" stroke="transparent" points="-4,4 -4,-1071 234.5,-1071 234.5,4 -4,4"/>
<!-- 0 -->
<g id="node1" class="node">
<title>0</title>
<polygon fill="#e6e6e6" stroke="#4a4a4a" points="146,-1067 61,-1067 61,-1031 146,-1031 146,-1067"/>
<text text-anchor="middle" x="103.5" y="-1045.3" font-family="Times,serif" font-size="14.00" fill="#4a4a4a">0: v←0+0</text>
</g>
<!-- 1 -->
<g id="node2" class="node">
<title>1</title>
<polygon fill="#e6e6e6" stroke="#4a4a4a" points="154,-965 53,-965 53,-929 154,-929 154,-965"/>
<text text-anchor="middle" x="103.5" y="-943.3" font-family="Times,serif" font-size="14.00" fill="#4a4a4a">1: store(v,0)</text>
</g>
<!-- 0&#45;&gt;1 -->
<g id="edge1" class="edge">
<title>0&#45;&gt;1</title>
<path fill="none" stroke="#a2a2a2" stroke-width="1.5" d="M102.286,-1030.6941C101.963,-1025.0251 101.6598,-1018.7566 101.5,-1013 101.1301,-999.6718 101.1301,-996.3282 101.5,-983 101.5674,-980.5714 101.6603,-978.0517 101.7695,-975.5244"/>
<polygon fill="#a2a2a2" stroke="#a2a2a2" stroke-width="1.5" points="105.2767,-975.4699 102.286,-965.3059 98.2856,-975.1165 105.2767,-975.4699"/>
</g>
<!-- 0&#45;&gt;1 -->
<g id="edge11" class="edge">
<title>0&#45;&gt;1</title>
<path fill="none" stroke="#f60000" stroke-width="3.5" d="M103.5,-1030.7644C103.5,-1015.317 103.5,-992.9149 103.5,-975.164"/>
<polygon fill="#f60000" stroke="#f60000" stroke-width="3.5" points="107.0001,-975.0776 103.5,-965.0777 100.0001,-975.0777 107.0001,-975.0776"/>
<text text-anchor="middle" x="137.5" y="-1001.8" font-family="Times,serif" font-size="14.00" fill="#f60000">@0</text>
<text text-anchor="middle" x="137.5" y="-986.8" font-family="Times,serif" font-size="14.00" fill="#f60000"># A=0+0</text>
</g>
<!-- 2 -->
<g id="node3" class="node">
<title>2</title>
<polygon fill="#e6e6e6" stroke="#4a4a4a" points="155,-848 52,-848 52,-812 155,-812 155,-848"/>
<text text-anchor="middle" x="103.5" y="-826.3" font-family="Times,serif" font-size="14.00" fill="#4a4a4a">2: v←100+0</text>
</g>
<!-- 1&#45;&gt;2 -->
<g id="edge2" class="edge">
<title>1&#45;&gt;2</title>
<path fill="none" stroke="#a2a2a2" stroke-width="1.5" d="M102.286,-928.6941C101.963,-923.0251 101.6598,-916.7566 101.5,-911 100.9451,-891.0077 100.9451,-885.9923 101.5,-866 101.5674,-863.5714 101.6603,-861.0517 101.7695,-858.5244"/>
<polygon fill="#a2a2a2" stroke="#a2a2a2" stroke-width="1.5" points="105.2767,-858.4699 102.286,-848.3059 98.2856,-858.1165 105.2767,-858.4699"/>
</g>
<!-- 1&#45;&gt;2 -->
<g id="edge12" class="edge">
<title>1&#45;&gt;2</title>
<path fill="none" stroke="#f60000" stroke-width="3.5" d="M103.5,-928.9752C103.5,-910.1356 103.5,-880.3112 103.5,-858.3213"/>
<polygon fill="#f60000" stroke="#f60000" stroke-width="3.5" points="107.0001,-858.2381 103.5,-848.2381 100.0001,-858.2381 107.0001,-858.2381"/>
<text text-anchor="middle" x="153" y="-899.8" font-family="Times,serif" font-size="14.00" fill="#f60000">@1</text>
<text text-anchor="middle" x="153" y="-884.8" font-family="Times,serif" font-size="14.00" fill="#f60000"># update(0,A)</text>
<text text-anchor="middle" x="153" y="-869.8" font-family="Times,serif" font-size="14.00" fill="#f60000">store(0)</text>
</g>
<!-- 3 -->
<g id="node4" class="node">
<title>3</title>
<polygon fill="#e6e6e6" stroke="#4a4a4a" points="154,-746 53,-746 53,-710 154,-710 154,-746"/>
<text text-anchor="middle" x="103.5" y="-724.3" font-family="Times,serif" font-size="14.00" fill="#4a4a4a">3: store(v,1)</text>
</g>
<!-- 2&#45;&gt;3 -->
<g id="edge3" class="edge">
<title>2&#45;&gt;3</title>
<path fill="none" stroke="#a2a2a2" stroke-width="1.5" d="M102.286,-811.6941C101.963,-806.0251 101.6598,-799.7566 101.5,-794 101.1301,-780.6718 101.1301,-777.3282 101.5,-764 101.5674,-761.5714 101.6603,-759.0517 101.7695,-756.5244"/>
<polygon fill="#a2a2a2" stroke="#a2a2a2" stroke-width="1.5" points="105.2767,-756.4699 102.286,-746.3059 98.2856,-756.1165 105.2767,-756.4699"/>
</g>
<!-- 2&#45;&gt;3 -->
<g id="edge13" class="edge">
<title>2&#45;&gt;3</title>
<path fill="none" stroke="#f60000" stroke-width="3.5" d="M103.5,-811.7644C103.5,-796.317 103.5,-773.9149 103.5,-756.164"/>
<polygon fill="#f60000" stroke="#f60000" stroke-width="3.5" points="107.0001,-756.0776 103.5,-746.0777 100.0001,-756.0777 107.0001,-756.0776"/>
<text text-anchor="middle" x="147" y="-782.8" font-family="Times,serif" font-size="14.00" fill="#f60000">@2</text>
<text text-anchor="middle" x="147" y="-767.8" font-family="Times,serif" font-size="14.00" fill="#f60000"># B=100+0</text>
</g>
<!-- 4 -->
<g id="node5" class="node">
<title>4</title>
<polygon fill="#e6e6e6" stroke="#4a4a4a" points="160,-629 47,-629 47,-593 160,-593 160,-629"/>
<text text-anchor="middle" x="103.5" y="-607.3" font-family="Times,serif" font-size="14.00" fill="#4a4a4a">4: load(r,x∧1)</text>
</g>
<!-- 3&#45;&gt;4 -->
<g id="edge4" class="edge">
<title>3&#45;&gt;4</title>
<path fill="none" stroke="#a2a2a2" stroke-width="1.5" d="M102.286,-709.6941C101.963,-704.0251 101.6598,-697.7566 101.5,-692 100.9451,-672.0077 100.9451,-666.9923 101.5,-647 101.5674,-644.5714 101.6603,-642.0517 101.7695,-639.5244"/>
<polygon fill="#a2a2a2" stroke="#a2a2a2" stroke-width="1.5" points="105.2767,-639.4699 102.286,-629.3059 98.2856,-639.1165 105.2767,-639.4699"/>
</g>
<!-- 3&#45;&gt;4 -->
<g id="edge14" class="edge">
<title>3&#45;&gt;4</title>
<path fill="none" stroke="#f60000" stroke-width="3.5" d="M103.5,-709.9752C103.5,-691.1356 103.5,-661.3112 103.5,-639.3213"/>
<polygon fill="#f60000" stroke="#f60000" stroke-width="3.5" points="107.0001,-639.2381 103.5,-629.2381 100.0001,-639.2381 107.0001,-639.2381"/>
<text text-anchor="middle" x="153.5" y="-680.8" font-family="Times,serif" font-size="14.00" fill="#f60000">@3</text>
<text text-anchor="middle" x="153.5" y="-665.8" font-family="Times,serif" font-size="14.00" fill="#f60000"># update(1,B)</text>
<text text-anchor="middle" x="153.5" y="-650.8" font-family="Times,serif" font-size="14.00" fill="#f60000">store(1)</text>
</g>
<!-- 5 -->
<g id="node6" class="node">
<title>5</title>
<polygon fill="#e6e6e6" stroke="#4a4a4a" points="152.5,-512 54.5,-512 54.5,-476 152.5,-476 152.5,-512"/>
<text text-anchor="middle" x="103.5" y="-490.3" font-family="Times,serif" font-size="14.00" fill="#4a4a4a">5: beqz(r,8)</text>
</g>
<!-- 4&#45;&gt;5 -->
<g id="edge5" class="edge">
<title>4&#45;&gt;5</title>
<path fill="none" stroke="#a2a2a2" stroke-width="1.5" d="M102.286,-592.6941C101.963,-587.0251 101.6598,-580.7566 101.5,-575 100.9451,-555.0077 100.9451,-549.9923 101.5,-530 101.5674,-527.5714 101.6603,-525.0517 101.7695,-522.5244"/>
<polygon fill="#a2a2a2" stroke="#a2a2a2" stroke-width="1.5" points="105.2767,-522.4699 102.286,-512.3059 98.2856,-522.1165 105.2767,-522.4699"/>
</g>
<!-- 4&#45;&gt;5 -->
<g id="edge15" class="edge">
<title>4&#45;&gt;5</title>
<path fill="none" stroke="#f60000" stroke-width="3.5" d="M103.5,-592.9752C103.5,-574.1356 103.5,-544.3112 103.5,-522.3213"/>
<polygon fill="#f60000" stroke="#f60000" stroke-width="3.5" points="107.0001,-522.2381 103.5,-512.2381 100.0001,-522.2381 107.0001,-522.2381"/>
<text text-anchor="middle" x="167" y="-563.8" font-family="Times,serif" font-size="14.00" fill="#f60000">@4</text>
<text text-anchor="middle" x="167" y="-548.8" font-family="Times,serif" font-size="14.00" fill="#f60000">load(0∧1)</text>
<text text-anchor="middle" x="167" y="-533.8" font-family="Times,serif" font-size="14.00" fill="#f60000"># element(0∧1,C)</text>
</g>
<!-- 6 -->
<g id="node7" class="node">
<title>6</title>
<polygon fill="#e6e6e6" stroke="#4a4a4a" points="91,-380 0,-380 0,-344 91,-344 91,-380"/>
<text text-anchor="middle" x="45.5" y="-358.3" font-family="Times,serif" font-size="14.00" fill="#4a4a4a">6: v1←256</text>
</g>
<!-- 5&#45;&gt;6 -->
<g id="edge6" class="edge">
<title>5&#45;&gt;6</title>
<path fill="none" stroke="#a2a2a2" stroke-width="1.5" d="M54.1433,-480.8634C43.2315,-475.5713 32.9966,-468.2089 26.5,-458 12.1833,-435.5024 20.0885,-423.8844 26.5,-398 27.2009,-395.1704 28.1692,-392.3179 29.3006,-389.5235"/>
<polygon fill="#a2a2a2" stroke="#a2a2a2" stroke-width="1.5" points="32.5207,-390.9009 33.6237,-380.3636 26.1903,-387.9132 32.5207,-390.9009"/>
</g>
<!-- 5&#45;&gt;6 -->
<g id="edge16" class="edge">
<title>5&#45;&gt;6</title>
<path fill="none" stroke="#f60000" stroke-width="3.5" d="M63.2769,-475.9335C56.5628,-471.0882 50.4921,-465.1546 46.5,-458 35.0723,-437.5194 35.905,-410.5499 38.9727,-390.4124"/>
<polygon fill="#f60000" stroke="#f60000" stroke-width="3.5" points="42.467,-390.7546 40.7851,-380.2942 35.5767,-389.5204 42.467,-390.7546"/>
<text text-anchor="middle" x="93" y="-446.8" font-family="Times,serif" font-size="14.00" fill="#f60000">@5</text>
<text text-anchor="middle" x="93" y="-431.8" font-family="Times,serif" font-size="14.00" fill="#f60000"># cond(C=0)</text>
<text text-anchor="middle" x="93" y="-416.8" font-family="Times,serif" font-size="14.00" fill="#f60000">start(0)</text>
<text text-anchor="middle" x="93" y="-401.8" font-family="Times,serif" font-size="14.00" fill="#f60000">pc(6)</text>
</g>
<!-- 5&#45;&gt;6 -->
<g id="edge21" class="edge">
<title>5&#45;&gt;6</title>
<path fill="none" stroke="#00934a" stroke-width="3" stroke-dasharray="5,2" d="M126.9414,-475.9949C132.036,-470.7962 136.7264,-464.6961 139.5,-458 149.7049,-433.3632 154.6126,-419.9709 139.5,-398 133.4835,-389.2532 112.0041,-380.6999 91.0947,-374.1266"/>
<text text-anchor="middle" x="159" y="-424.3" font-family="Times,serif" font-size="14.00" fill="#00934a"> t0</text>
</g>
<!-- 8 -->
<g id="node8" class="node">
<title>8</title>
<polygon fill="#e6e6e6" stroke="#4a4a4a" points="184,-36 93,-36 93,0 184,0 184,-36"/>
<text text-anchor="middle" x="138.5" y="-14.3" font-family="Times,serif" font-size="14.00" fill="#4a4a4a">8: v1←257</text>
</g>
<!-- 5&#45;&gt;8 -->
<g id="edge7" class="edge">
<title>5&#45;&gt;8</title>
<path fill="none" stroke="#a2a2a2" stroke-width="1.5" d="M151.3373,-475.9911C159.3308,-471.1798 166.8484,-465.2441 172.5,-458 199.4876,-423.408 195.5,-405.8741 195.5,-362 195.5,-362 195.5,-362 195.5,-154 195.5,-107.7244 187.5256,-95.2232 166.5,-54 164.8181,-50.7025 162.8168,-47.4088 160.6687,-44.2275"/>
<polygon fill="#a2a2a2" stroke="#a2a2a2" stroke-width="1.5" points="163.4859,-42.1506 154.7586,-36.1434 157.835,-46.2818 163.4859,-42.1506"/>
</g>
<!-- 7 -->
<g id="node9" class="node">
<title>7</title>
<polygon fill="#e6e6e6" stroke="#4a4a4a" points="86,-293 5,-293 5,-257 86,-257 86,-293"/>
<text text-anchor="middle" x="45.5" y="-271.3" font-family="Times,serif" font-size="14.00" fill="#4a4a4a">7: jmp(9)</text>
</g>
<!-- 6&#45;&gt;7 -->
<g id="edge8" class="edge">
<title>6&#45;&gt;7</title>
<path fill="none" stroke="#a2a2a2" stroke-width="1.5" d="M33.6237,-343.6364C30.7076,-338.1769 27.9953,-332.0366 26.5,-326 24.5513,-318.1326 26.0418,-309.8113 28.8856,-302.2237"/>
<polygon fill="#a2a2a2" stroke="#a2a2a2" stroke-width="1.5" points="32.0843,-303.6449 33.0544,-293.0946 25.7167,-300.7371 32.0843,-303.6449"/>
</g>
<!-- 6&#45;&gt;7 -->
<g id="edge17" class="edge">
<title>6&#45;&gt;7</title>
<path fill="none" stroke="#f60000" stroke-width="3.5" d="M45.5,-343.9735C45.5,-332.1918 45.5,-316.5607 45.5,-303.1581"/>
<polygon fill="#f60000" stroke="#f60000" stroke-width="3.5" points="49.0001,-303.0033 45.5,-293.0034 42.0001,-303.0034 49.0001,-303.0033"/>
<text text-anchor="middle" x="57" y="-314.8" font-family="Times,serif" font-size="14.00" fill="#f60000">@6</text>
</g>
<!-- 6&#45;&gt;7 -->
<g id="edge22" class="edge">
<title>6&#45;&gt;7</title>
<path fill="none" stroke="#00934a" stroke-width="3" stroke-dasharray="5,2" d="M60.7178,-343.638C64.3053,-338.2742 67.628,-332.1828 69.5,-326 72.9028,-314.7612 67.8421,-302.8527 61.5047,-293.3718"/>
<text text-anchor="middle" x="81" y="-314.8" font-family="Times,serif" font-size="14.00" fill="#00934a"> t0</text>
</g>
<!-- 9 -->
<g id="node10" class="node">
<title>9</title>
<polygon fill="#e6e6e6" stroke="#4a4a4a" points="153.0612,-146.5442 153.0612,-161.4558 133.4015,-172 105.5985,-172 85.9388,-161.4558 85.9388,-146.5442 105.5985,-136 133.4015,-136 153.0612,-146.5442"/>
<polygon fill="none" stroke="#4a4a4a" points="157.0367,-144.1436 157.0367,-163.8564 134.3949,-176 104.6051,-176 81.9633,-163.8564 81.9633,-144.1436 104.6051,-132 134.3949,-132 157.0367,-144.1436"/>
<text text-anchor="middle" x="119.5" y="-150.3" font-family="Times,serif" font-size="14.00" fill="#4a4a4a">9: ⊥</text>
</g>
<!-- 8&#45;&gt;9 -->
<g id="edge10" class="edge">
<title>8&#45;&gt;9</title>
<path fill="none" stroke="#a2a2a2" stroke-width="1.5" d="M135.9544,-36.2214C132.901,-58.077 127.7281,-95.1041 123.9965,-121.8146"/>
<polygon fill="#a2a2a2" stroke="#a2a2a2" stroke-width="1.5" points="120.5123,-121.4585 122.595,-131.8466 127.445,-122.427 120.5123,-121.4585"/>
</g>
<!-- 8&#45;&gt;9 -->
<g id="edge20" class="edge">
<title>8&#45;&gt;9</title>
<path fill="none" stroke="#f60000" stroke-width="3.5" d="M139.08,-36.2355C139.3444,-55.6877 138.7539,-87.3087 133.5,-114 132.972,-116.6823 132.3024,-119.4286 131.5433,-122.1639"/>
<polygon fill="#f60000" stroke="#f60000" stroke-width="3.5" points="128.1469,-121.2979 128.4961,-131.887 134.8266,-123.3913 128.1469,-121.2979"/>
<text text-anchor="middle" x="151" y="-80.3" font-family="Times,serif" font-size="14.00" fill="#f60000">@9</text>
</g>
<!-- 7&#45;&gt;9 -->
<g id="edge9" class="edge">
<title>7&#45;&gt;9</title>
<path fill="none" stroke="#a2a2a2" stroke-width="1.5" d="M33.0419,-256.8843C22.7785,-239.4949 11.8034,-213.122 24.5,-194 35.1907,-177.8989 53.7691,-168.264 71.6772,-162.5051"/>
<polygon fill="#a2a2a2" stroke="#a2a2a2" stroke-width="1.5" points="72.8548,-165.8085 81.5028,-159.6879 70.9255,-159.0796 72.8548,-165.8085"/>
</g>
<!-- 7&#45;&gt;9 -->
<g id="edge18" class="edge">
<title>7&#45;&gt;9</title>
<path fill="none" stroke="#f60000" stroke-width="3.5" d="M40.1465,-256.8543C36.128,-239.4427 33.0677,-213.0539 44.5,-194 51.1499,-182.9169 62.0286,-174.7354 73.464,-168.7673"/>
<polygon fill="#f60000" stroke="#f60000" stroke-width="3.5" points="75.1171,-171.8579 82.6843,-164.4425 72.1444,-165.5205 75.1171,-171.8579"/>
<text text-anchor="middle" x="71" y="-227.8" font-family="Times,serif" font-size="14.00" fill="#f60000">@7</text>
<text text-anchor="middle" x="71" y="-212.8" font-family="Times,serif" font-size="14.00" fill="#f60000">start(1)</text>
<text text-anchor="middle" x="71" y="-197.8" font-family="Times,serif" font-size="14.00" fill="#f60000">pc(9)</text>
</g>
<!-- 7&#45;&gt;9 -->
<g id="edge23" class="edge">
<title>7&#45;&gt;9</title>
<path fill="none" stroke="#00934a" stroke-width="3" stroke-dasharray="5,2" d="M79.1204,-256.9809C86.0296,-251.9529 92.6617,-245.9335 97.5,-239 110.5846,-220.2492 115.8888,-194.2896 118.038,-176.0065"/>
<text text-anchor="middle" x="125" y="-212.8" font-family="Times,serif" font-size="14.00" fill="#00934a"> t0</text>
</g>
<!-- 7&#45;&gt;9 -->
<g id="edge24" class="edge">
<title>7&#45;&gt;9</title>
<path fill="none" stroke="#4363d8" stroke-width="3" stroke-dasharray="5,2" d="M86.034,-264.2462C108.0721,-257.4921 132.1145,-248.3191 138.5,-239 151.3207,-220.2894 142.594,-194.3228 133.1692,-176.0272"/>
<text text-anchor="middle" x="155" y="-212.8" font-family="Times,serif" font-size="14.00" fill="#4363d8"> t1</text>
</g>
<!-- 9&#45;&gt;8 -->
<g id="edge19" class="edge">
<title>9&#45;&gt;8</title>
<path fill="none" stroke="#f60000" stroke-width="3.5" d="M82.207,-143.6755C67.4784,-137.5705 52.054,-128.1685 43.5,-114 29.7175,-91.1712 28.3487,-75.9442 43.5,-54 48.6789,-46.4992 65.162,-39.1868 82.977,-33.1334"/>
<polygon fill="#f60000" stroke="#f60000" stroke-width="3.5" points="84.5114,-36.3157 92.948,-29.9067 82.3561,-29.6557 84.5114,-36.3157"/>
<text text-anchor="middle" x="82.5" y="-102.8" font-family="Times,serif" font-size="14.00" fill="#f60000">@8</text>
<text text-anchor="middle" x="82.5" y="-87.8" font-family="Times,serif" font-size="14.00" fill="#f60000">commit(1)</text>
<text text-anchor="middle" x="82.5" y="-72.8" font-family="Times,serif" font-size="14.00" fill="#f60000">rollback(0)</text>
<text text-anchor="middle" x="82.5" y="-57.8" font-family="Times,serif" font-size="14.00" fill="#f60000">pc(8)</text>
</g>
</g>
</svg>
