<?xml version="1.0" encoding="UTF-8" standalone="no"?>
<!DOCTYPE svg PUBLIC "-//W3C//DTD SVG 1.1//EN"
 "http://www.w3.org/Graphics/SVG/1.1/DTD/svg11.dtd">
<!-- Generated by graphviz version 2.40.1 (20161225.0304)
 -->
<!-- Title: %3 Pages: 1 -->
<svg width="431pt" height="772pt"
 viewBox="0.00 0.00 431.00 772.00" xmlns="http://www.w3.org/2000/svg" xmlns:xlink="http://www.w3.org/1999/xlink">
<g id="graph0" class="graph" transform="scale(1 1) rotate(0) translate(4 768)">
<title>%3</title>
<polygon fill="#ffffff" stroke="transparent" points="-4,4 -4,-768 427,-768 427,4 -4,4"/>
<!-- 0 -->
<g id="node1" class="node">
<title>0</title>
<polygon fill="#e6e6e6" stroke="#4a4a4a" points="245.5,-689 142.5,-689 142.5,-653 245.5,-653 245.5,-689"/>
<text text-anchor="middle" x="194" y="-667.3" font-family="Times,serif" font-size="14.00" fill="#4a4a4a">0: x←y≥size</text>
</g>
<!-- 1 -->
<g id="node2" class="node">
<title>1</title>
<polygon fill="#e6e6e6" stroke="#4a4a4a" points="244.5,-587 143.5,-587 143.5,-551 244.5,-551 244.5,-587"/>
<text text-anchor="middle" x="194" y="-565.3" font-family="Times,serif" font-size="14.00" fill="#4a4a4a">1: beqz(x,3)</text>
</g>
<!-- 0&#45;&gt;1 -->
<g id="edge1" class="edge">
<title>0&#45;&gt;1</title>
<path fill="none" stroke="#a2a2a2" stroke-width="1.5" d="M192.786,-652.6941C192.463,-647.0251 192.1598,-640.7566 192,-635 191.6301,-621.6718 191.6301,-618.3282 192,-605 192.0674,-602.5714 192.1603,-600.0517 192.2695,-597.5244"/>
<polygon fill="#a2a2a2" stroke="#a2a2a2" stroke-width="1.5" points="195.7767,-597.4699 192.786,-587.3059 188.7856,-597.1165 195.7767,-597.4699"/>
</g>
<!-- 0&#45;&gt;1 -->
<g id="edge8" class="edge">
<title>0&#45;&gt;1</title>
<path fill="none" stroke="#f60000" stroke-width="3.5" d="M194,-652.7644C194,-637.317 194,-614.9149 194,-597.164"/>
<polygon fill="#f60000" stroke="#f60000" stroke-width="3.5" points="197.5001,-597.0776 194,-587.0777 190.5001,-597.0777 197.5001,-597.0776"/>
<text text-anchor="middle" x="235" y="-623.8" font-family="Times,serif" font-size="14.00" fill="#f60000">@0</text>
<text text-anchor="middle" x="235" y="-608.8" font-family="Times,serif" font-size="14.00" fill="#f60000"># C=(A≥B)</text>
</g>
<!-- 2 -->
<g id="node3" class="node">
<title>2</title>
<polygon fill="#e6e6e6" stroke="#4a4a4a" points="154.5,-236 73.5,-236 73.5,-200 154.5,-200 154.5,-236"/>
<text text-anchor="middle" x="114" y="-214.3" font-family="Times,serif" font-size="14.00" fill="#4a4a4a">2: jmp(6)</text>
</g>
<!-- 1&#45;&gt;2 -->
<g id="edge2" class="edge">
<title>1&#45;&gt;2</title>
<path fill="none" stroke="#a2a2a2" stroke-width="1.5" d="M187.7289,-550.7392C185.8323,-545.0721 183.7815,-538.7933 182,-533 171.4131,-498.5718 168.3276,-490.0433 160,-455 142.2298,-380.2212 126.3144,-290.9639 118.7149,-246.3418"/>
<polygon fill="#a2a2a2" stroke="#a2a2a2" stroke-width="1.5" points="122.1264,-245.5242 117.0083,-236.2476 115.2243,-246.6912 122.1264,-245.5242"/>
</g>
<!-- 3 -->
<g id="node4" class="node">
<title>3</title>
<polygon fill="#e6e6e6" stroke="#4a4a4a" points="286.5,-455 169.5,-455 169.5,-419 286.5,-419 286.5,-455"/>
<text text-anchor="middle" x="228" y="-433.3" font-family="Times,serif" font-size="14.00" fill="#4a4a4a">3: load(z,A+y)</text>
</g>
<!-- 1&#45;&gt;3 -->
<g id="edge3" class="edge">
<title>1&#45;&gt;3</title>
<path fill="none" stroke="#a2a2a2" stroke-width="1.5" d="M189.4314,-550.8659C185.3475,-530.9469 181.4739,-498.4122 192,-473 193.5168,-469.3381 195.6069,-465.8544 198.0228,-462.5989"/>
<polygon fill="#a2a2a2" stroke="#a2a2a2" stroke-width="1.5" points="200.6881,-464.8676 204.5586,-455.0051 195.3825,-460.3013 200.6881,-464.8676"/>
</g>
<!-- 1&#45;&gt;3 -->
<g id="edge9" class="edge">
<title>1&#45;&gt;3</title>
<path fill="none" stroke="#f60000" stroke-width="3.5" d="M196.148,-550.6455C198.7336,-531.0941 203.7846,-499.3909 212,-473 212.8576,-470.245 213.8671,-467.4203 214.9551,-464.6238"/>
<polygon fill="#f60000" stroke="#f60000" stroke-width="3.5" points="218.198,-465.9411 218.85,-455.3664 211.7458,-463.2264 218.198,-465.9411"/>
<text text-anchor="middle" x="258.5" y="-521.8" font-family="Times,serif" font-size="14.00" fill="#f60000">@1</text>
<text text-anchor="middle" x="258.5" y="-506.8" font-family="Times,serif" font-size="14.00" fill="#f60000"># cond(C=0)</text>
<text text-anchor="middle" x="258.5" y="-491.8" font-family="Times,serif" font-size="14.00" fill="#f60000">start(0)</text>
<text text-anchor="middle" x="258.5" y="-476.8" font-family="Times,serif" font-size="14.00" fill="#f60000">pc(3)</text>
</g>
<!-- 1&#45;&gt;3 -->
<g id="edge16" class="edge">
<title>1&#45;&gt;3</title>
<path fill="none" stroke="#00934a" stroke-width="3" stroke-dasharray="5,2" d="M244.6914,-558.6403C270.2737,-552.2763 297.4654,-543.3646 305,-533 320.6801,-511.4304 319.3167,-495.4976 305,-473 300.3256,-465.6546 293.7159,-459.7828 286.3113,-455.0955"/>
<text text-anchor="middle" x="323.5" y="-499.3" font-family="Times,serif" font-size="14.00" fill="#00934a">t0</text>
</g>
<!-- 6 -->
<g id="node5" class="node">
<title>6</title>
<polygon fill="#e6e6e6" stroke="#4a4a4a" points="185.5612,-89.5442 185.5612,-104.4558 165.9015,-115 138.0985,-115 118.4388,-104.4558 118.4388,-89.5442 138.0985,-79 165.9015,-79 185.5612,-89.5442"/>
<polygon fill="none" stroke="#4a4a4a" points="189.5367,-87.1436 189.5367,-106.8564 166.8949,-119 137.1051,-119 114.4633,-106.8564 114.4633,-87.1436 137.1051,-75 166.8949,-75 189.5367,-87.1436"/>
<text text-anchor="middle" x="152" y="-93.3" font-family="Times,serif" font-size="14.00" fill="#4a4a4a">6: ⊥</text>
</g>
<!-- 2&#45;&gt;6 -->
<g id="edge4" class="edge">
<title>2&#45;&gt;6</title>
<path fill="none" stroke="#a2a2a2" stroke-width="1.5" d="M73.3811,-207.5859C50.6649,-200.8512 25.614,-191.5793 19,-182 7.6365,-165.5418 7.0669,-153.05 19,-137 29.3976,-123.0152 70.4558,-112.0705 104.2354,-105.1913"/>
<polygon fill="#a2a2a2" stroke="#a2a2a2" stroke-width="1.5" points="105.3043,-108.5484 114.4431,-103.1881 103.9562,-101.6794 105.3043,-108.5484"/>
</g>
<!-- 2&#45;&gt;6 -->
<g id="edge14" class="edge">
<title>2&#45;&gt;6</title>
<path fill="none" stroke="#f60000" stroke-width="3.5" d="M73.3549,-207.9678C60.0818,-202.5547 46.769,-194.3467 39,-182 28.3485,-165.0723 27.4561,-153.3321 39,-137 46.9969,-125.6862 77.2435,-115.3206 104.4319,-107.9775"/>
<polygon fill="#f60000" stroke="#f60000" stroke-width="3.5" points="105.4707,-111.3237 114.2634,-105.4127 103.7037,-104.5504 105.4707,-111.3237"/>
<text text-anchor="middle" x="65.5" y="-170.8" font-family="Times,serif" font-size="14.00" fill="#f60000">@6</text>
<text text-anchor="middle" x="65.5" y="-155.8" font-family="Times,serif" font-size="14.00" fill="#f60000">start(1)</text>
<text text-anchor="middle" x="65.5" y="-140.8" font-family="Times,serif" font-size="14.00" fill="#f60000">pc(6)</text>
</g>
<!-- 2&#45;&gt;6 -->
<g id="edge20" class="edge">
<title>2&#45;&gt;6</title>
<path fill="none" stroke="#4363d8" stroke-width="3" stroke-dasharray="5,2" d="M109.0815,-199.8373C105.4532,-182.8825 102.4741,-157.2293 111,-137 114.6305,-128.386 121.1227,-120.7049 127.8856,-114.4329"/>
<text text-anchor="middle" x="118.5" y="-155.8" font-family="Times,serif" font-size="14.00" fill="#4363d8">t1</text>
</g>
<!-- 4 -->
<g id="node6" class="node">
<title>4</title>
<polygon fill="#e6e6e6" stroke="#4a4a4a" points="291.5,-338 196.5,-338 196.5,-302 291.5,-302 291.5,-338"/>
<text text-anchor="middle" x="244" y="-316.3" font-family="Times,serif" font-size="14.00" fill="#4a4a4a">4: z←z*512</text>
</g>
<!-- 3&#45;&gt;4 -->
<g id="edge5" class="edge">
<title>3&#45;&gt;4</title>
<path fill="none" stroke="#a2a2a2" stroke-width="1.5" d="M219.6656,-418.8367C213.1905,-402.1056 206.4698,-376.7989 214,-356 215.1996,-352.6867 216.852,-349.4641 218.7697,-346.3962"/>
<polygon fill="#a2a2a2" stroke="#a2a2a2" stroke-width="1.5" points="221.6696,-348.3595 224.7209,-338.2136 216.0084,-344.2422 221.6696,-348.3595"/>
</g>
<!-- 3&#45;&gt;4 -->
<g id="edge10" class="edge">
<title>3&#45;&gt;4</title>
<path fill="none" stroke="#f60000" stroke-width="3.5" d="M228.3239,-418.8589C228.8594,-402.36 230.2738,-377.3935 234,-356 234.464,-353.336 235.0421,-350.585 235.6847,-347.8459"/>
<polygon fill="#f60000" stroke="#f60000" stroke-width="3.5" points="239.0753,-348.7142 238.207,-338.155 232.301,-346.951 239.0753,-348.7142"/>
<text text-anchor="middle" x="299.5" y="-389.8" font-family="Times,serif" font-size="14.00" fill="#f60000">@2</text>
<text text-anchor="middle" x="299.5" y="-374.8" font-family="Times,serif" font-size="14.00" fill="#f60000">load(D+A)</text>
<text text-anchor="middle" x="299.5" y="-359.8" font-family="Times,serif" font-size="14.00" fill="#f60000"># element(D+A,F)</text>
</g>
<!-- 3&#45;&gt;4 -->
<g id="edge17" class="edge">
<title>3&#45;&gt;4</title>
<path fill="none" stroke="#00934a" stroke-width="3" stroke-dasharray="5,2" d="M286.6849,-428.8232C319.2471,-422.953 355.1257,-413.8042 365,-401 377.2136,-385.1624 376.9569,-372.0323 365,-356 355.959,-343.8774 321.5041,-334.3633 291.6619,-328.1681"/>
<text text-anchor="middle" x="381.5" y="-374.8" font-family="Times,serif" font-size="14.00" fill="#00934a">t0</text>
</g>
<!-- 6&#45;&gt;2 -->
<g id="edge13" class="edge">
<title>6&#45;&gt;2</title>
<path fill="none" stroke="#f60000" stroke-width="3.5" d="M147.2858,-119.3129C143.373,-136.6337 137.2822,-161.1314 130,-182 129.0282,-184.7848 127.9298,-187.653 126.775,-190.4975"/>
<polygon fill="#f60000" stroke="#f60000" stroke-width="3.5" points="123.4584,-189.351 122.7335,-199.921 129.8917,-192.1101 123.4584,-189.351"/>
<text text-anchor="middle" x="182" y="-170.8" font-family="Times,serif" font-size="14.00" fill="#f60000">@5</text>
<text text-anchor="middle" x="182" y="-155.8" font-family="Times,serif" font-size="14.00" fill="#f60000">rollback(0)</text>
<text text-anchor="middle" x="182" y="-140.8" font-family="Times,serif" font-size="14.00" fill="#f60000">pc(2)</text>
</g>
<!-- 6&#45;&gt;6 -->
<g id="edge15" class="edge">
<title>6&#45;&gt;6</title>
<path fill="none" stroke="#f60000" stroke-width="3.5" d="M189.7942,-104.4446C200.0019,-104.0518 207.7676,-101.5703 207.7676,-97 207.7676,-94.1436 204.7341,-92.103 199.9669,-90.8784"/>
<polygon fill="#f60000" stroke="#f60000" stroke-width="3.5" points="200.1621,-87.3744 189.7942,-89.5554 199.2592,-94.316 200.1621,-87.3744"/>
<text text-anchor="middle" x="244.2676" y="-100.8" font-family="Times,serif" font-size="14.00" fill="#f60000">@7</text>
<text text-anchor="middle" x="244.2676" y="-85.8" font-family="Times,serif" font-size="14.00" fill="#f60000">commit(1)</text>
</g>
<!-- conf_6 -->
<g id="node9" class="node">
<title>conf_6</title>
<polygon fill="none" stroke="#4a4a4a" points="298,-38 0,-38 0,0 304,0 304,-32 298,-38"/>
<polyline fill="none" stroke="#4a4a4a" points="298,-38 298,-32 "/>
<polyline fill="none" stroke="#4a4a4a" points="304,-32 298,-32 "/>
<text text-anchor="middle" x="152" y="-22.8" font-family="Times,serif" font-size="14.00" fill="#4a4a4a">mem: {&#39;0&#39;: &#39;E&#39;}</text>
<text text-anchor="middle" x="152" y="-7.8" font-family="Times,serif" font-size="14.00" fill="#4a4a4a">reg: {&#39;pc&#39;: &#39;6&#39;, &#39;y&#39;: &#39;A&#39;, &#39;size&#39;: &#39;B&#39;, &#39;x&#39;: &#39;C&#39;}</text>
</g>
<!-- 6&#45;&gt;conf_6 -->
<g id="edge22" class="edge">
<title>6&#45;&gt;conf_6</title>
<path fill="none" stroke="#c0c0c0" stroke-width="2" stroke-dasharray="1,5" d="M152,-74.857C152,-63.2368 152,-49.1443 152,-38.0217"/>
</g>
<!-- 5 -->
<g id="node7" class="node">
<title>5</title>
<polygon fill="#e6e6e6" stroke="#4a4a4a" points="321,-236 201,-236 201,-200 321,-200 321,-236"/>
<text text-anchor="middle" x="261" y="-214.3" font-family="Times,serif" font-size="14.00" fill="#4a4a4a">5: load(w,B+z)</text>
</g>
<!-- 4&#45;&gt;5 -->
<g id="edge6" class="edge">
<title>4&#45;&gt;5</title>
<path fill="none" stroke="#a2a2a2" stroke-width="1.5" d="M237.8166,-301.981C234.1415,-288.499 231.0673,-269.751 236,-254 236.9778,-250.8776 238.3325,-247.7884 239.9099,-244.8094"/>
<polygon fill="#a2a2a2" stroke="#a2a2a2" stroke-width="1.5" points="242.8982,-246.6314 245.1557,-236.2798 236.9357,-242.9643 242.8982,-246.6314"/>
</g>
<!-- 4&#45;&gt;5 -->
<g id="edge11" class="edge">
<title>4&#45;&gt;5</title>
<path fill="none" stroke="#f60000" stroke-width="3.5" d="M247.0393,-301.7644C249.6138,-286.317 253.3475,-263.9149 256.306,-246.164"/>
<polygon fill="#f60000" stroke="#f60000" stroke-width="3.5" points="259.7954,-246.517 257.9871,-236.0777 252.8906,-245.3662 259.7954,-246.517"/>
<text text-anchor="middle" x="296" y="-272.8" font-family="Times,serif" font-size="14.00" fill="#f60000">@3</text>
<text text-anchor="middle" x="296" y="-257.8" font-family="Times,serif" font-size="14.00" fill="#f60000"># G=F*512</text>
</g>
<!-- 4&#45;&gt;5 -->
<g id="edge18" class="edge">
<title>4&#45;&gt;5</title>
<path fill="none" stroke="#00934a" stroke-width="3" stroke-dasharray="5,2" d="M291.6611,-307.2178C311.9016,-300.7367 332.1816,-292.4589 338,-284 345.5563,-273.0146 345.1583,-265.2488 338,-254 333.3256,-246.6546 326.7159,-240.7828 319.3113,-236.0955"/>
<text text-anchor="middle" x="350.5" y="-265.3" font-family="Times,serif" font-size="14.00" fill="#00934a">t0</text>
</g>
<!-- 5&#45;&gt;6 -->
<g id="edge7" class="edge">
<title>5&#45;&gt;6</title>
<path fill="none" stroke="#a2a2a2" stroke-width="1.5" d="M256.5475,-199.6801C251.4432,-181.8907 241.5686,-155.0049 225,-137 216.4374,-127.6952 205.2,-120.078 194.1164,-114.082"/>
<polygon fill="#a2a2a2" stroke="#a2a2a2" stroke-width="1.5" points="195.4081,-110.8132 184.9046,-109.4251 192.25,-117.0603 195.4081,-110.8132"/>
</g>
<!-- 5&#45;&gt;6 -->
<g id="edge12" class="edge">
<title>5&#45;&gt;6</title>
<path fill="none" stroke="#f60000" stroke-width="3.5" d="M263.9358,-199.9714C265.7974,-182.1523 265.709,-155.0156 252,-137 239.3685,-120.4004 218.7569,-110.6723 199.5186,-104.9789"/>
<polygon fill="#f60000" stroke="#f60000" stroke-width="3.5" points="200.1962,-101.5377 189.6329,-102.3545 198.4,-108.3033 200.1962,-101.5377"/>
<text text-anchor="middle" x="330" y="-170.8" font-family="Times,serif" font-size="14.00" fill="#f60000">@4</text>
<text text-anchor="middle" x="330" y="-155.8" font-family="Times,serif" font-size="14.00" fill="#f60000">load(H+G)</text>
<text text-anchor="middle" x="330" y="-140.8" font-family="Times,serif" font-size="14.00" fill="#f60000"># element(H+G,I)</text>
</g>
<!-- 5&#45;&gt;6 -->
<g id="edge19" class="edge">
<title>5&#45;&gt;6</title>
<path fill="none" stroke="#00934a" stroke-width="3" stroke-dasharray="5,2" d="M321.232,-209.6775C353.7275,-203.8203 389.1604,-194.7358 399,-182 411.2277,-166.1733 411.9626,-152.2306 399,-137 385.5911,-121.245 255.3634,-106.7881 189.6012,-100.4216"/>
<text text-anchor="middle" x="415.5" y="-155.8" font-family="Times,serif" font-size="14.00" fill="#00934a">t0</text>
</g>
<!-- conf_0 -->
<g id="node8" class="node">
<title>conf_0</title>
<polygon fill="none" stroke="#4a4a4a" points="312.5,-764 69.5,-764 69.5,-726 318.5,-726 318.5,-758 312.5,-764"/>
<polyline fill="none" stroke="#4a4a4a" points="312.5,-764 312.5,-758 "/>
<polyline fill="none" stroke="#4a4a4a" points="318.5,-758 312.5,-758 "/>
<text text-anchor="middle" x="194" y="-748.8" font-family="Times,serif" font-size="14.00" fill="#4a4a4a">mem: {&#39;0&#39;: &#39;E&#39;}</text>
<text text-anchor="middle" x="194" y="-733.8" font-family="Times,serif" font-size="14.00" fill="#4a4a4a">reg: {&#39;pc&#39;: &#39;0&#39;, &#39;y&#39;: &#39;A&#39;, &#39;size&#39;: &#39;B&#39;}</text>
</g>
<!-- conf_0&#45;&gt;0 -->
<g id="edge21" class="edge">
<title>conf_0&#45;&gt;0</title>
<path fill="none" stroke="#c0c0c0" stroke-width="2" stroke-dasharray="1,5" d="M194,-725.9432C194,-714.6377 194,-700.3833 194,-689.2269"/>
</g>
</g>
</svg>
