<?xml version="1.0" encoding="UTF-8" standalone="no"?>
<!DOCTYPE svg PUBLIC "-//W3C//DTD SVG 1.1//EN"
 "http://www.w3.org/Graphics/SVG/1.1/DTD/svg11.dtd">
<!-- Generated by graphviz version 2.40.1 (20161225.0304)
 -->
<!-- Title: %3 Pages: 1 -->
<svg width="723pt" height="1476pt"
 viewBox="0.00 0.00 723.00 1476.00" xmlns="http://www.w3.org/2000/svg" xmlns:xlink="http://www.w3.org/1999/xlink">
<g id="graph0" class="graph" transform="scale(1 1) rotate(0) translate(4 1472)">
<title>%3</title>
<polygon fill="#ffffff" stroke="transparent" points="-4,4 -4,-1472 719,-1472 719,4 -4,4"/>
<!-- 0 -->
<g id="node1" class="node">
<title>0</title>
<polygon fill="#e6e6e6" stroke="#4a4a4a" points="645.5,-1393 548.5,-1393 548.5,-1357 645.5,-1357 645.5,-1393"/>
<text text-anchor="middle" x="597" y="-1371.3" font-family="Times,serif" font-size="14.00" fill="#4a4a4a">0: load(x,0)</text>
</g>
<!-- 1 -->
<g id="node2" class="node">
<title>1</title>
<polygon fill="#e6e6e6" stroke="#4a4a4a" points="644.5,-1276 549.5,-1276 549.5,-1240 644.5,-1240 644.5,-1276"/>
<text text-anchor="middle" x="597" y="-1254.3" font-family="Times,serif" font-size="14.00" fill="#4a4a4a">1: load(v,1)</text>
</g>
<!-- 0&#45;&gt;1 -->
<g id="edge1" class="edge">
<title>0&#45;&gt;1</title>
<path fill="none" stroke="#a2a2a2" stroke-width="1.5" d="M595.786,-1356.6941C595.463,-1351.0251 595.1598,-1344.7566 595,-1339 594.4451,-1319.0077 594.4451,-1313.9923 595,-1294 595.0674,-1291.5714 595.1603,-1289.0517 595.2695,-1286.5244"/>
<polygon fill="#a2a2a2" stroke="#a2a2a2" stroke-width="1.5" points="598.7767,-1286.4699 595.786,-1276.3059 591.7856,-1286.1165 598.7767,-1286.4699"/>
</g>
<!-- 0&#45;&gt;1 -->
<g id="edge14" class="edge">
<title>0&#45;&gt;1</title>
<path fill="none" stroke="#f60000" stroke-width="3.5" d="M597,-1356.9752C597,-1338.1356 597,-1308.3112 597,-1286.3213"/>
<polygon fill="#f60000" stroke="#f60000" stroke-width="3.5" points="600.5001,-1286.2381 597,-1276.2381 593.5001,-1286.2381 600.5001,-1286.2381"/>
<text text-anchor="middle" x="651" y="-1327.8" font-family="Times,serif" font-size="14.00" fill="#f60000">@0</text>
<text text-anchor="middle" x="651" y="-1312.8" font-family="Times,serif" font-size="14.00" fill="#f60000">load(0)</text>
<text text-anchor="middle" x="651" y="-1297.8" font-family="Times,serif" font-size="14.00" fill="#f60000"># element(0,B)</text>
</g>
<!-- 2 -->
<g id="node3" class="node">
<title>2</title>
<polygon fill="#e6e6e6" stroke="#4a4a4a" points="646.5,-1159 547.5,-1159 547.5,-1123 646.5,-1123 646.5,-1159"/>
<text text-anchor="middle" x="597" y="-1137.3" font-family="Times,serif" font-size="14.00" fill="#4a4a4a">2: load(w,2)</text>
</g>
<!-- 1&#45;&gt;2 -->
<g id="edge2" class="edge">
<title>1&#45;&gt;2</title>
<path fill="none" stroke="#a2a2a2" stroke-width="1.5" d="M595.786,-1239.6941C595.463,-1234.0251 595.1598,-1227.7566 595,-1222 594.4451,-1202.0077 594.4451,-1196.9923 595,-1177 595.0674,-1174.5714 595.1603,-1172.0517 595.2695,-1169.5244"/>
<polygon fill="#a2a2a2" stroke="#a2a2a2" stroke-width="1.5" points="598.7767,-1169.4699 595.786,-1159.3059 591.7856,-1169.1165 598.7767,-1169.4699"/>
</g>
<!-- 1&#45;&gt;2 -->
<g id="edge15" class="edge">
<title>1&#45;&gt;2</title>
<path fill="none" stroke="#f60000" stroke-width="3.5" d="M597,-1239.9752C597,-1221.1356 597,-1191.3112 597,-1169.3213"/>
<polygon fill="#f60000" stroke="#f60000" stroke-width="3.5" points="600.5001,-1169.2381 597,-1159.2381 593.5001,-1169.2381 600.5001,-1169.2381"/>
<text text-anchor="middle" x="651.5" y="-1210.8" font-family="Times,serif" font-size="14.00" fill="#f60000">@1</text>
<text text-anchor="middle" x="651.5" y="-1195.8" font-family="Times,serif" font-size="14.00" fill="#f60000">load(1)</text>
<text text-anchor="middle" x="651.5" y="-1180.8" font-family="Times,serif" font-size="14.00" fill="#f60000"># element(1,D)</text>
</g>
<!-- 3 -->
<g id="node4" class="node">
<title>3</title>
<polygon fill="#e6e6e6" stroke="#4a4a4a" points="647.5,-1042 546.5,-1042 546.5,-1006 647.5,-1006 647.5,-1042"/>
<text text-anchor="middle" x="597" y="-1020.3" font-family="Times,serif" font-size="14.00" fill="#4a4a4a">3: beqz(x,6)</text>
</g>
<!-- 2&#45;&gt;3 -->
<g id="edge3" class="edge">
<title>2&#45;&gt;3</title>
<path fill="none" stroke="#a2a2a2" stroke-width="1.5" d="M595.786,-1122.6941C595.463,-1117.0251 595.1598,-1110.7566 595,-1105 594.4451,-1085.0077 594.4451,-1079.9923 595,-1060 595.0674,-1057.5714 595.1603,-1055.0517 595.2695,-1052.5244"/>
<polygon fill="#a2a2a2" stroke="#a2a2a2" stroke-width="1.5" points="598.7767,-1052.4699 595.786,-1042.3059 591.7856,-1052.1165 598.7767,-1052.4699"/>
</g>
<!-- 2&#45;&gt;3 -->
<g id="edge16" class="edge">
<title>2&#45;&gt;3</title>
<path fill="none" stroke="#f60000" stroke-width="3.5" d="M597,-1122.9752C597,-1104.1356 597,-1074.3112 597,-1052.3213"/>
<polygon fill="#f60000" stroke="#f60000" stroke-width="3.5" points="600.5001,-1052.2381 597,-1042.2381 593.5001,-1052.2381 600.5001,-1052.2381"/>
<text text-anchor="middle" x="650.5" y="-1093.8" font-family="Times,serif" font-size="14.00" fill="#f60000">@2</text>
<text text-anchor="middle" x="650.5" y="-1078.8" font-family="Times,serif" font-size="14.00" fill="#f60000">load(2)</text>
<text text-anchor="middle" x="650.5" y="-1063.8" font-family="Times,serif" font-size="14.00" fill="#f60000"># element(2,F)</text>
</g>
<!-- 4 -->
<g id="node5" class="node">
<title>4</title>
<polygon fill="#e6e6e6" stroke="#4a4a4a" points="582.5,-910 487.5,-910 487.5,-874 582.5,-874 582.5,-910"/>
<text text-anchor="middle" x="535" y="-888.3" font-family="Times,serif" font-size="14.00" fill="#4a4a4a">4: load(y,v)</text>
</g>
<!-- 3&#45;&gt;4 -->
<g id="edge4" class="edge">
<title>3&#45;&gt;4</title>
<path fill="none" stroke="#a2a2a2" stroke-width="1.5" d="M546.4485,-1010.2742C535.9876,-1005.0288 526.2589,-997.8354 520,-988 507.0025,-967.5754 513.2922,-939.8802 521.3289,-919.4853"/>
<polygon fill="#a2a2a2" stroke="#a2a2a2" stroke-width="1.5" points="524.6187,-920.694 525.3377,-910.1236 518.1838,-917.9386 524.6187,-920.694"/>
</g>
<!-- 3&#45;&gt;4 -->
<g id="edge17" class="edge">
<title>3&#45;&gt;4</title>
<path fill="none" stroke="#f60000" stroke-width="3.5" d="M557.0113,-1005.7995C550.2779,-1000.9652 544.1401,-995.07 540,-988 528.0617,-967.6132 527.7974,-940.419 529.9469,-920.1794"/>
<polygon fill="#f60000" stroke="#f60000" stroke-width="3.5" points="533.4491,-920.3923 531.286,-910.0207 526.5091,-919.4775 533.4491,-920.3923"/>
<text text-anchor="middle" x="586.5" y="-976.8" font-family="Times,serif" font-size="14.00" fill="#f60000">@3</text>
<text text-anchor="middle" x="586.5" y="-961.8" font-family="Times,serif" font-size="14.00" fill="#f60000"># cond(B=0)</text>
<text text-anchor="middle" x="586.5" y="-946.8" font-family="Times,serif" font-size="14.00" fill="#f60000">start(0)</text>
<text text-anchor="middle" x="586.5" y="-931.8" font-family="Times,serif" font-size="14.00" fill="#f60000">pc(4)</text>
</g>
<!-- 3&#45;&gt;4 -->
<g id="edge31" class="edge">
<title>3&#45;&gt;4</title>
<path fill="none" stroke="#00934a" stroke-width="3" stroke-dasharray="5,2" d="M620.4414,-1005.9949C625.536,-1000.7962 630.2264,-994.6961 633,-988 643.2049,-963.3632 648.2628,-949.8668 633,-928 626.6976,-918.9707 604.3027,-910.403 582.5102,-903.8927"/>
<text text-anchor="middle" x="650.5" y="-954.3" font-family="Times,serif" font-size="14.00" fill="#00934a">t0</text>
</g>
<!-- 6 -->
<g id="node6" class="node">
<title>6</title>
<polygon fill="#e6e6e6" stroke="#4a4a4a" points="652,-36 548,-36 548,0 652,0 652,-36"/>
<text text-anchor="middle" x="600" y="-14.3" font-family="Times,serif" font-size="14.00" fill="#4a4a4a">6: store(y,w)</text>
</g>
<!-- 3&#45;&gt;6 -->
<g id="edge5" class="edge">
<title>3&#45;&gt;6</title>
<path fill="none" stroke="#a2a2a2" stroke-width="1.5" d="M641.3668,-1005.944C649.147,-1001.0978 656.4994,-995.1612 662,-988 688.7904,-953.1217 686,-935.9798 686,-892 686,-892 686,-892 686,-136 686,-97.0382 679.3878,-84.3852 655,-54 651.5623,-49.7169 647.4733,-45.7718 643.0996,-42.1892"/>
<polygon fill="#a2a2a2" stroke="#a2a2a2" stroke-width="1.5" points="645.1043,-39.318 634.9983,-36.137 640.9149,-44.926 645.1043,-39.318"/>
</g>
<!-- 5 -->
<g id="node7" class="node">
<title>5</title>
<polygon fill="#e6e6e6" stroke="#4a4a4a" points="572.5,-793 491.5,-793 491.5,-757 572.5,-757 572.5,-793"/>
<text text-anchor="middle" x="532" y="-771.3" font-family="Times,serif" font-size="14.00" fill="#4a4a4a">5: jmp(7)</text>
</g>
<!-- 4&#45;&gt;5 -->
<g id="edge6" class="edge">
<title>4&#45;&gt;5</title>
<path fill="none" stroke="#a2a2a2" stroke-width="1.5" d="M544.2342,-873.7573C546.5962,-868.1988 548.8049,-861.9754 550,-856 553.9223,-836.3884 554.5951,-830.465 550,-811 549.3227,-808.1309 548.3798,-805.2298 547.2772,-802.3851"/>
<polygon fill="#a2a2a2" stroke="#a2a2a2" stroke-width="1.5" points="550.3719,-800.7337 543.0675,-793.0594 543.9919,-803.6138 550.3719,-800.7337"/>
</g>
<!-- 4&#45;&gt;5 -->
<g id="edge18" class="edge">
<title>4&#45;&gt;5</title>
<path fill="none" stroke="#f60000" stroke-width="3.5" d="M487.2649,-885.2721C453.5246,-879.4256 412.5038,-869.7249 402,-856 389.845,-840.1175 389.8912,-826.9178 402,-811 411.8195,-798.0917 449.0693,-788.613 481.1924,-782.6314"/>
<polygon fill="#f60000" stroke="#f60000" stroke-width="3.5" points="482.1697,-786.0125 491.4005,-780.8123 480.9416,-779.121 482.1697,-786.0125"/>
<text text-anchor="middle" x="457" y="-844.8" font-family="Times,serif" font-size="14.00" fill="#f60000">@4</text>
<text text-anchor="middle" x="457" y="-829.8" font-family="Times,serif" font-size="14.00" fill="#f60000">load(D)</text>
<text text-anchor="middle" x="457" y="-814.8" font-family="Times,serif" font-size="14.00" fill="#f60000"># element(D,G)</text>
</g>
<!-- 4&#45;&gt;5 -->
<g id="edge32" class="edge">
<title>4&#45;&gt;5</title>
<path fill="none" stroke="#00934a" stroke-width="3" stroke-dasharray="5,2" d="M532.5724,-873.7185C531.9265,-868.0506 531.3199,-861.7765 531,-856 529.8023,-834.3752 530.4075,-809.4557 531.0798,-793.0309"/>
<text text-anchor="middle" x="538.5" y="-829.8" font-family="Times,serif" font-size="14.00" fill="#00934a">t0</text>
</g>
<!-- 7 -->
<g id="node8" class="node">
<title>7</title>
<polygon fill="#e6e6e6" stroke="#4a4a4a" points="549,-676 439,-676 439,-640 549,-640 549,-676"/>
<text text-anchor="middle" x="494" y="-654.3" font-family="Times,serif" font-size="14.00" fill="#4a4a4a">7: beqz(x,10)</text>
</g>
<!-- 6&#45;&gt;7 -->
<g id="edge8" class="edge">
<title>6&#45;&gt;7</title>
<path fill="none" stroke="#a2a2a2" stroke-width="1.5" d="M621.0528,-36.1657C626.0056,-41.4419 630.7749,-47.5389 634,-54 650.5118,-87.0798 648,-99.0282 648,-136 648,-526 648,-526 648,-526 648,-573.3119 637.4803,-590.7019 602,-622 589.7872,-632.7732 574.2475,-640.3409 558.7878,-645.6505"/>
<polygon fill="#a2a2a2" stroke="#a2a2a2" stroke-width="1.5" points="557.6871,-642.3276 549.2027,-648.6731 559.7924,-649.0035 557.6871,-642.3276"/>
</g>
<!-- 6&#45;&gt;7 -->
<g id="edge25" class="edge">
<title>6&#45;&gt;7</title>
<path fill="none" stroke="#f60000" stroke-width="3.5" d="M547.8035,-22.7618C401.8272,-36.7747 0,-80.3976 0,-136 0,-526 0,-526 0,-526 0,-613.7085 294.3269,-644.6616 428.6088,-654.2194"/>
<polygon fill="#f60000" stroke="#f60000" stroke-width="3.5" points="428.5518,-657.7238 438.7699,-654.9235 429.0357,-650.7405 428.5518,-657.7238"/>
<text text-anchor="middle" x="50.5" y="-346.8" font-family="Times,serif" font-size="14.00" fill="#f60000">@11</text>
<text text-anchor="middle" x="50.5" y="-331.8" font-family="Times,serif" font-size="14.00" fill="#f60000"># update(F,H)</text>
<text text-anchor="middle" x="50.5" y="-316.8" font-family="Times,serif" font-size="14.00" fill="#f60000">store(F)</text>
</g>
<!-- 5&#45;&gt;7 -->
<g id="edge7" class="edge">
<title>5&#45;&gt;7</title>
<path fill="none" stroke="#a2a2a2" stroke-width="1.5" d="M542.092,-756.9303C550.1953,-739.8117 558.619,-713.8418 548,-694 545.8177,-689.9223 542.947,-686.2268 539.6646,-682.8957"/>
<polygon fill="#a2a2a2" stroke="#a2a2a2" stroke-width="1.5" points="541.7745,-680.0923 531.9291,-676.1784 537.1848,-685.3777 541.7745,-680.0923"/>
</g>
<!-- 5&#45;&gt;7 -->
<g id="edge19" class="edge">
<title>5&#45;&gt;7</title>
<path fill="none" stroke="#f60000" stroke-width="3.5" d="M491.3601,-767.296C462.6494,-760.9315 427.7784,-751.0098 419,-739 407.1979,-722.8535 408.3485,-710.9277 419,-694 422.0287,-689.1866 425.9001,-685.0023 430.2831,-681.3673"/>
<polygon fill="#f60000" stroke="#f60000" stroke-width="3.5" points="432.5424,-684.0551 438.6539,-675.4005 428.4793,-678.355 432.5424,-684.0551"/>
<text text-anchor="middle" x="445.5" y="-727.8" font-family="Times,serif" font-size="14.00" fill="#f60000">@5</text>
<text text-anchor="middle" x="445.5" y="-712.8" font-family="Times,serif" font-size="14.00" fill="#f60000">start(1)</text>
<text text-anchor="middle" x="445.5" y="-697.8" font-family="Times,serif" font-size="14.00" fill="#f60000">pc(7)</text>
</g>
<!-- 5&#45;&gt;7 -->
<g id="edge33" class="edge">
<title>5&#45;&gt;7</title>
<path fill="none" stroke="#00934a" stroke-width="3" stroke-dasharray="5,2" d="M507.5942,-756.691C502.5043,-751.574 497.8298,-745.5879 495,-739 486.341,-718.8419 487.8638,-693.1731 490.3748,-676.1953"/>
<text text-anchor="middle" x="502.5" y="-712.8" font-family="Times,serif" font-size="14.00" fill="#00934a">t0</text>
</g>
<!-- 5&#45;&gt;7 -->
<g id="edge34" class="edge">
<title>5&#45;&gt;7</title>
<path fill="none" stroke="#4363d8" stroke-width="3" stroke-dasharray="5,2" d="M527.8869,-756.7398C523.9538,-740.1607 517.52,-715.1433 510,-694 507.8914,-688.0715 505.232,-681.7547 502.6899,-676.0943"/>
<text text-anchor="middle" x="531.5" y="-712.8" font-family="Times,serif" font-size="14.00" fill="#4363d8">t1</text>
</g>
<!-- 8 -->
<g id="node9" class="node">
<title>8</title>
<polygon fill="#e6e6e6" stroke="#4a4a4a" points="392,-544 288,-544 288,-508 392,-508 392,-544"/>
<text text-anchor="middle" x="340" y="-522.3" font-family="Times,serif" font-size="14.00" fill="#4a4a4a">8: store(y,w)</text>
</g>
<!-- 7&#45;&gt;8 -->
<g id="edge9" class="edge">
<title>7&#45;&gt;8</title>
<path fill="none" stroke="#a2a2a2" stroke-width="1.5" d="M438.6777,-654.997C359.1076,-650.1044 220.1869,-639.1961 205,-622 187.3477,-602.0123 188.7537,-583.1464 205,-562 214.301,-549.8937 247.095,-540.989 278.0299,-535.0644"/>
<polygon fill="#a2a2a2" stroke="#a2a2a2" stroke-width="1.5" points="278.7691,-538.4873 287.9762,-533.2452 277.5097,-531.6015 278.7691,-538.4873"/>
</g>
<!-- 7&#45;&gt;8 -->
<g id="edge20" class="edge">
<title>7&#45;&gt;8</title>
<path fill="none" stroke="#f60000" stroke-width="3.5" d="M438.7739,-654.4502C364.166,-649.0829 238.8467,-637.8232 225,-622 207.4389,-601.9321 209.2097,-583.489 225,-562 231.883,-552.6329 254.4596,-544.6146 277.8082,-538.5391"/>
<polygon fill="#f60000" stroke="#f60000" stroke-width="3.5" points="278.9553,-541.8607 287.8185,-536.0561 277.2699,-535.0666 278.9553,-541.8607"/>
<text text-anchor="middle" x="271.5" y="-610.8" font-family="Times,serif" font-size="14.00" fill="#f60000">@6</text>
<text text-anchor="middle" x="271.5" y="-595.8" font-family="Times,serif" font-size="14.00" fill="#f60000"># cond(B=0)</text>
<text text-anchor="middle" x="271.5" y="-580.8" font-family="Times,serif" font-size="14.00" fill="#f60000">start(2)</text>
<text text-anchor="middle" x="271.5" y="-565.8" font-family="Times,serif" font-size="14.00" fill="#f60000">pc(8)</text>
</g>
<!-- 7&#45;&gt;8 -->
<g id="edge26" class="edge">
<title>7&#45;&gt;8</title>
<path fill="none" stroke="#f60000" stroke-width="3.5" d="M438.8196,-652.1648C400.1538,-646.8114 353.2785,-637.338 341,-622 325.9407,-603.1882 327.5717,-575.0063 331.8445,-554.0375"/>
<polygon fill="#f60000" stroke="#f60000" stroke-width="3.5" points="335.2977,-554.6416 334.1687,-544.1071 328.4818,-553.0464 335.2977,-554.6416"/>
<text text-anchor="middle" x="387.5" y="-610.8" font-family="Times,serif" font-size="14.00" fill="#f60000">@12</text>
<text text-anchor="middle" x="387.5" y="-595.8" font-family="Times,serif" font-size="14.00" fill="#f60000"># cond(B=0)</text>
<text text-anchor="middle" x="387.5" y="-580.8" font-family="Times,serif" font-size="14.00" fill="#f60000">start(4)</text>
<text text-anchor="middle" x="387.5" y="-565.8" font-family="Times,serif" font-size="14.00" fill="#f60000">pc(8)</text>
</g>
<!-- 7&#45;&gt;8 -->
<g id="edge35" class="edge">
<title>7&#45;&gt;8</title>
<path fill="none" stroke="#00934a" stroke-width="3" stroke-dasharray="5,2" d="M472.3314,-639.9734C466.8076,-634.611 461.2406,-628.4363 457,-622 441.2876,-598.152 454.1972,-582.191 434,-562 422.6299,-550.6334 407.2919,-542.7871 392.3064,-537.3989"/>
<text text-anchor="middle" x="464.5" y="-588.3" font-family="Times,serif" font-size="14.00" fill="#00934a">t0</text>
</g>
<!-- 7&#45;&gt;8 -->
<g id="edge36" class="edge">
<title>7&#45;&gt;8</title>
<path fill="none" stroke="#4363d8" stroke-width="3" stroke-dasharray="5,2" d="M495.0346,-639.877C495.2255,-618.4237 492.1287,-582.9708 472,-562 460.7737,-550.304 423.9909,-540.8457 392.0969,-534.564"/>
<text text-anchor="middle" x="502.5" y="-588.3" font-family="Times,serif" font-size="14.00" fill="#4363d8">t1</text>
</g>
<!-- 7&#45;&gt;8 -->
<g id="edge37" class="edge">
<title>7&#45;&gt;8</title>
<path fill="none" stroke="#f96714" stroke-width="3" stroke-dasharray="5,2" d="M504.517,-639.9604C515.247,-618.9161 527.9788,-584.1847 510,-562 495.3268,-543.8941 436.4453,-534.5303 392.0608,-529.9513"/>
<text text-anchor="middle" x="527.5" y="-588.3" font-family="Times,serif" font-size="14.00" fill="#f96714">t2</text>
</g>
<!-- 7&#45;&gt;8 -->
<g id="edge44" class="edge">
<title>7&#45;&gt;8</title>
<path fill="none" stroke="#ce5b78" stroke-width="3" stroke-dasharray="5,2" d="M524.5714,-639.7991C530.402,-634.8102 535.7062,-628.8532 539,-622 550.5517,-597.9652 556.0957,-582.4658 539,-562 520.6558,-540.0395 444.9951,-531.4496 392.4437,-528.1066"/>
<text text-anchor="middle" x="557.5" y="-588.3" font-family="Times,serif" font-size="14.00" fill="#ce5b78">t4</text>
</g>
<!-- 10 -->
<g id="node10" class="node">
<title>10</title>
<polygon fill="#e6e6e6" stroke="#4a4a4a" points="508,-154 404,-154 404,-118 508,-118 508,-154"/>
<text text-anchor="middle" x="456" y="-132.3" font-family="Times,serif" font-size="14.00" fill="#4a4a4a">10: load(y,v)</text>
</g>
<!-- 7&#45;&gt;10 -->
<g id="edge10" class="edge">
<title>7&#45;&gt;10</title>
<path fill="none" stroke="#a2a2a2" stroke-width="1.5" d="M544.5614,-639.9612C553.4848,-635.1337 562.1094,-629.1998 569,-622 601.0785,-588.4819 610,-572.395 610,-526 610,-526 610,-526 610,-273 610,-227.1877 616.8331,-205.9457 585,-173 575.2609,-162.9205 546.1826,-154.1428 518.0944,-147.6695"/>
<polygon fill="#a2a2a2" stroke="#a2a2a2" stroke-width="1.5" points="518.7551,-144.231 508.2338,-145.4776 517.2361,-151.0642 518.7551,-144.231"/>
</g>
<!-- 9 -->
<g id="node11" class="node">
<title>9</title>
<polygon fill="#e6e6e6" stroke="#4a4a4a" points="375,-412 285,-412 285,-376 375,-376 375,-412"/>
<text text-anchor="middle" x="330" y="-390.3" font-family="Times,serif" font-size="14.00" fill="#4a4a4a">9: jmp(11)</text>
</g>
<!-- 8&#45;&gt;9 -->
<g id="edge11" class="edge">
<title>8&#45;&gt;9</title>
<path fill="none" stroke="#a2a2a2" stroke-width="1.5" d="M338.6305,-507.9227C336.9568,-485.83 334.1056,-448.194 332.1411,-422.2629"/>
<polygon fill="#a2a2a2" stroke="#a2a2a2" stroke-width="1.5" points="335.6305,-421.9895 331.385,-412.2825 328.6505,-422.5184 335.6305,-421.9895"/>
</g>
<!-- 8&#45;&gt;9 -->
<g id="edge21" class="edge">
<title>8&#45;&gt;9</title>
<path fill="none" stroke="#f60000" stroke-width="3.5" d="M345.2977,-507.6829C350.1178,-488.1627 355.5604,-456.4854 349,-430 348.2991,-427.1704 347.3308,-424.3179 346.1994,-421.5235"/>
<polygon fill="#f60000" stroke="#f60000" stroke-width="3.5" points="349.3097,-419.9132 341.8763,-412.3636 342.9793,-422.9009 349.3097,-419.9132"/>
<text text-anchor="middle" x="402.5" y="-478.8" font-family="Times,serif" font-size="14.00" fill="#f60000">@7</text>
<text text-anchor="middle" x="402.5" y="-463.8" font-family="Times,serif" font-size="14.00" fill="#f60000">commit(1)</text>
<text text-anchor="middle" x="402.5" y="-448.8" font-family="Times,serif" font-size="14.00" fill="#f60000"># update(F,G)</text>
<text text-anchor="middle" x="402.5" y="-433.8" font-family="Times,serif" font-size="14.00" fill="#f60000">store(F)</text>
</g>
<!-- 8&#45;&gt;9 -->
<g id="edge27" class="edge">
<title>8&#45;&gt;9</title>
<path fill="none" stroke="#f60000" stroke-width="3.5" d="M392.3132,-516.0751C419.2218,-509.7948 448.0268,-500.8227 456,-490 471.8167,-468.5304 472.0585,-451.2893 456,-430 447.1069,-418.2102 414.8294,-409.1199 385.1723,-403.0231"/>
<polygon fill="#f60000" stroke="#f60000" stroke-width="3.5" points="385.7403,-399.5679 375.2526,-401.0707 384.3885,-406.4361 385.7403,-399.5679"/>
<text text-anchor="middle" x="518.5" y="-471.3" font-family="Times,serif" font-size="14.00" fill="#f60000">@13</text>
<text text-anchor="middle" x="518.5" y="-456.3" font-family="Times,serif" font-size="14.00" fill="#f60000"># update(F,H)</text>
<text text-anchor="middle" x="518.5" y="-441.3" font-family="Times,serif" font-size="14.00" fill="#f60000">store(F)</text>
</g>
<!-- 8&#45;&gt;9 -->
<g id="edge38" class="edge">
<title>8&#45;&gt;9</title>
<path fill="none" stroke="#00934a" stroke-width="3" stroke-dasharray="5,2" d="M287.788,-514.3405C264.5071,-507.9818 240.7916,-499.4792 234,-490 218.4689,-468.3229 218.8108,-451.918 234,-430 240.2861,-420.9292 263.0059,-412.1995 284.7645,-405.6086"/>
<text text-anchor="middle" x="241.5" y="-456.3" font-family="Times,serif" font-size="14.00" fill="#00934a">t0</text>
</g>
<!-- 8&#45;&gt;9 -->
<g id="edge39" class="edge">
<title>8&#45;&gt;9</title>
<path fill="none" stroke="#f96714" stroke-width="3" stroke-dasharray="5,2" d="M290.0663,-507.9843C282.8645,-503.236 276.4097,-497.324 272,-490 258.2452,-467.1545 259.0366,-453.3037 272,-430 275.9753,-422.8538 282.0212,-416.9445 288.7327,-412.1246"/>
<text text-anchor="middle" x="279.5" y="-456.3" font-family="Times,serif" font-size="14.00" fill="#f96714">t2</text>
</g>
<!-- 8&#45;&gt;9 -->
<g id="edge45" class="edge">
<title>8&#45;&gt;9</title>
<path fill="none" stroke="#ce5b78" stroke-width="3" stroke-dasharray="5,2" d="M323.5299,-507.8045C319.6435,-502.4414 316.0399,-496.3086 314,-490 305.7955,-464.6268 308.4642,-456.0857 314,-430 315.2778,-423.9786 317.6347,-417.7415 320.154,-412.1846"/>
<text text-anchor="middle" x="321.5" y="-456.3" font-family="Times,serif" font-size="14.00" fill="#ce5b78">t4</text>
</g>
<!-- 10&#45;&gt;6 -->
<g id="edge24" class="edge">
<title>10&#45;&gt;6</title>
<path fill="none" stroke="#f60000" stroke-width="3.5" d="M478.2362,-117.7547C498.4974,-101.1327 529.252,-75.9091 556,-54 560.3904,-50.4039 565.0283,-46.607 569.5811,-42.881"/>
<polygon fill="#f60000" stroke="#f60000" stroke-width="3.5" points="572.0894,-45.351 577.6122,-36.3094 567.6565,-39.9335 572.0894,-45.351"/>
<text text-anchor="middle" x="595" y="-87.8" font-family="Times,serif" font-size="14.00" fill="#f60000">@10</text>
<text text-anchor="middle" x="595" y="-72.8" font-family="Times,serif" font-size="14.00" fill="#f60000">rollback(0)</text>
<text text-anchor="middle" x="595" y="-57.8" font-family="Times,serif" font-size="14.00" fill="#f60000">pc(6)</text>
</g>
<!-- 11 -->
<g id="node12" class="node">
<title>11</title>
<polygon fill="#e6e6e6" stroke="#4a4a4a" points="372.1894,-265.5442 372.1894,-280.4558 348.647,-291 315.353,-291 291.8106,-280.4558 291.8106,-265.5442 315.353,-255 348.647,-255 372.1894,-265.5442"/>
<polygon fill="none" stroke="#4a4a4a" points="376.1984,-262.9552 376.1984,-283.0448 349.5055,-295 314.4945,-295 287.8016,-283.0448 287.8016,-262.9552 314.4945,-251 349.5055,-251 376.1984,-262.9552"/>
<text text-anchor="middle" x="332" y="-269.3" font-family="Times,serif" font-size="14.00" fill="#4a4a4a">11: ⊥</text>
</g>
<!-- 10&#45;&gt;11 -->
<g id="edge13" class="edge">
<title>10&#45;&gt;11</title>
<path fill="none" stroke="#a2a2a2" stroke-width="1.5" d="M458.5337,-154.2641C460.4314,-175.5626 460.1408,-210.6895 442,-233 434.1909,-242.604 408.9024,-252.126 384.5397,-259.469"/>
<polygon fill="#a2a2a2" stroke="#a2a2a2" stroke-width="1.5" points="383.5489,-256.112 374.9296,-262.2731 385.5097,-262.8318 383.5489,-256.112"/>
</g>
<!-- 10&#45;&gt;11 -->
<g id="edge30" class="edge">
<title>10&#45;&gt;11</title>
<path fill="none" stroke="#f60000" stroke-width="3.5" d="M464.3206,-154.0469C472.669,-175.1366 482.0537,-210.0627 465,-233 455.2543,-246.108 418.5721,-256.5452 386.1946,-263.4671"/>
<polygon fill="#f60000" stroke="#f60000" stroke-width="3.5" points="385.4073,-260.0557 376.3192,-265.5015 386.8197,-266.9117 385.4073,-260.0557"/>
<text text-anchor="middle" x="528" y="-214.3" font-family="Times,serif" font-size="14.00" fill="#f60000">@16</text>
<text text-anchor="middle" x="528" y="-199.3" font-family="Times,serif" font-size="14.00" fill="#f60000">load(D)</text>
<text text-anchor="middle" x="528" y="-184.3" font-family="Times,serif" font-size="14.00" fill="#f60000"># element(D,I)</text>
</g>
<!-- 9&#45;&gt;11 -->
<g id="edge12" class="edge">
<title>9&#45;&gt;11</title>
<path fill="none" stroke="#a2a2a2" stroke-width="1.5" d="M347.0953,-375.8909C351.1311,-370.5282 354.8753,-364.374 357,-358 363.3246,-339.0263 362.5137,-332.225 357,-313 356.147,-310.0259 355.0013,-307.0584 353.6679,-304.1604"/>
<polygon fill="#a2a2a2" stroke="#a2a2a2" stroke-width="1.5" points="356.6922,-302.3934 348.8976,-295.2173 350.5158,-305.6878 356.6922,-302.3934"/>
</g>
<!-- 9&#45;&gt;11 -->
<g id="edge22" class="edge">
<title>9&#45;&gt;11</title>
<path fill="none" stroke="#f60000" stroke-width="3.5" d="M359.9045,-375.6883C365.6049,-370.7052 370.7878,-364.7785 374,-358 382.5646,-339.9266 381.8784,-331.3829 374,-313 371.8184,-307.9096 368.6356,-303.1602 364.9824,-298.8401"/>
<polygon fill="#f60000" stroke="#f60000" stroke-width="3.5" points="367.4526,-296.359 358.0135,-291.547 362.3916,-301.195 367.4526,-296.359"/>
<text text-anchor="middle" x="407.5" y="-346.8" font-family="Times,serif" font-size="14.00" fill="#f60000">@8</text>
<text text-anchor="middle" x="407.5" y="-331.8" font-family="Times,serif" font-size="14.00" fill="#f60000">start(3)</text>
<text text-anchor="middle" x="407.5" y="-316.8" font-family="Times,serif" font-size="14.00" fill="#f60000">pc(11)</text>
</g>
<!-- 9&#45;&gt;11 -->
<g id="edge28" class="edge">
<title>9&#45;&gt;11</title>
<path fill="none" stroke="#f60000" stroke-width="3.5" d="M375.2228,-384.5113C401.2474,-378.0326 430.2861,-368.7024 438,-358 449.6942,-341.7752 449.3749,-329.4503 438,-313 431.3193,-303.3385 407.7992,-293.9853 384.6069,-286.7558"/>
<polygon fill="#f60000" stroke="#f60000" stroke-width="3.5" points="385.3215,-283.3161 374.7374,-283.7928 383.3087,-290.0205 385.3215,-283.3161"/>
<text text-anchor="middle" x="473.5" y="-346.8" font-family="Times,serif" font-size="14.00" fill="#f60000">@14</text>
<text text-anchor="middle" x="473.5" y="-331.8" font-family="Times,serif" font-size="14.00" fill="#f60000">start(5)</text>
<text text-anchor="middle" x="473.5" y="-316.8" font-family="Times,serif" font-size="14.00" fill="#f60000">pc(11)</text>
</g>
<!-- 9&#45;&gt;11 -->
<g id="edge40" class="edge">
<title>9&#45;&gt;11</title>
<path fill="none" stroke="#00934a" stroke-width="3" stroke-dasharray="5,2" d="M284.8839,-388.4113C248.5415,-382.8732 201.6489,-373.0233 190,-358 177.7447,-342.1947 177.9264,-328.9445 190,-313 201.8668,-297.3286 250.5562,-286.0694 287.6433,-279.5656"/>
<text text-anchor="middle" x="197.5" y="-331.8" font-family="Times,serif" font-size="14.00" fill="#00934a">t0</text>
</g>
<!-- 9&#45;&gt;11 -->
<g id="edge41" class="edge">
<title>9&#45;&gt;11</title>
<path fill="none" stroke="#f96714" stroke-width="3" stroke-dasharray="5,2" d="M284.7628,-383.5114C260.8411,-376.9518 234.9958,-367.8878 228,-358 216.4486,-341.6732 216.6773,-329.4862 228,-313 235.4473,-302.1565 264.3334,-291.5452 289.7778,-283.9796"/>
<text text-anchor="middle" x="235.5" y="-331.8" font-family="Times,serif" font-size="14.00" fill="#f96714">t2</text>
</g>
<!-- 9&#45;&gt;11 -->
<g id="edge42" class="edge">
<title>9&#45;&gt;11</title>
<path fill="none" stroke="#2a4b7c" stroke-width="3" stroke-dasharray="5,2" d="M284.8733,-376.8022C277.3317,-371.8852 270.5052,-365.7031 266,-358 255.9031,-340.7358 256.1847,-330.4259 266,-313 272.5097,-301.4428 283.855,-292.8423 295.3222,-286.6401"/>
<text text-anchor="middle" x="273.5" y="-331.8" font-family="Times,serif" font-size="14.00" fill="#2a4b7c">t3</text>
</g>
<!-- 9&#45;&gt;11 -->
<g id="edge46" class="edge">
<title>9&#45;&gt;11</title>
<path fill="none" stroke="#ce5b78" stroke-width="3" stroke-dasharray="5,2" d="M313.5299,-375.8045C309.6435,-370.4414 306.0399,-364.3086 304,-358 297.8466,-338.9701 297.9872,-332.0748 304,-313 306.0388,-306.5323 309.5377,-300.2007 313.385,-294.5517"/>
<text text-anchor="middle" x="311.5" y="-331.8" font-family="Times,serif" font-size="14.00" fill="#ce5b78">t4</text>
</g>
<!-- 9&#45;&gt;11 -->
<g id="edge47" class="edge">
<title>9&#45;&gt;11</title>
<path fill="none" stroke="#800000" stroke-width="3" stroke-dasharray="5,2" d="M330.2994,-375.8851C330.6547,-354.3927 331.247,-318.5588 331.6304,-295.3596"/>
<text text-anchor="middle" x="339.5" y="-331.8" font-family="Times,serif" font-size="14.00" fill="#800000">t5</text>
</g>
<!-- 11&#45;&gt;10 -->
<g id="edge23" class="edge">
<title>11&#45;&gt;10</title>
<path fill="none" stroke="#f60000" stroke-width="3.5" d="M289.153,-262.3414C262.8431,-254.8327 232.7436,-244.1618 225,-233 209.7996,-211.0898 207.2291,-192.8823 225,-173 248.8441,-146.3231 349.8423,-161.6433 385,-155 387.9759,-154.4377 391.0102,-153.8163 394.0667,-153.1517"/>
<polygon fill="#f60000" stroke="#f60000" stroke-width="3.5" points="394.8967,-156.5523 403.8586,-150.9011 393.3286,-149.7301 394.8967,-156.5523"/>
<text text-anchor="middle" x="264" y="-221.8" font-family="Times,serif" font-size="14.00" fill="#f60000">@9</text>
<text text-anchor="middle" x="264" y="-206.8" font-family="Times,serif" font-size="14.00" fill="#f60000">commit(3)</text>
<text text-anchor="middle" x="264" y="-191.8" font-family="Times,serif" font-size="14.00" fill="#f60000">rollback(2)</text>
<text text-anchor="middle" x="264" y="-176.8" font-family="Times,serif" font-size="14.00" fill="#f60000">pc(10)</text>
</g>
<!-- 11&#45;&gt;10 -->
<g id="edge29" class="edge">
<title>11&#45;&gt;10</title>
<path fill="none" stroke="#f60000" stroke-width="3.5" d="M323.0271,-250.7283C315.767,-228.7183 309.231,-195.2077 326,-173 327.1583,-171.466 361.2044,-161.8048 394.16,-152.7401"/>
<polygon fill="#f60000" stroke="#f60000" stroke-width="3.5" points="395.1365,-156.1016 403.8548,-150.0815 393.2852,-149.3508 395.1365,-156.1016"/>
<text text-anchor="middle" x="365" y="-221.8" font-family="Times,serif" font-size="14.00" fill="#f60000">@15</text>
<text text-anchor="middle" x="365" y="-206.8" font-family="Times,serif" font-size="14.00" fill="#f60000">commit(5)</text>
<text text-anchor="middle" x="365" y="-191.8" font-family="Times,serif" font-size="14.00" fill="#f60000">rollback(4)</text>
<text text-anchor="middle" x="365" y="-176.8" font-family="Times,serif" font-size="14.00" fill="#f60000">pc(10)</text>
</g>
<!-- 11&#45;&gt;10 -->
<g id="edge43" class="edge">
<title>11&#45;&gt;10</title>
<path fill="none" stroke="#00934a" stroke-width="3" stroke-dasharray="5,2" d="M368.4252,-259.4357C381.2038,-253.1069 394.6796,-244.4043 404,-233 421.701,-211.3414 409.1622,-197.3092 423,-173 426.8323,-166.2677 432.0487,-159.696 437.2023,-154.0041"/>
<text text-anchor="middle" x="430.5" y="-199.3" font-family="Times,serif" font-size="14.00" fill="#00934a">t0</text>
</g>
<!-- conf_11 -->
<g id="node14" class="node">
<title>conf_11</title>
<polygon fill="none" stroke="#4a4a4a" points="370,-155 28,-155 28,-117 376,-117 376,-149 370,-155"/>
<polyline fill="none" stroke="#4a4a4a" points="370,-155 370,-149 "/>
<polyline fill="none" stroke="#4a4a4a" points="376,-149 370,-149 "/>
<text text-anchor="middle" x="202" y="-139.8" font-family="Times,serif" font-size="14.00" fill="#4a4a4a">mem: {&#39;0&#39;: &#39;H&#39;, &#39;1&#39;: &#39;C&#39;, &#39;2&#39;: &#39;E&#39;}</text>
<text text-anchor="middle" x="202" y="-124.8" font-family="Times,serif" font-size="14.00" fill="#4a4a4a">reg: {&#39;pc&#39;: &#39;11&#39;, &#39;x&#39;: &#39;B&#39;, &#39;v&#39;: &#39;D&#39;, &#39;w&#39;: &#39;F&#39;, &#39;y&#39;: &#39;I&#39;}</text>
</g>
<!-- 11&#45;&gt;conf_11 -->
<g id="edge49" class="edge">
<title>11&#45;&gt;conf_11</title>
<path fill="none" stroke="#c0c0c0" stroke-width="2" stroke-dasharray="1,5" d="M287.694,-264.0405C256.6385,-256.7954 218.9663,-245.7304 209,-233 191.7228,-210.931 193.9086,-176.697 197.581,-155.3539"/>
</g>
<!-- conf_0 -->
<g id="node13" class="node">
<title>conf_0</title>
<polygon fill="none" stroke="#4a4a4a" points="709,-1468 479,-1468 479,-1430 715,-1430 715,-1462 709,-1468"/>
<polyline fill="none" stroke="#4a4a4a" points="709,-1468 709,-1462 "/>
<polyline fill="none" stroke="#4a4a4a" points="715,-1462 709,-1462 "/>
<text text-anchor="middle" x="597" y="-1452.8" font-family="Times,serif" font-size="14.00" fill="#4a4a4a">mem: {&#39;0&#39;: &#39;A&#39;, &#39;1&#39;: &#39;C&#39;, &#39;2&#39;: &#39;E&#39;}</text>
<text text-anchor="middle" x="597" y="-1437.8" font-family="Times,serif" font-size="14.00" fill="#4a4a4a">reg: {&#39;pc&#39;: &#39;0&#39;, &#39;y&#39;: &#39;H&#39;}</text>
</g>
<!-- conf_0&#45;&gt;0 -->
<g id="edge48" class="edge">
<title>conf_0&#45;&gt;0</title>
<path fill="none" stroke="#c0c0c0" stroke-width="2" stroke-dasharray="1,5" d="M597,-1429.9432C597,-1418.6377 597,-1404.3833 597,-1393.2269"/>
</g>
</g>
</svg>
