<?xml version="1.0" encoding="UTF-8" standalone="no"?>
<!DOCTYPE svg PUBLIC "-//W3C//DTD SVG 1.1//EN"
 "http://www.w3.org/Graphics/SVG/1.1/DTD/svg11.dtd">
<!-- Generated by graphviz version 2.40.1 (20161225.0304)
 -->
<!-- Title: %3 Pages: 1 -->
<svg width="543pt" height="1294pt"
 viewBox="0.00 0.00 543.27 1294.00" xmlns="http://www.w3.org/2000/svg" xmlns:xlink="http://www.w3.org/1999/xlink">
<g id="graph0" class="graph" transform="scale(1 1) rotate(0) translate(4 1290)">
<title>%3</title>
<polygon fill="#ffffff" stroke="transparent" points="-4,4 -4,-1290 539.2748,-1290 539.2748,4 -4,4"/>
<!-- 0 -->
<g id="node1" class="node">
<title>0</title>
<polygon fill="#e6e6e6" stroke="#4a4a4a" points="504.7748,-1286 407.7748,-1286 407.7748,-1250 504.7748,-1250 504.7748,-1286"/>
<text text-anchor="middle" x="456.2748" y="-1264.3" font-family="Times,serif" font-size="14.00" fill="#4a4a4a">0: load(x,0)</text>
</g>
<!-- 1 -->
<g id="node2" class="node">
<title>1</title>
<polygon fill="#e6e6e6" stroke="#4a4a4a" points="503.7748,-1184 408.7748,-1184 408.7748,-1148 503.7748,-1148 503.7748,-1184"/>
<text text-anchor="middle" x="456.2748" y="-1162.3" font-family="Times,serif" font-size="14.00" fill="#4a4a4a">1: load(v,1)</text>
</g>
<!-- 0&#45;&gt;1 -->
<g id="edge1" class="edge">
<title>0&#45;&gt;1</title>
<path fill="none" stroke="#a2a2a2" stroke-width="1.5" d="M455.0608,-1249.6941C454.7378,-1244.0251 454.4346,-1237.7566 454.2748,-1232 453.9049,-1218.6718 453.9049,-1215.3282 454.2748,-1202 454.3422,-1199.5714 454.4351,-1197.0517 454.5443,-1194.5244"/>
<polygon fill="#a2a2a2" stroke="#a2a2a2" stroke-width="1.5" points="458.0515,-1194.4699 455.0608,-1184.3059 451.0604,-1194.1165 458.0515,-1194.4699"/>
</g>
<!-- 0&#45;&gt;1 -->
<g id="edge14" class="edge">
<title>0&#45;&gt;1</title>
<path fill="none" stroke="#f60000" stroke-width="3.5" d="M456.2748,-1249.7644C456.2748,-1234.317 456.2748,-1211.9149 456.2748,-1194.164"/>
<polygon fill="#f60000" stroke="#f60000" stroke-width="3.5" points="459.7749,-1194.0776 456.2748,-1184.0777 452.7749,-1194.0777 459.7749,-1194.0776"/>
<text text-anchor="middle" x="481.2748" y="-1220.8" font-family="Times,serif" font-size="14.00" fill="#f60000">@0</text>
<text text-anchor="middle" x="481.2748" y="-1205.8" font-family="Times,serif" font-size="14.00" fill="#f60000">load(0)</text>
</g>
<!-- 2 -->
<g id="node3" class="node">
<title>2</title>
<polygon fill="#e6e6e6" stroke="#4a4a4a" points="505.7748,-1082 406.7748,-1082 406.7748,-1046 505.7748,-1046 505.7748,-1082"/>
<text text-anchor="middle" x="456.2748" y="-1060.3" font-family="Times,serif" font-size="14.00" fill="#4a4a4a">2: load(w,2)</text>
</g>
<!-- 1&#45;&gt;2 -->
<g id="edge2" class="edge">
<title>1&#45;&gt;2</title>
<path fill="none" stroke="#a2a2a2" stroke-width="1.5" d="M455.0608,-1147.6941C454.7378,-1142.0251 454.4346,-1135.7566 454.2748,-1130 453.9049,-1116.6718 453.9049,-1113.3282 454.2748,-1100 454.3422,-1097.5714 454.4351,-1095.0517 454.5443,-1092.5244"/>
<polygon fill="#a2a2a2" stroke="#a2a2a2" stroke-width="1.5" points="458.0515,-1092.4699 455.0608,-1082.3059 451.0604,-1092.1165 458.0515,-1092.4699"/>
</g>
<!-- 1&#45;&gt;2 -->
<g id="edge15" class="edge">
<title>1&#45;&gt;2</title>
<path fill="none" stroke="#f60000" stroke-width="3.5" d="M456.2748,-1147.7644C456.2748,-1132.317 456.2748,-1109.9149 456.2748,-1092.164"/>
<polygon fill="#f60000" stroke="#f60000" stroke-width="3.5" points="459.7749,-1092.0776 456.2748,-1082.0777 452.7749,-1092.0777 459.7749,-1092.0776"/>
<text text-anchor="middle" x="481.2748" y="-1118.8" font-family="Times,serif" font-size="14.00" fill="#f60000">@1</text>
<text text-anchor="middle" x="481.2748" y="-1103.8" font-family="Times,serif" font-size="14.00" fill="#f60000">load(1)</text>
</g>
<!-- 3 -->
<g id="node4" class="node">
<title>3</title>
<polygon fill="#e6e6e6" stroke="#4a4a4a" points="506.7748,-980 405.7748,-980 405.7748,-944 506.7748,-944 506.7748,-980"/>
<text text-anchor="middle" x="456.2748" y="-958.3" font-family="Times,serif" font-size="14.00" fill="#4a4a4a">3: beqz(x,6)</text>
</g>
<!-- 2&#45;&gt;3 -->
<g id="edge3" class="edge">
<title>2&#45;&gt;3</title>
<path fill="none" stroke="#a2a2a2" stroke-width="1.5" d="M455.0608,-1045.6941C454.7378,-1040.0251 454.4346,-1033.7566 454.2748,-1028 453.9049,-1014.6718 453.9049,-1011.3282 454.2748,-998 454.3422,-995.5714 454.4351,-993.0517 454.5443,-990.5244"/>
<polygon fill="#a2a2a2" stroke="#a2a2a2" stroke-width="1.5" points="458.0515,-990.4699 455.0608,-980.3059 451.0604,-990.1165 458.0515,-990.4699"/>
</g>
<!-- 2&#45;&gt;3 -->
<g id="edge16" class="edge">
<title>2&#45;&gt;3</title>
<path fill="none" stroke="#f60000" stroke-width="3.5" d="M456.2748,-1045.7644C456.2748,-1030.317 456.2748,-1007.9149 456.2748,-990.164"/>
<polygon fill="#f60000" stroke="#f60000" stroke-width="3.5" points="459.7749,-990.0776 456.2748,-980.0777 452.7749,-990.0777 459.7749,-990.0776"/>
<text text-anchor="middle" x="481.2748" y="-1016.8" font-family="Times,serif" font-size="14.00" fill="#f60000">@2</text>
<text text-anchor="middle" x="481.2748" y="-1001.8" font-family="Times,serif" font-size="14.00" fill="#f60000">load(2)</text>
</g>
<!-- 4 -->
<g id="node5" class="node">
<title>4</title>
<polygon fill="#e6e6e6" stroke="#4a4a4a" points="440.7748,-863 345.7748,-863 345.7748,-827 440.7748,-827 440.7748,-863"/>
<text text-anchor="middle" x="393.2748" y="-841.3" font-family="Times,serif" font-size="14.00" fill="#4a4a4a">4: load(y,v)</text>
</g>
<!-- 3&#45;&gt;4 -->
<g id="edge4" class="edge">
<title>3&#45;&gt;4</title>
<path fill="none" stroke="#a2a2a2" stroke-width="1.5" d="M416.6977,-943.9333C409.8416,-939.0663 403.5523,-933.1246 399.2748,-926 389.8672,-910.331 388.4475,-889.7656 389.3388,-873.2781"/>
<polygon fill="#a2a2a2" stroke="#a2a2a2" stroke-width="1.5" points="392.8423,-873.3842 390.1975,-863.1248 385.8672,-872.7942 392.8423,-873.3842"/>
</g>
<!-- 3&#45;&gt;4 -->
<g id="edge17" class="edge">
<title>3&#45;&gt;4</title>
<path fill="none" stroke="#f60000" stroke-width="3.5" d="M433.9825,-943.7502C428.5879,-938.4747 423.2409,-932.399 419.2748,-926 409.2542,-909.8324 402.7356,-889.4317 398.7315,-873.1489"/>
<polygon fill="#f60000" stroke="#f60000" stroke-width="3.5" points="402.0832,-872.1036 396.4519,-863.1293 395.2577,-873.6566 402.0832,-872.1036"/>
<text text-anchor="middle" x="445.7748" y="-914.8" font-family="Times,serif" font-size="14.00" fill="#f60000">@3</text>
<text text-anchor="middle" x="445.7748" y="-899.8" font-family="Times,serif" font-size="14.00" fill="#f60000">start(0)</text>
<text text-anchor="middle" x="445.7748" y="-884.8" font-family="Times,serif" font-size="14.00" fill="#f60000">pc(4)</text>
</g>
<!-- 3&#45;&gt;4 -->
<g id="edge31" class="edge">
<title>3&#45;&gt;4</title>
<path fill="none" stroke="#00934a" stroke-width="3" stroke-dasharray="5,2" d="M466.9003,-943.8517C475.5607,-926.438 484.5271,-900.0478 472.2748,-881 465.0179,-869.7182 453.2585,-861.9296 441.0043,-856.569"/>
<text text-anchor="middle" x="487.7748" y="-899.8" font-family="Times,serif" font-size="14.00" fill="#00934a"> t0</text>
</g>
<!-- 6 -->
<g id="node6" class="node">
<title>6</title>
<polygon fill="#e6e6e6" stroke="#4a4a4a" points="185.2748,-36 81.2748,-36 81.2748,0 185.2748,0 185.2748,-36"/>
<text text-anchor="middle" x="133.2748" y="-14.3" font-family="Times,serif" font-size="14.00" fill="#4a4a4a">6: store(y,w)</text>
</g>
<!-- 3&#45;&gt;6 -->
<g id="edge5" class="edge">
<title>3&#45;&gt;6</title>
<path fill="none" stroke="#a2a2a2" stroke-width="1.5" d="M483.5301,-943.7886C489.9376,-938.5938 496.3312,-932.5472 501.2748,-926 524.8015,-894.8417 535.2748,-884.0429 535.2748,-845 535.2748,-845 535.2748,-845 535.2748,-135 535.2748,-65.1298 308.5646,-34.2176 195.6492,-23.1545"/>
<polygon fill="#a2a2a2" stroke="#a2a2a2" stroke-width="1.5" points="195.705,-19.644 185.4171,-22.1759 195.0384,-26.6122 195.705,-19.644"/>
</g>
<!-- 5 -->
<g id="node7" class="node">
<title>5</title>
<polygon fill="#e6e6e6" stroke="#4a4a4a" points="389.7748,-761 308.7748,-761 308.7748,-725 389.7748,-725 389.7748,-761"/>
<text text-anchor="middle" x="349.2748" y="-739.3" font-family="Times,serif" font-size="14.00" fill="#4a4a4a">5: jmp(7)</text>
</g>
<!-- 4&#45;&gt;5 -->
<g id="edge6" class="edge">
<title>4&#45;&gt;5</title>
<path fill="none" stroke="#a2a2a2" stroke-width="1.5" d="M372.1399,-826.8748C367.1876,-821.5983 362.4392,-815.4911 359.2748,-809 353.6187,-797.3979 350.9913,-783.3988 349.8279,-771.2843"/>
<polygon fill="#a2a2a2" stroke="#a2a2a2" stroke-width="1.5" points="353.3146,-770.97 349.1429,-761.231 346.3308,-771.4458 353.3146,-770.97"/>
</g>
<!-- 4&#45;&gt;5 -->
<g id="edge18" class="edge">
<title>4&#45;&gt;5</title>
<path fill="none" stroke="#f60000" stroke-width="3.5" d="M385.4085,-826.7644C378.651,-811.0994 368.8084,-788.2824 361.1016,-770.4168"/>
<polygon fill="#f60000" stroke="#f60000" stroke-width="3.5" points="364.2477,-768.8735 357.073,-761.0777 357.8202,-771.6461 364.2477,-768.8735"/>
<text text-anchor="middle" x="403.2748" y="-797.8" font-family="Times,serif" font-size="14.00" fill="#f60000">@4</text>
<text text-anchor="middle" x="403.2748" y="-782.8" font-family="Times,serif" font-size="14.00" fill="#f60000">load(D)</text>
</g>
<!-- 4&#45;&gt;5 -->
<g id="edge32" class="edge">
<title>4&#45;&gt;5</title>
<path fill="none" stroke="#00934a" stroke-width="3" stroke-dasharray="5,2" d="M418.388,-826.8196C423.614,-821.6986 428.4021,-815.6785 431.2748,-809 436.5432,-796.7517 438.5656,-790.1634 431.2748,-779 422.008,-764.8111 405.7667,-756.1785 390.1701,-750.943"/>
<text text-anchor="middle" x="445.7748" y="-790.3" font-family="Times,serif" font-size="14.00" fill="#00934a"> t0</text>
</g>
<!-- 7 -->
<g id="node8" class="node">
<title>7</title>
<polygon fill="#e6e6e6" stroke="#4a4a4a" points="328.2748,-644 218.2748,-644 218.2748,-608 328.2748,-608 328.2748,-644"/>
<text text-anchor="middle" x="273.2748" y="-622.3" font-family="Times,serif" font-size="14.00" fill="#4a4a4a">7: beqz(x,10)</text>
</g>
<!-- 6&#45;&gt;7 -->
<g id="edge8" class="edge">
<title>6&#45;&gt;7</title>
<path fill="none" stroke="#a2a2a2" stroke-width="1.5" d="M81.0149,-30.3348C57.2728,-36.8979 32.6328,-45.3793 24.2748,-54 -1.8611,-80.9573 .2748,-97.453 .2748,-135 .2748,-509 .2748,-509 .2748,-509 .2748,-546.547 -4.1219,-565.4357 24.2748,-590 37.9822,-601.8575 138.5865,-613.4724 207.645,-620.1748"/>
<polygon fill="#a2a2a2" stroke="#a2a2a2" stroke-width="1.5" points="207.7268,-623.6986 218.0149,-621.1676 208.394,-616.7304 207.7268,-623.6986"/>
</g>
<!-- 6&#45;&gt;7 -->
<g id="edge25" class="edge">
<title>6&#45;&gt;7</title>
<path fill="none" stroke="#f60000" stroke-width="3.5" d="M105.0289,-36.0312C77.0255,-56.3602 38.2748,-92.2199 38.2748,-135 38.2748,-509 38.2748,-509 38.2748,-509 38.2748,-551.5415 54.1889,-565.9427 89.2748,-590 108.3677,-603.0914 163.0493,-612.749 207.8766,-618.747"/>
<polygon fill="#f60000" stroke="#f60000" stroke-width="3.5" points="207.4909,-622.2262 217.8587,-620.0449 208.3936,-615.2846 207.4909,-622.2262"/>
<text text-anchor="middle" x="66.7748" y="-337.3" font-family="Times,serif" font-size="14.00" fill="#f60000">@11</text>
<text text-anchor="middle" x="66.7748" y="-322.3" font-family="Times,serif" font-size="14.00" fill="#f60000">store(F)</text>
</g>
<!-- 5&#45;&gt;7 -->
<g id="edge7" class="edge">
<title>5&#45;&gt;7</title>
<path fill="none" stroke="#a2a2a2" stroke-width="1.5" d="M308.6559,-732.5859C285.9397,-725.8512 260.8888,-716.5793 254.2748,-707 243.4354,-691.3009 248.8382,-670.2401 256.6089,-653.5291"/>
<polygon fill="#a2a2a2" stroke="#a2a2a2" stroke-width="1.5" points="259.9097,-654.762 261.3528,-644.2659 253.6792,-651.5712 259.9097,-654.762"/>
</g>
<!-- 5&#45;&gt;7 -->
<g id="edge19" class="edge">
<title>5&#45;&gt;7</title>
<path fill="none" stroke="#f60000" stroke-width="3.5" d="M308.7133,-732.9148C295.4487,-727.4963 282.1198,-719.2985 274.2748,-707 264.4722,-691.6326 264.3391,-671.0634 266.5971,-654.4987"/>
<polygon fill="#f60000" stroke="#f60000" stroke-width="3.5" points="270.1077,-654.7342 268.3486,-644.2865 263.2085,-653.5509 270.1077,-654.7342"/>
<text text-anchor="middle" x="300.7748" y="-695.8" font-family="Times,serif" font-size="14.00" fill="#f60000">@5</text>
<text text-anchor="middle" x="300.7748" y="-680.8" font-family="Times,serif" font-size="14.00" fill="#f60000">start(1)</text>
<text text-anchor="middle" x="300.7748" y="-665.8" font-family="Times,serif" font-size="14.00" fill="#f60000">pc(7)</text>
</g>
<!-- 5&#45;&gt;7 -->
<g id="edge33" class="edge">
<title>5&#45;&gt;7</title>
<path fill="none" stroke="#00934a" stroke-width="3" stroke-dasharray="5,2" d="M347.9853,-724.6921C345.9546,-707.1601 340.7272,-680.6848 327.2748,-662 322.2714,-655.0506 315.4796,-649.0545 308.402,-644.0582"/>
<text text-anchor="middle" x="354.7748" y="-680.8" font-family="Times,serif" font-size="14.00" fill="#00934a"> t0</text>
</g>
<!-- 5&#45;&gt;7 -->
<g id="edge38" class="edge">
<title>5&#45;&gt;7</title>
<path fill="none" stroke="#4363d8" stroke-width="3" stroke-dasharray="5,2" d="M361.1968,-724.7341C370.965,-707.2332 381.2416,-680.7803 368.2748,-662 363.0638,-654.4527 346.408,-647.0961 328.4663,-641.021"/>
<text text-anchor="middle" x="384.7748" y="-680.8" font-family="Times,serif" font-size="14.00" fill="#4363d8"> t1</text>
</g>
<!-- 8 -->
<g id="node9" class="node">
<title>8</title>
<polygon fill="#e6e6e6" stroke="#4a4a4a" points="325.2748,-527 221.2748,-527 221.2748,-491 325.2748,-491 325.2748,-527"/>
<text text-anchor="middle" x="273.2748" y="-505.3" font-family="Times,serif" font-size="14.00" fill="#4a4a4a">8: store(y,w)</text>
</g>
<!-- 7&#45;&gt;8 -->
<g id="edge9" class="edge">
<title>7&#45;&gt;8</title>
<path fill="none" stroke="#a2a2a2" stroke-width="1.5" d="M217.8554,-621.7761C173.6072,-617.1157 116.7069,-607.7868 102.2748,-590 89.6733,-574.4693 89.6733,-560.5307 102.2748,-545 115.9455,-528.1516 167.7213,-518.8922 210.7542,-514.0011"/>
<polygon fill="#a2a2a2" stroke="#a2a2a2" stroke-width="1.5" points="211.3434,-517.458 220.9111,-512.9073 210.5938,-510.4982 211.3434,-517.458"/>
</g>
<!-- 7&#45;&gt;8 -->
<g id="edge20" class="edge">
<title>7&#45;&gt;8</title>
<path fill="none" stroke="#f60000" stroke-width="3.5" d="M217.9655,-619.9893C179.9329,-614.5838 134.2162,-605.1231 122.2748,-590 109.8805,-574.3034 109.8805,-560.6966 122.2748,-545 133.4953,-530.7899 174.5362,-521.5791 211.0026,-516.0344"/>
<polygon fill="#f60000" stroke="#f60000" stroke-width="3.5" points="211.743,-519.4638 221.1381,-514.5666 210.7397,-512.536 211.743,-519.4638"/>
<text text-anchor="middle" x="148.7748" y="-578.8" font-family="Times,serif" font-size="14.00" fill="#f60000">@6</text>
<text text-anchor="middle" x="148.7748" y="-563.8" font-family="Times,serif" font-size="14.00" fill="#f60000">start(2)</text>
<text text-anchor="middle" x="148.7748" y="-548.8" font-family="Times,serif" font-size="14.00" fill="#f60000">pc(8)</text>
</g>
<!-- 7&#45;&gt;8 -->
<g id="edge26" class="edge">
<title>7&#45;&gt;8</title>
<path fill="none" stroke="#f60000" stroke-width="3.5" d="M217.9287,-608.5995C210.1238,-603.7925 203.1208,-597.7014 198.2748,-590 187.6233,-573.0723 187.6233,-561.9277 198.2748,-545 201.9441,-539.1686 206.8502,-534.2604 212.4046,-530.1338"/>
<polygon fill="#f60000" stroke="#f60000" stroke-width="3.5" points="214.4309,-532.9919 220.938,-524.6308 210.6371,-527.109 214.4309,-532.9919"/>
<text text-anchor="middle" x="224.7748" y="-578.8" font-family="Times,serif" font-size="14.00" fill="#f60000">@12</text>
<text text-anchor="middle" x="224.7748" y="-563.8" font-family="Times,serif" font-size="14.00" fill="#f60000">start(4)</text>
<text text-anchor="middle" x="224.7748" y="-548.8" font-family="Times,serif" font-size="14.00" fill="#f60000">pc(8)</text>
</g>
<!-- 7&#45;&gt;8 -->
<g id="edge34" class="edge">
<title>7&#45;&gt;8</title>
<path fill="none" stroke="#00934a" stroke-width="3" stroke-dasharray="5,2" d="M273.2748,-607.9752C273.2748,-586.0528 273.2748,-549.2564 273.2748,-527.2381"/>
<text text-anchor="middle" x="282.7748" y="-563.8" font-family="Times,serif" font-size="14.00" fill="#00934a"> t0</text>
</g>
<!-- 7&#45;&gt;8 -->
<g id="edge39" class="edge">
<title>7&#45;&gt;8</title>
<path fill="none" stroke="#4363d8" stroke-width="3" stroke-dasharray="5,2" d="M285.7706,-607.7062C288.8401,-602.2478 291.6966,-596.0906 293.2748,-590 298.2916,-570.6394 298.2916,-564.3606 293.2748,-545 291.6966,-538.9094 288.8401,-532.7522 285.7706,-527.2938"/>
<text text-anchor="middle" x="306.7748" y="-563.8" font-family="Times,serif" font-size="14.00" fill="#4363d8"> t1</text>
</g>
<!-- 7&#45;&gt;8 -->
<g id="edge40" class="edge">
<title>7&#45;&gt;8</title>
<path fill="none" stroke="#f58231" stroke-width="3" stroke-dasharray="5,2" d="M305.6583,-607.6265C311.5602,-602.7054 316.9078,-596.8201 320.2748,-590 329.1283,-572.0664 329.1283,-562.9336 320.2748,-545 316.9078,-538.1799 311.5602,-532.2946 305.6583,-527.3735"/>
<text text-anchor="middle" x="336.7748" y="-563.8" font-family="Times,serif" font-size="14.00" fill="#f58231"> t2</text>
</g>
<!-- 7&#45;&gt;8 -->
<g id="edge44" class="edge">
<title>7&#45;&gt;8</title>
<path fill="none" stroke="#e6beff" stroke-width="3" stroke-dasharray="5,2" d="M328.533,-609.7466C337.1627,-604.7825 344.9666,-598.3414 350.2748,-590 361.0123,-573.1268 361.0123,-561.8732 350.2748,-545 344.3328,-535.6626 335.2635,-528.7064 325.4093,-523.5377"/>
<text text-anchor="middle" x="368.7748" y="-563.8" font-family="Times,serif" font-size="14.00" fill="#e6beff"> t4</text>
</g>
<!-- 10 -->
<g id="node10" class="node">
<title>10</title>
<polygon fill="#e6e6e6" stroke="#4a4a4a" points="280.2748,-153 176.2748,-153 176.2748,-117 280.2748,-117 280.2748,-153"/>
<text text-anchor="middle" x="228.2748" y="-131.3" font-family="Times,serif" font-size="14.00" fill="#4a4a4a">10: load(y,v)</text>
</g>
<!-- 7&#45;&gt;10 -->
<g id="edge10" class="edge">
<title>7&#45;&gt;10</title>
<path fill="none" stroke="#a2a2a2" stroke-width="1.5" d="M328.3582,-621.0552C394.6825,-611.7267 497.2748,-585.012 497.2748,-509 497.2748,-509 497.2748,-509 497.2748,-271 497.2748,-225.2935 507.01,-201.8387 473.2748,-171 459.9571,-158.8257 358.7422,-147.1368 290.6415,-140.5324"/>
<polygon fill="#a2a2a2" stroke="#a2a2a2" stroke-width="1.5" points="290.7197,-137.024 280.4319,-139.5561 290.0533,-143.9922 290.7197,-137.024"/>
</g>
<!-- 9 -->
<g id="node11" class="node">
<title>9</title>
<polygon fill="#e6e6e6" stroke="#4a4a4a" points="361.2748,-410 271.2748,-410 271.2748,-374 361.2748,-374 361.2748,-410"/>
<text text-anchor="middle" x="316.2748" y="-388.3" font-family="Times,serif" font-size="14.00" fill="#4a4a4a">9: jmp(11)</text>
</g>
<!-- 8&#45;&gt;9 -->
<g id="edge11" class="edge">
<title>8&#45;&gt;9</title>
<path fill="none" stroke="#a2a2a2" stroke-width="1.5" d="M221.2611,-502.755C184.8283,-497.1869 140.6931,-487.6243 129.2748,-473 116.9665,-457.2359 116.5393,-443.421 129.2748,-428 145.7355,-408.0681 211.8624,-399.0541 260.8365,-395.0569"/>
<polygon fill="#a2a2a2" stroke="#a2a2a2" stroke-width="1.5" points="261.2993,-398.5318 271.0027,-394.2779 260.7645,-391.5522 261.2993,-398.5318"/>
</g>
<!-- 8&#45;&gt;9 -->
<g id="edge21" class="edge">
<title>8&#45;&gt;9</title>
<path fill="none" stroke="#f60000" stroke-width="3.5" d="M221.1052,-500.3094C191.3459,-494.1714 158.2264,-484.9201 149.2748,-473 137.2649,-457.0074 136.7108,-443.561 149.2748,-428 163.2034,-410.7489 217.826,-401.3688 260.858,-396.5501"/>
<polygon fill="#f60000" stroke="#f60000" stroke-width="3.5" points="261.3827,-400.0142 270.957,-395.4774 260.6432,-393.0533 261.3827,-400.0142"/>
<text text-anchor="middle" x="185.7748" y="-461.8" font-family="Times,serif" font-size="14.00" fill="#f60000">@7</text>
<text text-anchor="middle" x="185.7748" y="-446.8" font-family="Times,serif" font-size="14.00" fill="#f60000">commit(1)</text>
<text text-anchor="middle" x="185.7748" y="-431.8" font-family="Times,serif" font-size="14.00" fill="#f60000">store(F)</text>
</g>
<!-- 8&#45;&gt;9 -->
<g id="edge27" class="edge">
<title>8&#45;&gt;9</title>
<path fill="none" stroke="#f60000" stroke-width="3.5" d="M255.555,-490.9794C251.3697,-485.6169 247.4847,-479.4408 245.2748,-473 238.7841,-454.0825 234.808,-445.0425 245.2748,-428 249.4958,-421.1272 255.482,-415.5171 262.2094,-410.9511"/>
<polygon fill="#f60000" stroke="#f60000" stroke-width="3.5" points="264.2332,-413.8202 271.05,-405.7095 260.6632,-407.7989 264.2332,-413.8202"/>
<text text-anchor="middle" x="273.7748" y="-454.3" font-family="Times,serif" font-size="14.00" fill="#f60000">@13</text>
<text text-anchor="middle" x="273.7748" y="-439.3" font-family="Times,serif" font-size="14.00" fill="#f60000">store(F)</text>
</g>
<!-- 8&#45;&gt;9 -->
<g id="edge35" class="edge">
<title>8&#45;&gt;9</title>
<path fill="none" stroke="#00934a" stroke-width="3" stroke-dasharray="5,2" d="M290.8935,-490.7786C295.2254,-485.4154 299.4312,-479.2891 302.2748,-473 311.4468,-452.7144 314.6391,-427.0735 315.7336,-410.1369"/>
<text text-anchor="middle" x="323.7748" y="-446.8" font-family="Times,serif" font-size="14.00" fill="#00934a"> t0</text>
</g>
<!-- 8&#45;&gt;9 -->
<g id="edge41" class="edge">
<title>8&#45;&gt;9</title>
<path fill="none" stroke="#f58231" stroke-width="3" stroke-dasharray="5,2" d="M319.687,-490.9469C326.7157,-486.1738 333.0271,-480.2629 337.2748,-473 347.3717,-455.7358 342.4944,-447.3069 337.2748,-428 335.613,-421.8533 332.6123,-415.6785 329.3895,-410.2213"/>
<text text-anchor="middle" x="352.7748" y="-446.8" font-family="Times,serif" font-size="14.00" fill="#f58231"> t2</text>
</g>
<!-- 8&#45;&gt;9 -->
<g id="edge45" class="edge">
<title>8&#45;&gt;9</title>
<path fill="none" stroke="#e6beff" stroke-width="3" stroke-dasharray="5,2" d="M325.2858,-494.5486C343.6125,-488.3246 360.9902,-480.7124 366.2748,-473 377.5797,-456.5016 375.3929,-445.8006 366.2748,-428 362.6661,-420.9551 356.9659,-414.9749 350.6848,-410.0327"/>
<text text-anchor="middle" x="383.7748" y="-446.8" font-family="Times,serif" font-size="14.00" fill="#e6beff"> t4</text>
</g>
<!-- 10&#45;&gt;6 -->
<g id="edge24" class="edge">
<title>10&#45;&gt;6</title>
<path fill="none" stroke="#f60000" stroke-width="3.5" d="M213.6392,-116.9752C197.8555,-97.5362 172.5757,-66.4022 154.5862,-44.2467"/>
<polygon fill="#f60000" stroke="#f60000" stroke-width="3.5" points="157.1041,-41.7951 148.0835,-36.2381 151.6698,-46.2075 157.1041,-41.7951"/>
<text text-anchor="middle" x="237.2748" y="-87.8" font-family="Times,serif" font-size="14.00" fill="#f60000">@10</text>
<text text-anchor="middle" x="237.2748" y="-72.8" font-family="Times,serif" font-size="14.00" fill="#f60000">rollback(0)</text>
<text text-anchor="middle" x="237.2748" y="-57.8" font-family="Times,serif" font-size="14.00" fill="#f60000">pc(6)</text>
</g>
<!-- 11 -->
<g id="node12" class="node">
<title>11</title>
<polygon fill="#e6e6e6" stroke="#4a4a4a" points="335.4642,-263.5442 335.4642,-278.4558 311.9218,-289 278.6278,-289 255.0854,-278.4558 255.0854,-263.5442 278.6278,-253 311.9218,-253 335.4642,-263.5442"/>
<polygon fill="none" stroke="#4a4a4a" points="339.4732,-260.9552 339.4732,-281.0448 312.7803,-293 277.7693,-293 251.0764,-281.0448 251.0764,-260.9552 277.7693,-249 312.7803,-249 339.4732,-260.9552"/>
<text text-anchor="middle" x="295.2748" y="-267.3" font-family="Times,serif" font-size="14.00" fill="#4a4a4a">11: ⊥</text>
</g>
<!-- 10&#45;&gt;11 -->
<g id="edge13" class="edge">
<title>10&#45;&gt;11</title>
<path fill="none" stroke="#a2a2a2" stroke-width="1.5" d="M216.3985,-153.3636C213.4824,-158.8231 210.77,-164.9634 209.2748,-171 202.8633,-196.8844 194.9358,-208.5166 209.2748,-231 216.8272,-242.8421 228.8942,-251.2335 241.6289,-257.159"/>
<polygon fill="#a2a2a2" stroke="#a2a2a2" stroke-width="1.5" points="240.388,-260.4336 250.9648,-261.052 243.0821,-253.9728 240.388,-260.4336"/>
</g>
<!-- 10&#45;&gt;11 -->
<g id="edge30" class="edge">
<title>10&#45;&gt;11</title>
<path fill="none" stroke="#f60000" stroke-width="3.5" d="M222.3711,-153.0082C216.833,-173.4003 211.2977,-206.9149 225.2748,-231 230.652,-240.2659 239.0711,-247.5667 248.2325,-253.2493"/>
<polygon fill="#f60000" stroke="#f60000" stroke-width="3.5" points="246.727,-256.4167 257.1685,-258.2129 250.1262,-250.2974 246.727,-256.4167"/>
<text text-anchor="middle" x="251.2748" y="-204.8" font-family="Times,serif" font-size="14.00" fill="#f60000">@16</text>
<text text-anchor="middle" x="251.2748" y="-189.8" font-family="Times,serif" font-size="14.00" fill="#f60000">load(D)</text>
</g>
<!-- 9&#45;&gt;11 -->
<g id="edge12" class="edge">
<title>9&#45;&gt;11</title>
<path fill="none" stroke="#a2a2a2" stroke-width="1.5" d="M271.1635,-389.9933C220.389,-386.6776 142.5765,-378.0522 124.2748,-356 111.5021,-340.6098 111.8472,-326.6702 124.2748,-311 138.6872,-292.8272 196.3702,-282.1265 240.7988,-276.4353"/>
<polygon fill="#a2a2a2" stroke="#a2a2a2" stroke-width="1.5" points="241.4133,-279.8863 250.9131,-275.1954 240.5615,-272.9383 241.4133,-279.8863"/>
</g>
<!-- 9&#45;&gt;11 -->
<g id="edge22" class="edge">
<title>9&#45;&gt;11</title>
<path fill="none" stroke="#f60000" stroke-width="3.5" d="M270.8762,-388.8395C225.3962,-384.6165 159.9524,-375.2987 144.2748,-356 131.6642,-340.4767 132.077,-326.8497 144.2748,-311 156.1935,-295.5129 202.5501,-284.7859 240.7919,-278.3678"/>
<polygon fill="#f60000" stroke="#f60000" stroke-width="3.5" points="241.5043,-281.7982 250.8192,-276.7501 240.3894,-274.8876 241.5043,-281.7982"/>
<text text-anchor="middle" x="170.7748" y="-344.8" font-family="Times,serif" font-size="14.00" fill="#f60000">@8</text>
<text text-anchor="middle" x="170.7748" y="-329.8" font-family="Times,serif" font-size="14.00" fill="#f60000">start(3)</text>
<text text-anchor="middle" x="170.7748" y="-314.8" font-family="Times,serif" font-size="14.00" fill="#f60000">pc(11)</text>
</g>
<!-- 9&#45;&gt;11 -->
<g id="edge28" class="edge">
<title>9&#45;&gt;11</title>
<path fill="none" stroke="#f60000" stroke-width="3.5" d="M271.0393,-380.3914C249.2807,-373.8005 226.5608,-365.0708 220.2748,-356 208.8829,-339.5615 209.9849,-328.1499 220.2748,-311 226.2645,-301.0172 235.685,-293.3885 245.853,-287.6109"/>
<polygon fill="#f60000" stroke="#f60000" stroke-width="3.5" points="247.5903,-290.654 254.9135,-282.9976 244.4141,-284.4161 247.5903,-290.654"/>
<text text-anchor="middle" x="246.7748" y="-344.8" font-family="Times,serif" font-size="14.00" fill="#f60000">@14</text>
<text text-anchor="middle" x="246.7748" y="-329.8" font-family="Times,serif" font-size="14.00" fill="#f60000">start(5)</text>
<text text-anchor="middle" x="246.7748" y="-314.8" font-family="Times,serif" font-size="14.00" fill="#f60000">pc(11)</text>
</g>
<!-- 9&#45;&gt;11 -->
<g id="edge36" class="edge">
<title>9&#45;&gt;11</title>
<path fill="none" stroke="#00934a" stroke-width="3" stroke-dasharray="5,2" d="M303.8252,-373.6941C300.7565,-368.2355 297.8888,-362.0812 296.2748,-356 290.7474,-335.1744 291.1994,-310.4562 292.6084,-293.0591"/>
<text text-anchor="middle" x="305.7748" y="-329.8" font-family="Times,serif" font-size="14.00" fill="#00934a"> t0</text>
</g>
<!-- 9&#45;&gt;11 -->
<g id="edge42" class="edge">
<title>9&#45;&gt;11</title>
<path fill="none" stroke="#f58231" stroke-width="3" stroke-dasharray="5,2" d="M318.3568,-373.6941C319.7055,-357.0842 320.3808,-332.0474 315.2748,-311 313.8104,-304.9638 311.3082,-298.794 308.5597,-293.1635"/>
<text text-anchor="middle" x="329.7748" y="-329.8" font-family="Times,serif" font-size="14.00" fill="#f58231"> t2</text>
</g>
<!-- 9&#45;&gt;11 -->
<g id="edge43" class="edge">
<title>9&#45;&gt;11</title>
<path fill="none" stroke="#fabebe" stroke-width="3" stroke-dasharray="5,2" d="M333.3701,-373.8909C337.4059,-368.5282 341.1501,-362.374 343.2748,-356 349.5993,-337.0263 351.7579,-329.1118 343.2748,-311 339.0418,-301.9624 331.6521,-294.2546 323.9212,-288.088"/>
<text text-anchor="middle" x="358.7748" y="-329.8" font-family="Times,serif" font-size="14.00" fill="#fabebe"> t3</text>
</g>
<!-- 9&#45;&gt;11 -->
<g id="edge46" class="edge">
<title>9&#45;&gt;11</title>
<path fill="none" stroke="#e6beff" stroke-width="3" stroke-dasharray="5,2" d="M355.8638,-373.8489C362.4542,-369.0105 368.3979,-363.1011 372.2748,-356 381.8586,-338.4458 382.6576,-328.0938 372.2748,-311 364.2198,-297.7385 350.1817,-288.6732 336.2791,-282.5741"/>
<text text-anchor="middle" x="389.7748" y="-329.8" font-family="Times,serif" font-size="14.00" fill="#e6beff"> t4</text>
</g>
<!-- 9&#45;&gt;11 -->
<g id="edge47" class="edge">
<title>9&#45;&gt;11</title>
<path fill="none" stroke="#800000" stroke-width="3" stroke-dasharray="5,2" d="M361.4179,-384.0941C377.387,-378.8894 393.7367,-370.2692 403.2748,-356 414.3892,-339.3726 414.7001,-327.4153 403.2748,-311 395.4505,-299.7585 365.0703,-289.0932 338.5169,-281.6069"/>
<text text-anchor="middle" x="421.7748" y="-329.8" font-family="Times,serif" font-size="14.00" fill="#800000"> t5</text>
</g>
<!-- 11&#45;&gt;10 -->
<g id="edge23" class="edge">
<title>11&#45;&gt;10</title>
<path fill="none" stroke="#f60000" stroke-width="3.5" d="M297.124,-248.5952C297.8113,-227.0972 295.9081,-194.517 281.2748,-171 278.6928,-166.8504 275.4358,-163.0648 271.8117,-159.6404"/>
<polygon fill="#f60000" stroke="#f60000" stroke-width="3.5" points="273.8852,-156.8129 263.9555,-153.1179 269.4137,-162.1986 273.8852,-156.8129"/>
<text text-anchor="middle" x="336.2748" y="-219.8" font-family="Times,serif" font-size="14.00" fill="#f60000">@9</text>
<text text-anchor="middle" x="336.2748" y="-204.8" font-family="Times,serif" font-size="14.00" fill="#f60000">commit(3)</text>
<text text-anchor="middle" x="336.2748" y="-189.8" font-family="Times,serif" font-size="14.00" fill="#f60000">rollback(2)</text>
<text text-anchor="middle" x="336.2748" y="-174.8" font-family="Times,serif" font-size="14.00" fill="#f60000">pc(10)</text>
</g>
<!-- 11&#45;&gt;10 -->
<g id="edge29" class="edge">
<title>11&#45;&gt;10</title>
<path fill="none" stroke="#f60000" stroke-width="3.5" d="M339.0225,-260.6354C354.4619,-254.6466 370.2201,-245.3406 379.2748,-231 393.5117,-208.4518 395.8005,-191.9288 379.2748,-171 368.0543,-156.7899 327.0134,-147.5791 290.547,-142.0344"/>
<polygon fill="#f60000" stroke="#f60000" stroke-width="3.5" points="290.8099,-138.536 280.4115,-140.5666 289.8066,-145.4638 290.8099,-138.536"/>
<text text-anchor="middle" x="430.2748" y="-219.8" font-family="Times,serif" font-size="14.00" fill="#f60000">@15</text>
<text text-anchor="middle" x="430.2748" y="-204.8" font-family="Times,serif" font-size="14.00" fill="#f60000">commit(5)</text>
<text text-anchor="middle" x="430.2748" y="-189.8" font-family="Times,serif" font-size="14.00" fill="#f60000">rollback(4)</text>
<text text-anchor="middle" x="430.2748" y="-174.8" font-family="Times,serif" font-size="14.00" fill="#f60000">pc(10)</text>
</g>
<!-- 11&#45;&gt;10 -->
<g id="edge37" class="edge">
<title>11&#45;&gt;10</title>
<path fill="none" stroke="#00934a" stroke-width="3" stroke-dasharray="5,2" d="M250.9849,-261.4895C221.6759,-254.1953 187.0767,-243.3113 178.2748,-231 162.7656,-209.3072 166.1174,-194.7341 178.2748,-171 181.8834,-163.9551 187.5837,-157.9749 193.8648,-153.0327"/>
<text text-anchor="middle" x="187.7748" y="-197.3" font-family="Times,serif" font-size="14.00" fill="#00934a"> t0</text>
</g>
</g>
</svg>
