<?xml version="1.0" encoding="UTF-8" standalone="no"?>
<!DOCTYPE svg PUBLIC "-//W3C//DTD SVG 1.1//EN"
 "http://www.w3.org/Graphics/SVG/1.1/DTD/svg11.dtd">
<!-- Generated by graphviz version 2.40.1 (20161225.0304)
 -->
<!-- Title: %3 Pages: 1 -->
<svg width="601pt" height="1399pt"
 viewBox="0.00 0.00 601.26 1399.00" xmlns="http://www.w3.org/2000/svg" xmlns:xlink="http://www.w3.org/1999/xlink">
<g id="graph0" class="graph" transform="scale(1 1) rotate(0) translate(4 1395)">
<title>%3</title>
<polygon fill="#ffffff" stroke="transparent" points="-4,4 -4,-1395 597.2554,-1395 597.2554,4 -4,4"/>
<!-- 0 -->
<g id="node1" class="node">
<title>0</title>
<polygon fill="#e6e6e6" stroke="#4a4a4a" points="532.7554,-1391 435.7554,-1391 435.7554,-1355 532.7554,-1355 532.7554,-1391"/>
<text text-anchor="middle" x="484.2554" y="-1369.3" font-family="Times,serif" font-size="14.00" fill="#4a4a4a">0: load(x,0)</text>
</g>
<!-- 1 -->
<g id="node2" class="node">
<title>1</title>
<polygon fill="#e6e6e6" stroke="#4a4a4a" points="531.7554,-1274 436.7554,-1274 436.7554,-1238 531.7554,-1238 531.7554,-1274"/>
<text text-anchor="middle" x="484.2554" y="-1252.3" font-family="Times,serif" font-size="14.00" fill="#4a4a4a">1: load(v,1)</text>
</g>
<!-- 0&#45;&gt;1 -->
<g id="edge1" class="edge">
<title>0&#45;&gt;1</title>
<path fill="none" stroke="#a2a2a2" stroke-width="1.5" d="M483.0414,-1354.6941C482.7185,-1349.0251 482.4152,-1342.7566 482.2554,-1337 481.7005,-1317.0077 481.7005,-1311.9923 482.2554,-1292 482.3229,-1289.5714 482.4158,-1287.0517 482.525,-1284.5244"/>
<polygon fill="#a2a2a2" stroke="#a2a2a2" stroke-width="1.5" points="486.0321,-1284.4699 483.0414,-1274.3059 479.041,-1284.1165 486.0321,-1284.4699"/>
</g>
<!-- 0&#45;&gt;1 -->
<g id="edge14" class="edge">
<title>0&#45;&gt;1</title>
<path fill="none" stroke="#f60000" stroke-width="3.5" d="M484.2554,-1354.9752C484.2554,-1336.1356 484.2554,-1306.3112 484.2554,-1284.3213"/>
<polygon fill="#f60000" stroke="#f60000" stroke-width="3.5" points="487.7555,-1284.2381 484.2554,-1274.2381 480.7555,-1284.2381 487.7555,-1284.2381"/>
<text text-anchor="middle" x="538.2554" y="-1325.8" font-family="Times,serif" font-size="14.00" fill="#f60000">@0</text>
<text text-anchor="middle" x="538.2554" y="-1310.8" font-family="Times,serif" font-size="14.00" fill="#f60000">load(0)</text>
<text text-anchor="middle" x="538.2554" y="-1295.8" font-family="Times,serif" font-size="14.00" fill="#f60000"># element(0,B)</text>
</g>
<!-- 2 -->
<g id="node3" class="node">
<title>2</title>
<polygon fill="#e6e6e6" stroke="#4a4a4a" points="533.7554,-1157 434.7554,-1157 434.7554,-1121 533.7554,-1121 533.7554,-1157"/>
<text text-anchor="middle" x="484.2554" y="-1135.3" font-family="Times,serif" font-size="14.00" fill="#4a4a4a">2: load(w,2)</text>
</g>
<!-- 1&#45;&gt;2 -->
<g id="edge2" class="edge">
<title>1&#45;&gt;2</title>
<path fill="none" stroke="#a2a2a2" stroke-width="1.5" d="M483.0414,-1237.6941C482.7185,-1232.0251 482.4152,-1225.7566 482.2554,-1220 481.7005,-1200.0077 481.7005,-1194.9923 482.2554,-1175 482.3229,-1172.5714 482.4158,-1170.0517 482.525,-1167.5244"/>
<polygon fill="#a2a2a2" stroke="#a2a2a2" stroke-width="1.5" points="486.0321,-1167.4699 483.0414,-1157.3059 479.041,-1167.1165 486.0321,-1167.4699"/>
</g>
<!-- 1&#45;&gt;2 -->
<g id="edge15" class="edge">
<title>1&#45;&gt;2</title>
<path fill="none" stroke="#f60000" stroke-width="3.5" d="M484.2554,-1237.9752C484.2554,-1219.1356 484.2554,-1189.3112 484.2554,-1167.3213"/>
<polygon fill="#f60000" stroke="#f60000" stroke-width="3.5" points="487.7555,-1167.2381 484.2554,-1157.2381 480.7555,-1167.2381 487.7555,-1167.2381"/>
<text text-anchor="middle" x="538.7554" y="-1208.8" font-family="Times,serif" font-size="14.00" fill="#f60000">@1</text>
<text text-anchor="middle" x="538.7554" y="-1193.8" font-family="Times,serif" font-size="14.00" fill="#f60000">load(1)</text>
<text text-anchor="middle" x="538.7554" y="-1178.8" font-family="Times,serif" font-size="14.00" fill="#f60000"># element(1,D)</text>
</g>
<!-- 3 -->
<g id="node4" class="node">
<title>3</title>
<polygon fill="#e6e6e6" stroke="#4a4a4a" points="534.7554,-1040 433.7554,-1040 433.7554,-1004 534.7554,-1004 534.7554,-1040"/>
<text text-anchor="middle" x="484.2554" y="-1018.3" font-family="Times,serif" font-size="14.00" fill="#4a4a4a">3: beqz(x,6)</text>
</g>
<!-- 2&#45;&gt;3 -->
<g id="edge3" class="edge">
<title>2&#45;&gt;3</title>
<path fill="none" stroke="#a2a2a2" stroke-width="1.5" d="M483.0414,-1120.6941C482.7185,-1115.0251 482.4152,-1108.7566 482.2554,-1103 481.7005,-1083.0077 481.7005,-1077.9923 482.2554,-1058 482.3229,-1055.5714 482.4158,-1053.0517 482.525,-1050.5244"/>
<polygon fill="#a2a2a2" stroke="#a2a2a2" stroke-width="1.5" points="486.0321,-1050.4699 483.0414,-1040.3059 479.041,-1050.1165 486.0321,-1050.4699"/>
</g>
<!-- 2&#45;&gt;3 -->
<g id="edge16" class="edge">
<title>2&#45;&gt;3</title>
<path fill="none" stroke="#f60000" stroke-width="3.5" d="M484.2554,-1120.9752C484.2554,-1102.1356 484.2554,-1072.3112 484.2554,-1050.3213"/>
<polygon fill="#f60000" stroke="#f60000" stroke-width="3.5" points="487.7555,-1050.2381 484.2554,-1040.2381 480.7555,-1050.2381 487.7555,-1050.2381"/>
<text text-anchor="middle" x="537.7554" y="-1091.8" font-family="Times,serif" font-size="14.00" fill="#f60000">@2</text>
<text text-anchor="middle" x="537.7554" y="-1076.8" font-family="Times,serif" font-size="14.00" fill="#f60000">load(2)</text>
<text text-anchor="middle" x="537.7554" y="-1061.8" font-family="Times,serif" font-size="14.00" fill="#f60000"># element(2,F)</text>
</g>
<!-- 4 -->
<g id="node5" class="node">
<title>4</title>
<polygon fill="#e6e6e6" stroke="#4a4a4a" points="467.7554,-908 372.7554,-908 372.7554,-872 467.7554,-872 467.7554,-908"/>
<text text-anchor="middle" x="420.2554" y="-886.3" font-family="Times,serif" font-size="14.00" fill="#4a4a4a">4: load(y,v)</text>
</g>
<!-- 3&#45;&gt;4 -->
<g id="edge4" class="edge">
<title>3&#45;&gt;4</title>
<path fill="none" stroke="#a2a2a2" stroke-width="1.5" d="M433.704,-1008.2742C423.243,-1003.0288 413.5143,-995.8354 407.2554,-986 394.2966,-965.636 399.953,-937.9335 407.4258,-917.5205"/>
<polygon fill="#a2a2a2" stroke="#a2a2a2" stroke-width="1.5" points="410.7098,-918.7342 411.1665,-908.1492 404.2086,-916.1391 410.7098,-918.7342"/>
</g>
<!-- 3&#45;&gt;4 -->
<g id="edge17" class="edge">
<title>3&#45;&gt;4</title>
<path fill="none" stroke="#f60000" stroke-width="3.5" d="M444.6719,-1003.9372C437.8163,-999.0699 431.5289,-993.127 427.2554,-986 415.0905,-965.7119 414.2387,-938.5072 415.9082,-918.2386"/>
<polygon fill="#f60000" stroke="#f60000" stroke-width="3.5" points="419.4131,-918.3796 417.0016,-908.0629 412.4532,-917.6317 419.4131,-918.3796"/>
<text text-anchor="middle" x="473.7554" y="-974.8" font-family="Times,serif" font-size="14.00" fill="#f60000">@3</text>
<text text-anchor="middle" x="473.7554" y="-959.8" font-family="Times,serif" font-size="14.00" fill="#f60000"># cond(B=0)</text>
<text text-anchor="middle" x="473.7554" y="-944.8" font-family="Times,serif" font-size="14.00" fill="#f60000">start(0)</text>
<text text-anchor="middle" x="473.7554" y="-929.8" font-family="Times,serif" font-size="14.00" fill="#f60000">pc(4)</text>
</g>
<!-- 3&#45;&gt;4 -->
<g id="edge31" class="edge">
<title>3&#45;&gt;4</title>
<path fill="none" stroke="#00934a" stroke-width="3" stroke-dasharray="5,2" d="M507.6968,-1003.9949C512.7914,-998.7962 517.4818,-992.6961 520.2554,-986 530.4603,-961.3632 535.5891,-947.8172 520.2554,-926 513.7303,-916.7158 490.3904,-908.0425 467.9,-901.5364"/>
<text text-anchor="middle" x="539.7554" y="-952.3" font-family="Times,serif" font-size="14.00" fill="#00934a"> t0</text>
</g>
<!-- 6 -->
<g id="node6" class="node">
<title>6</title>
<polygon fill="#e6e6e6" stroke="#4a4a4a" points="182.2554,-36 78.2554,-36 78.2554,0 182.2554,0 182.2554,-36"/>
<text text-anchor="middle" x="130.2554" y="-14.3" font-family="Times,serif" font-size="14.00" fill="#4a4a4a">6: store(y,w)</text>
</g>
<!-- 3&#45;&gt;6 -->
<g id="edge5" class="edge">
<title>3&#45;&gt;6</title>
<path fill="none" stroke="#a2a2a2" stroke-width="1.5" d="M531.4564,-1003.9759C539.6061,-999.1472 547.3437,-993.209 553.2554,-986 581.4379,-951.6335 581.2554,-934.4444 581.2554,-890 581.2554,-890 581.2554,-890 581.2554,-135 581.2554,-55.6329 316.2575,-29.1947 192.523,-21.1759"/>
<polygon fill="#a2a2a2" stroke="#a2a2a2" stroke-width="1.5" points="192.6311,-17.6759 182.4315,-20.5425 192.1926,-24.6622 192.6311,-17.6759"/>
</g>
<!-- 5 -->
<g id="node7" class="node">
<title>5</title>
<polygon fill="#e6e6e6" stroke="#4a4a4a" points="448.7554,-791 367.7554,-791 367.7554,-755 448.7554,-755 448.7554,-791"/>
<text text-anchor="middle" x="408.2554" y="-769.3" font-family="Times,serif" font-size="14.00" fill="#4a4a4a">5: jmp(7)</text>
</g>
<!-- 4&#45;&gt;5 -->
<g id="edge6" class="edge">
<title>4&#45;&gt;5</title>
<path fill="none" stroke="#a2a2a2" stroke-width="1.5" d="M401.6099,-871.6943C397.3908,-866.4192 393.4977,-860.3577 391.2554,-854 384.6034,-835.1386 386.8793,-828.5154 391.2554,-809 391.8935,-806.1547 392.7829,-803.2696 393.8235,-800.4349"/>
<polygon fill="#a2a2a2" stroke="#a2a2a2" stroke-width="1.5" points="397.0912,-801.6947 397.7984,-791.1235 390.6533,-798.9464 397.0912,-801.6947"/>
</g>
<!-- 4&#45;&gt;5 -->
<g id="edge18" class="edge">
<title>4&#45;&gt;5</title>
<path fill="none" stroke="#f60000" stroke-width="3.5" d="M414.9326,-871.8313C413.485,-866.168 412.0884,-859.8681 411.2554,-854 408.781,-836.567 408.0087,-816.8249 407.8658,-801.1956"/>
<polygon fill="#f60000" stroke="#f60000" stroke-width="3.5" points="411.3658,-801.1072 407.8543,-791.1113 404.3658,-801.1153 411.3658,-801.1072"/>
<text text-anchor="middle" x="466.2554" y="-842.8" font-family="Times,serif" font-size="14.00" fill="#f60000">@4</text>
<text text-anchor="middle" x="466.2554" y="-827.8" font-family="Times,serif" font-size="14.00" fill="#f60000">load(D)</text>
<text text-anchor="middle" x="466.2554" y="-812.8" font-family="Times,serif" font-size="14.00" fill="#f60000"># element(D,G)</text>
</g>
<!-- 4&#45;&gt;5 -->
<g id="edge32" class="edge">
<title>4&#45;&gt;5</title>
<path fill="none" stroke="#00934a" stroke-width="3" stroke-dasharray="5,2" d="M467.8167,-878.6796C490.6996,-872.1731 514.604,-863.4321 521.2554,-854 532.7815,-837.6553 533.0576,-825.1465 521.2554,-809 512.4771,-796.9902 477.606,-787.0685 448.8953,-780.704"/>
<text text-anchor="middle" x="539.7554" y="-827.8" font-family="Times,serif" font-size="14.00" fill="#00934a"> t0</text>
</g>
<!-- 7 -->
<g id="node8" class="node">
<title>7</title>
<polygon fill="#e6e6e6" stroke="#4a4a4a" points="387.2554,-674 277.2554,-674 277.2554,-638 387.2554,-638 387.2554,-674"/>
<text text-anchor="middle" x="332.2554" y="-652.3" font-family="Times,serif" font-size="14.00" fill="#4a4a4a">7: beqz(x,10)</text>
</g>
<!-- 6&#45;&gt;7 -->
<g id="edge8" class="edge">
<title>6&#45;&gt;7</title>
<path fill="none" stroke="#a2a2a2" stroke-width="1.5" d="M78.0544,-25.8859C59.5341,-31.0836 39.9193,-39.7043 26.2554,-54 .3123,-81.1428 2.2554,-97.453 2.2554,-135 2.2554,-524 2.2554,-524 2.2554,-524 2.2554,-567.9798 -6.7663,-590.952 26.2554,-620 43.9607,-635.5746 182.4544,-646.7736 266.9389,-652.2356"/>
<polygon fill="#a2a2a2" stroke="#a2a2a2" stroke-width="1.5" points="266.7604,-655.7312 276.9624,-652.8732 267.2048,-648.7453 266.7604,-655.7312"/>
</g>
<!-- 6&#45;&gt;7 -->
<g id="edge25" class="edge">
<title>6&#45;&gt;7</title>
<path fill="none" stroke="#f60000" stroke-width="3.5" d="M103.7393,-36.1872C77.1915,-56.7754 40.2554,-92.9719 40.2554,-135 40.2554,-524 40.2554,-524 40.2554,-524 40.2554,-567.9798 31.4733,-590.6819 64.2554,-620 79.1278,-633.3008 192.4352,-644.812 266.8818,-651.0449"/>
<polygon fill="#f60000" stroke="#f60000" stroke-width="3.5" points="266.8605,-654.5549 277.1144,-651.889 267.436,-647.5786 266.8605,-654.5549"/>
<text text-anchor="middle" x="90.7554" y="-344.8" font-family="Times,serif" font-size="14.00" fill="#f60000">@11</text>
<text text-anchor="middle" x="90.7554" y="-329.8" font-family="Times,serif" font-size="14.00" fill="#f60000"># update(F,H)</text>
<text text-anchor="middle" x="90.7554" y="-314.8" font-family="Times,serif" font-size="14.00" fill="#f60000">store(F)</text>
</g>
<!-- 5&#45;&gt;7 -->
<g id="edge7" class="edge">
<title>5&#45;&gt;7</title>
<path fill="none" stroke="#a2a2a2" stroke-width="1.5" d="M367.6366,-762.5859C344.9203,-755.8512 319.8694,-746.5793 313.2554,-737 302.416,-721.3009 307.8189,-700.2401 315.5895,-683.5291"/>
<polygon fill="#a2a2a2" stroke="#a2a2a2" stroke-width="1.5" points="318.8904,-684.762 320.3335,-674.2659 312.6599,-681.5712 318.8904,-684.762"/>
</g>
<!-- 5&#45;&gt;7 -->
<g id="edge19" class="edge">
<title>5&#45;&gt;7</title>
<path fill="none" stroke="#f60000" stroke-width="3.5" d="M367.694,-762.9148C354.4294,-757.4963 341.1005,-749.2985 333.2554,-737 323.4528,-721.6326 323.3197,-701.0634 325.5778,-684.4987"/>
<polygon fill="#f60000" stroke="#f60000" stroke-width="3.5" points="329.0884,-684.7342 327.3293,-674.2865 322.1891,-683.5509 329.0884,-684.7342"/>
<text text-anchor="middle" x="359.7554" y="-725.8" font-family="Times,serif" font-size="14.00" fill="#f60000">@5</text>
<text text-anchor="middle" x="359.7554" y="-710.8" font-family="Times,serif" font-size="14.00" fill="#f60000">start(1)</text>
<text text-anchor="middle" x="359.7554" y="-695.8" font-family="Times,serif" font-size="14.00" fill="#f60000">pc(7)</text>
</g>
<!-- 5&#45;&gt;7 -->
<g id="edge33" class="edge">
<title>5&#45;&gt;7</title>
<path fill="none" stroke="#00934a" stroke-width="3" stroke-dasharray="5,2" d="M406.966,-754.6921C404.9352,-737.1601 399.7079,-710.6848 386.2554,-692 381.2521,-685.0506 374.4602,-679.0545 367.3827,-674.0582"/>
<text text-anchor="middle" x="413.7554" y="-710.8" font-family="Times,serif" font-size="14.00" fill="#00934a"> t0</text>
</g>
<!-- 5&#45;&gt;7 -->
<g id="edge38" class="edge">
<title>5&#45;&gt;7</title>
<path fill="none" stroke="#4363d8" stroke-width="3" stroke-dasharray="5,2" d="M420.1774,-754.7341C429.9456,-737.2332 440.2222,-710.7803 427.2554,-692 422.0444,-684.4527 405.3887,-677.0961 387.447,-671.021"/>
<text text-anchor="middle" x="443.7554" y="-710.8" font-family="Times,serif" font-size="14.00" fill="#4363d8"> t1</text>
</g>
<!-- 8 -->
<g id="node9" class="node">
<title>8</title>
<polygon fill="#e6e6e6" stroke="#4a4a4a" points="384.2554,-542 280.2554,-542 280.2554,-506 384.2554,-506 384.2554,-542"/>
<text text-anchor="middle" x="332.2554" y="-520.3" font-family="Times,serif" font-size="14.00" fill="#4a4a4a">8: store(y,w)</text>
</g>
<!-- 7&#45;&gt;8 -->
<g id="edge9" class="edge">
<title>7&#45;&gt;8</title>
<path fill="none" stroke="#a2a2a2" stroke-width="1.5" d="M277.1599,-651.8891C207.1754,-646.0979 93.9065,-634.595 81.2554,-620 63.789,-599.8497 63.789,-580.1503 81.2554,-560 93.4852,-545.891 199.7437,-534.6715 270.0303,-528.7083"/>
<polygon fill="#a2a2a2" stroke="#a2a2a2" stroke-width="1.5" points="270.4493,-532.1856 280.124,-527.8669 269.8677,-525.2098 270.4493,-532.1856"/>
</g>
<!-- 7&#45;&gt;8 -->
<g id="edge20" class="edge">
<title>7&#45;&gt;8</title>
<path fill="none" stroke="#f60000" stroke-width="3.5" d="M277.0661,-651.1431C212.399,-644.8831 112.5737,-633.2187 101.2554,-620 83.9117,-599.744 83.9117,-580.256 101.2554,-560 112.1712,-547.2513 205.4112,-535.9485 270.0395,-529.545"/>
<polygon fill="#f60000" stroke="#f60000" stroke-width="3.5" points="270.5359,-533.0133 280.1493,-528.5599 269.857,-526.0463 270.5359,-533.0133"/>
<text text-anchor="middle" x="147.7554" y="-608.8" font-family="Times,serif" font-size="14.00" fill="#f60000">@6</text>
<text text-anchor="middle" x="147.7554" y="-593.8" font-family="Times,serif" font-size="14.00" fill="#f60000"># cond(B=0)</text>
<text text-anchor="middle" x="147.7554" y="-578.8" font-family="Times,serif" font-size="14.00" fill="#f60000">start(2)</text>
<text text-anchor="middle" x="147.7554" y="-563.8" font-family="Times,serif" font-size="14.00" fill="#f60000">pc(8)</text>
</g>
<!-- 7&#45;&gt;8 -->
<g id="edge26" class="edge">
<title>7&#45;&gt;8</title>
<path fill="none" stroke="#f60000" stroke-width="3.5" d="M277.2419,-645.2648C251.5015,-639.0128 224.843,-630.3259 217.2554,-620 201.4651,-598.511 201.4651,-581.489 217.2554,-560 224.1385,-550.6329 246.715,-542.6146 270.0636,-536.5391"/>
<polygon fill="#f60000" stroke="#f60000" stroke-width="3.5" points="271.2107,-539.8607 280.0739,-534.0561 269.5254,-533.0666 271.2107,-539.8607"/>
<text text-anchor="middle" x="263.7554" y="-608.8" font-family="Times,serif" font-size="14.00" fill="#f60000">@12</text>
<text text-anchor="middle" x="263.7554" y="-593.8" font-family="Times,serif" font-size="14.00" fill="#f60000"># cond(B=0)</text>
<text text-anchor="middle" x="263.7554" y="-578.8" font-family="Times,serif" font-size="14.00" fill="#f60000">start(4)</text>
<text text-anchor="middle" x="263.7554" y="-563.8" font-family="Times,serif" font-size="14.00" fill="#f60000">pc(8)</text>
</g>
<!-- 7&#45;&gt;8 -->
<g id="edge34" class="edge">
<title>7&#45;&gt;8</title>
<path fill="none" stroke="#00934a" stroke-width="3" stroke-dasharray="5,2" d="M332.2554,-637.9227C332.2554,-612.7862 332.2554,-567.5281 332.2554,-542.2825"/>
<text text-anchor="middle" x="341.7554" y="-586.3" font-family="Times,serif" font-size="14.00" fill="#00934a"> t0</text>
</g>
<!-- 7&#45;&gt;8 -->
<g id="edge39" class="edge">
<title>7&#45;&gt;8</title>
<path fill="none" stroke="#4363d8" stroke-width="3" stroke-dasharray="5,2" d="M344.7513,-637.7062C347.8207,-632.2478 350.6772,-626.0906 352.2554,-620 358.9445,-594.1859 358.9445,-585.8141 352.2554,-560 350.6772,-553.9094 347.8207,-547.7522 344.7513,-542.2938"/>
<text text-anchor="middle" x="367.7554" y="-586.3" font-family="Times,serif" font-size="14.00" fill="#4363d8"> t1</text>
</g>
<!-- 7&#45;&gt;8 -->
<g id="edge40" class="edge">
<title>7&#45;&gt;8</title>
<path fill="none" stroke="#f58231" stroke-width="3" stroke-dasharray="5,2" d="M365.9903,-637.8529C372.145,-632.9178 377.7276,-626.9695 381.2554,-620 393.2987,-596.2077 393.2987,-583.7923 381.2554,-560 377.7276,-553.0305 372.145,-547.0822 365.9903,-542.1471"/>
<text text-anchor="middle" x="400.7554" y="-586.3" font-family="Times,serif" font-size="14.00" fill="#f58231"> t2</text>
</g>
<!-- 7&#45;&gt;8 -->
<g id="edge44" class="edge">
<title>7&#45;&gt;8</title>
<path fill="none" stroke="#e6beff" stroke-width="3" stroke-dasharray="5,2" d="M387.2823,-642.3078C397.9422,-637.0851 407.7942,-629.8932 414.2554,-620 428.8371,-597.6732 428.8371,-582.3268 414.2554,-560 407.1991,-549.1956 396.0986,-541.613 384.3183,-536.2987"/>
<text text-anchor="middle" x="434.7554" y="-586.3" font-family="Times,serif" font-size="14.00" fill="#e6beff"> t4</text>
</g>
<!-- 10 -->
<g id="node10" class="node">
<title>10</title>
<polygon fill="#e6e6e6" stroke="#4a4a4a" points="272.2554,-153 168.2554,-153 168.2554,-117 272.2554,-117 272.2554,-153"/>
<text text-anchor="middle" x="220.2554" y="-131.3" font-family="Times,serif" font-size="14.00" fill="#4a4a4a">10: load(y,v)</text>
</g>
<!-- 7&#45;&gt;10 -->
<g id="edge10" class="edge">
<title>7&#45;&gt;10</title>
<path fill="none" stroke="#a2a2a2" stroke-width="1.5" d="M387.4176,-646.2525C449.935,-631.663 543.2554,-597.5644 543.2554,-524 543.2554,-524 543.2554,-524 543.2554,-271 543.2554,-225.4927 554.964,-201.572 521.2554,-171 503.9238,-155.2811 365.4234,-144.0289 282.4596,-138.6229"/>
<polygon fill="#a2a2a2" stroke="#a2a2a2" stroke-width="1.5" points="282.5846,-135.1238 272.3812,-137.9771 282.1369,-142.1095 282.5846,-135.1238"/>
</g>
<!-- 9 -->
<g id="node11" class="node">
<title>9</title>
<polygon fill="#e6e6e6" stroke="#4a4a4a" points="407.2554,-410 317.2554,-410 317.2554,-374 407.2554,-374 407.2554,-410"/>
<text text-anchor="middle" x="362.2554" y="-388.3" font-family="Times,serif" font-size="14.00" fill="#4a4a4a">9: jmp(11)</text>
</g>
<!-- 8&#45;&gt;9 -->
<g id="edge11" class="edge">
<title>8&#45;&gt;9</title>
<path fill="none" stroke="#a2a2a2" stroke-width="1.5" d="M280.2419,-522.1372C226.5949,-518.9925 148.1678,-510.5614 129.2554,-488 112.1245,-467.5637 111.8985,-448.2447 129.2554,-428 140.6986,-414.653 241.7281,-403.0063 306.9421,-396.7892"/>
<polygon fill="#a2a2a2" stroke="#a2a2a2" stroke-width="1.5" points="307.4522,-400.2568 317.0819,-395.8386 306.7988,-393.2874 307.4522,-400.2568"/>
</g>
<!-- 8&#45;&gt;9 -->
<g id="edge21" class="edge">
<title>8&#45;&gt;9</title>
<path fill="none" stroke="#f60000" stroke-width="3.5" d="M279.9337,-520.9363C231.8218,-516.8966 165.5555,-507.819 149.2554,-488 132.3166,-467.4042 132.042,-448.3669 149.2554,-428 159.3963,-416.0014 247.5103,-404.2872 307.1835,-397.6253"/>
<polygon fill="#f60000" stroke="#f60000" stroke-width="3.5" points="307.6761,-401.0923 317.2339,-396.5207 306.9113,-394.1342 307.6761,-401.0923"/>
<text text-anchor="middle" x="198.7554" y="-476.8" font-family="Times,serif" font-size="14.00" fill="#f60000">@7</text>
<text text-anchor="middle" x="198.7554" y="-461.8" font-family="Times,serif" font-size="14.00" fill="#f60000">commit(1)</text>
<text text-anchor="middle" x="198.7554" y="-446.8" font-family="Times,serif" font-size="14.00" fill="#f60000"># update(F,G)</text>
<text text-anchor="middle" x="198.7554" y="-431.8" font-family="Times,serif" font-size="14.00" fill="#f60000">store(F)</text>
</g>
<!-- 8&#45;&gt;9 -->
<g id="edge27" class="edge">
<title>8&#45;&gt;9</title>
<path fill="none" stroke="#f60000" stroke-width="3.5" d="M288.2836,-505.8063C281.466,-501.0304 275.3408,-495.1548 271.2554,-488 258.0326,-464.8425 256.2635,-450.0534 271.2554,-428 279.7147,-415.5563 293.2119,-407.4139 307.2489,-402.086"/>
<polygon fill="#f60000" stroke="#f60000" stroke-width="3.5" points="308.6223,-405.3174 316.9978,-398.8288 306.404,-398.6781 308.6223,-405.3174"/>
<text text-anchor="middle" x="321.7554" y="-469.3" font-family="Times,serif" font-size="14.00" fill="#f60000">@13</text>
<text text-anchor="middle" x="321.7554" y="-454.3" font-family="Times,serif" font-size="14.00" fill="#f60000"># update(F,H)</text>
<text text-anchor="middle" x="321.7554" y="-439.3" font-family="Times,serif" font-size="14.00" fill="#f60000">store(F)</text>
</g>
<!-- 8&#45;&gt;9 -->
<g id="edge35" class="edge">
<title>8&#45;&gt;9</title>
<path fill="none" stroke="#00934a" stroke-width="3" stroke-dasharray="5,2" d="M359.0781,-505.6448C364.4192,-500.5995 369.2907,-494.657 372.2554,-488 383.504,-462.7428 376.0983,-430.1634 369.4119,-410.1928"/>
<text text-anchor="middle" x="387.7554" y="-454.3" font-family="Times,serif" font-size="14.00" fill="#00934a"> t0</text>
</g>
<!-- 8&#45;&gt;9 -->
<g id="edge41" class="edge">
<title>8&#45;&gt;9</title>
<path fill="none" stroke="#f58231" stroke-width="3" stroke-dasharray="5,2" d="M383.2518,-505.8797C390.4233,-501.1561 396.8428,-495.2793 401.2554,-488 415.0789,-465.196 411.9507,-452.4279 401.2554,-428 398.2989,-421.2473 393.3816,-415.1994 388.0177,-410.0753"/>
<text text-anchor="middle" x="420.7554" y="-454.3" font-family="Times,serif" font-size="14.00" fill="#f58231"> t2</text>
</g>
<!-- 8&#45;&gt;9 -->
<g id="edge45" class="edge">
<title>8&#45;&gt;9</title>
<path fill="none" stroke="#e6beff" stroke-width="3" stroke-dasharray="5,2" d="M384.4819,-511.5355C406.2461,-505.1874 427.9375,-496.9297 434.2554,-488 449.6574,-466.2309 448.2749,-450.684 434.2554,-428 428.0102,-417.895 417.9746,-410.5316 407.3541,-405.2031"/>
<text text-anchor="middle" x="455.7554" y="-454.3" font-family="Times,serif" font-size="14.00" fill="#e6beff"> t4</text>
</g>
<!-- 10&#45;&gt;6 -->
<g id="edge24" class="edge">
<title>10&#45;&gt;6</title>
<path fill="none" stroke="#f60000" stroke-width="3.5" d="M206.3902,-116.9752C191.4371,-97.5362 167.4879,-66.4022 150.4452,-44.2467"/>
<polygon fill="#f60000" stroke="#f60000" stroke-width="3.5" points="153.1561,-42.0303 144.2847,-36.2381 147.6077,-46.2983 153.1561,-42.0303"/>
<text text-anchor="middle" x="230.2554" y="-87.8" font-family="Times,serif" font-size="14.00" fill="#f60000">@10</text>
<text text-anchor="middle" x="230.2554" y="-72.8" font-family="Times,serif" font-size="14.00" fill="#f60000">rollback(0)</text>
<text text-anchor="middle" x="230.2554" y="-57.8" font-family="Times,serif" font-size="14.00" fill="#f60000">pc(6)</text>
</g>
<!-- 11 -->
<g id="node12" class="node">
<title>11</title>
<polygon fill="#e6e6e6" stroke="#4a4a4a" points="381.4448,-263.5442 381.4448,-278.4558 357.9024,-289 324.6085,-289 301.0661,-278.4558 301.0661,-263.5442 324.6085,-253 357.9024,-253 381.4448,-263.5442"/>
<polygon fill="none" stroke="#4a4a4a" points="385.4538,-260.9552 385.4538,-281.0448 358.761,-293 323.7499,-293 297.0571,-281.0448 297.0571,-260.9552 323.7499,-249 358.761,-249 385.4538,-260.9552"/>
<text text-anchor="middle" x="341.2554" y="-267.3" font-family="Times,serif" font-size="14.00" fill="#4a4a4a">11: ⊥</text>
</g>
<!-- 10&#45;&gt;11 -->
<g id="edge13" class="edge">
<title>10&#45;&gt;11</title>
<path fill="none" stroke="#a2a2a2" stroke-width="1.5" d="M208.9704,-153.1545C197.6209,-173.9899 184.0669,-208.2126 201.2554,-231 211.8197,-245.0053 252.0832,-255.5823 286.7355,-262.3314"/>
<polygon fill="#a2a2a2" stroke="#a2a2a2" stroke-width="1.5" points="286.3257,-265.8155 296.7994,-264.2178 287.6154,-258.9353 286.3257,-265.8155"/>
</g>
<!-- 10&#45;&gt;11 -->
<g id="edge30" class="edge">
<title>10&#45;&gt;11</title>
<path fill="none" stroke="#f60000" stroke-width="3.5" d="M213.5901,-153.2046C207.2106,-174.0871 200.7654,-208.3539 217.2554,-231 225.9285,-242.9109 257.8854,-253.0577 287.1828,-260.1514"/>
<polygon fill="#f60000" stroke="#f60000" stroke-width="3.5" points="286.4452,-263.5733 296.9791,-262.4382 288.0365,-256.7565 286.4452,-263.5733"/>
<text text-anchor="middle" x="270.2554" y="-212.3" font-family="Times,serif" font-size="14.00" fill="#f60000">@16</text>
<text text-anchor="middle" x="270.2554" y="-197.3" font-family="Times,serif" font-size="14.00" fill="#f60000">load(D)</text>
<text text-anchor="middle" x="270.2554" y="-182.3" font-family="Times,serif" font-size="14.00" fill="#f60000"># element(D,I)</text>
</g>
<!-- 9&#45;&gt;11 -->
<g id="edge12" class="edge">
<title>9&#45;&gt;11</title>
<path fill="none" stroke="#a2a2a2" stroke-width="1.5" d="M317.1442,-389.9933C266.3697,-386.6776 188.5572,-378.0522 170.2554,-356 157.4827,-340.6098 157.8278,-326.6702 170.2554,-311 184.6679,-292.8272 242.3508,-282.1265 286.7795,-276.4353"/>
<polygon fill="#a2a2a2" stroke="#a2a2a2" stroke-width="1.5" points="287.394,-279.8863 296.8938,-275.1954 286.5422,-272.9383 287.394,-279.8863"/>
</g>
<!-- 9&#45;&gt;11 -->
<g id="edge22" class="edge">
<title>9&#45;&gt;11</title>
<path fill="none" stroke="#f60000" stroke-width="3.5" d="M316.8569,-388.8395C271.3769,-384.6165 205.9331,-375.2987 190.2554,-356 177.6448,-340.4767 178.0576,-326.8497 190.2554,-311 202.1742,-295.5129 248.5308,-284.7859 286.7726,-278.3678"/>
<polygon fill="#f60000" stroke="#f60000" stroke-width="3.5" points="287.485,-281.7982 296.7999,-276.7501 286.3701,-274.8876 287.485,-281.7982"/>
<text text-anchor="middle" x="216.7554" y="-344.8" font-family="Times,serif" font-size="14.00" fill="#f60000">@8</text>
<text text-anchor="middle" x="216.7554" y="-329.8" font-family="Times,serif" font-size="14.00" fill="#f60000">start(3)</text>
<text text-anchor="middle" x="216.7554" y="-314.8" font-family="Times,serif" font-size="14.00" fill="#f60000">pc(11)</text>
</g>
<!-- 9&#45;&gt;11 -->
<g id="edge28" class="edge">
<title>9&#45;&gt;11</title>
<path fill="none" stroke="#f60000" stroke-width="3.5" d="M317.02,-380.3914C295.2614,-373.8005 272.5415,-365.0708 266.2554,-356 254.8636,-339.5615 255.9655,-328.1499 266.2554,-311 272.2451,-301.0172 281.6657,-293.3885 291.8337,-287.6109"/>
<polygon fill="#f60000" stroke="#f60000" stroke-width="3.5" points="293.5709,-290.654 300.8942,-282.9976 290.3947,-284.4161 293.5709,-290.654"/>
<text text-anchor="middle" x="292.7554" y="-344.8" font-family="Times,serif" font-size="14.00" fill="#f60000">@14</text>
<text text-anchor="middle" x="292.7554" y="-329.8" font-family="Times,serif" font-size="14.00" fill="#f60000">start(5)</text>
<text text-anchor="middle" x="292.7554" y="-314.8" font-family="Times,serif" font-size="14.00" fill="#f60000">pc(11)</text>
</g>
<!-- 9&#45;&gt;11 -->
<g id="edge36" class="edge">
<title>9&#45;&gt;11</title>
<path fill="none" stroke="#00934a" stroke-width="3" stroke-dasharray="5,2" d="M349.8059,-373.6941C346.7372,-368.2355 343.8695,-362.0812 342.2554,-356 336.7281,-335.1744 337.1801,-310.4562 338.5891,-293.0591"/>
<text text-anchor="middle" x="351.7554" y="-329.8" font-family="Times,serif" font-size="14.00" fill="#00934a"> t0</text>
</g>
<!-- 9&#45;&gt;11 -->
<g id="edge42" class="edge">
<title>9&#45;&gt;11</title>
<path fill="none" stroke="#f58231" stroke-width="3" stroke-dasharray="5,2" d="M364.3375,-373.6941C365.6862,-357.0842 366.3614,-332.0474 361.2554,-311 359.7911,-304.9638 357.2888,-298.794 354.5404,-293.1635"/>
<text text-anchor="middle" x="375.7554" y="-329.8" font-family="Times,serif" font-size="14.00" fill="#f58231"> t2</text>
</g>
<!-- 9&#45;&gt;11 -->
<g id="edge43" class="edge">
<title>9&#45;&gt;11</title>
<path fill="none" stroke="#fabebe" stroke-width="3" stroke-dasharray="5,2" d="M379.3507,-373.8909C383.3866,-368.5282 387.1308,-362.374 389.2554,-356 395.58,-337.0263 397.7386,-329.1118 389.2554,-311 385.0225,-301.9624 377.6327,-294.2546 369.9018,-288.088"/>
<text text-anchor="middle" x="404.7554" y="-329.8" font-family="Times,serif" font-size="14.00" fill="#fabebe"> t3</text>
</g>
<!-- 9&#45;&gt;11 -->
<g id="edge46" class="edge">
<title>9&#45;&gt;11</title>
<path fill="none" stroke="#e6beff" stroke-width="3" stroke-dasharray="5,2" d="M401.8445,-373.8489C408.4349,-369.0105 414.3786,-363.1011 418.2554,-356 427.8392,-338.4458 428.6382,-328.0938 418.2554,-311 410.2004,-297.7385 396.1624,-288.6732 382.2597,-282.5741"/>
<text text-anchor="middle" x="435.7554" y="-329.8" font-family="Times,serif" font-size="14.00" fill="#e6beff"> t4</text>
</g>
<!-- 9&#45;&gt;11 -->
<g id="edge47" class="edge">
<title>9&#45;&gt;11</title>
<path fill="none" stroke="#800000" stroke-width="3" stroke-dasharray="5,2" d="M407.3985,-384.0941C423.3676,-378.8894 439.7174,-370.2692 449.2554,-356 460.3698,-339.3726 460.6807,-327.4153 449.2554,-311 441.4312,-299.7585 411.051,-289.0932 384.4975,-281.6069"/>
<text text-anchor="middle" x="467.7554" y="-329.8" font-family="Times,serif" font-size="14.00" fill="#800000"> t5</text>
</g>
<!-- 11&#45;&gt;10 -->
<g id="edge23" class="edge">
<title>11&#45;&gt;10</title>
<path fill="none" stroke="#f60000" stroke-width="3.5" d="M344.3487,-248.8806C346.1697,-226.6723 345.2791,-192.7196 327.2554,-171 320.8018,-163.223 302.1843,-155.8697 282.2503,-149.8609"/>
<polygon fill="#f60000" stroke="#f60000" stroke-width="3.5" points="282.9844,-146.4301 272.4062,-147.0231 281.0454,-153.1562 282.9844,-146.4301"/>
<text text-anchor="middle" x="384.2554" y="-219.8" font-family="Times,serif" font-size="14.00" fill="#f60000">@9</text>
<text text-anchor="middle" x="384.2554" y="-204.8" font-family="Times,serif" font-size="14.00" fill="#f60000">commit(3)</text>
<text text-anchor="middle" x="384.2554" y="-189.8" font-family="Times,serif" font-size="14.00" fill="#f60000">rollback(2)</text>
<text text-anchor="middle" x="384.2554" y="-174.8" font-family="Times,serif" font-size="14.00" fill="#f60000">pc(10)</text>
</g>
<!-- 11&#45;&gt;10 -->
<g id="edge29" class="edge">
<title>11&#45;&gt;10</title>
<path fill="none" stroke="#f60000" stroke-width="3.5" d="M385.5654,-261.052C401.5123,-255.1037 417.8699,-245.7164 427.2554,-231 441.5944,-208.5166 444.4204,-191.4078 427.2554,-171 409.0024,-149.2986 336.5662,-140.6784 282.4951,-137.2548"/>
<polygon fill="#f60000" stroke="#f60000" stroke-width="3.5" points="282.4769,-133.7478 272.2889,-136.6555 282.0665,-140.7357 282.4769,-133.7478"/>
<text text-anchor="middle" x="478.2554" y="-219.8" font-family="Times,serif" font-size="14.00" fill="#f60000">@15</text>
<text text-anchor="middle" x="478.2554" y="-204.8" font-family="Times,serif" font-size="14.00" fill="#f60000">commit(5)</text>
<text text-anchor="middle" x="478.2554" y="-189.8" font-family="Times,serif" font-size="14.00" fill="#f60000">rollback(4)</text>
<text text-anchor="middle" x="478.2554" y="-174.8" font-family="Times,serif" font-size="14.00" fill="#f60000">pc(10)</text>
</g>
<!-- 11&#45;&gt;10 -->
<g id="edge37" class="edge">
<title>11&#45;&gt;10</title>
<path fill="none" stroke="#00934a" stroke-width="3" stroke-dasharray="5,2" d="M296.8938,-266.8046C251.5998,-261.4952 185.7905,-250.5884 170.2554,-231 153.6853,-210.1065 158.098,-194.7341 170.2554,-171 173.8641,-163.9551 179.5644,-157.9749 185.8455,-153.0327"/>
<text text-anchor="middle" x="179.7554" y="-197.3" font-family="Times,serif" font-size="14.00" fill="#00934a"> t0</text>
</g>
</g>
</svg>
