<?xml version="1.0" encoding="UTF-8" standalone="no"?>
<!DOCTYPE svg PUBLIC "-//W3C//DTD SVG 1.1//EN"
 "http://www.w3.org/Graphics/SVG/1.1/DTD/svg11.dtd">
<!-- Generated by graphviz version 2.40.1 (20161225.0304)
 -->
<!-- Title: %3 Pages: 1 -->
<svg width="586pt" height="1399pt"
 viewBox="0.00 0.00 586.25 1399.00" xmlns="http://www.w3.org/2000/svg" xmlns:xlink="http://www.w3.org/1999/xlink">
<g id="graph0" class="graph" transform="scale(1 1) rotate(0) translate(4 1395)">
<title>%3</title>
<polygon fill="#ffffff" stroke="transparent" points="-4,4 -4,-1395 582.247,-1395 582.247,4 -4,4"/>
<!-- 0 -->
<g id="node1" class="node">
<title>0</title>
<polygon fill="#e6e6e6" stroke="#4a4a4a" points="517.747,-1391 420.747,-1391 420.747,-1355 517.747,-1355 517.747,-1391"/>
<text text-anchor="middle" x="469.247" y="-1369.3" font-family="Times,serif" font-size="14.00" fill="#4a4a4a">0: load(x,0)</text>
</g>
<!-- 1 -->
<g id="node2" class="node">
<title>1</title>
<polygon fill="#e6e6e6" stroke="#4a4a4a" points="516.747,-1274 421.747,-1274 421.747,-1238 516.747,-1238 516.747,-1274"/>
<text text-anchor="middle" x="469.247" y="-1252.3" font-family="Times,serif" font-size="14.00" fill="#4a4a4a">1: load(v,1)</text>
</g>
<!-- 0&#45;&gt;1 -->
<g id="edge1" class="edge">
<title>0&#45;&gt;1</title>
<path fill="none" stroke="#a2a2a2" stroke-width="1.5" d="M468.033,-1354.6941C467.71,-1349.0251 467.4068,-1342.7566 467.247,-1337 466.6921,-1317.0077 466.6921,-1311.9923 467.247,-1292 467.3144,-1289.5714 467.4074,-1287.0517 467.5165,-1284.5244"/>
<polygon fill="#a2a2a2" stroke="#a2a2a2" stroke-width="1.5" points="471.0237,-1284.4699 468.033,-1274.3059 464.0326,-1284.1165 471.0237,-1284.4699"/>
</g>
<!-- 0&#45;&gt;1 -->
<g id="edge14" class="edge">
<title>0&#45;&gt;1</title>
<path fill="none" stroke="#f60000" stroke-width="3.5" d="M469.247,-1354.9752C469.247,-1336.1356 469.247,-1306.3112 469.247,-1284.3213"/>
<polygon fill="#f60000" stroke="#f60000" stroke-width="3.5" points="472.7471,-1284.2381 469.247,-1274.2381 465.7471,-1284.2381 472.7471,-1284.2381"/>
<text text-anchor="middle" x="523.247" y="-1325.8" font-family="Times,serif" font-size="14.00" fill="#f60000">@0</text>
<text text-anchor="middle" x="523.247" y="-1310.8" font-family="Times,serif" font-size="14.00" fill="#f60000">load(0)</text>
<text text-anchor="middle" x="523.247" y="-1295.8" font-family="Times,serif" font-size="14.00" fill="#f60000"># element(0,B)</text>
</g>
<!-- 2 -->
<g id="node3" class="node">
<title>2</title>
<polygon fill="#e6e6e6" stroke="#4a4a4a" points="518.747,-1157 419.747,-1157 419.747,-1121 518.747,-1121 518.747,-1157"/>
<text text-anchor="middle" x="469.247" y="-1135.3" font-family="Times,serif" font-size="14.00" fill="#4a4a4a">2: load(w,2)</text>
</g>
<!-- 1&#45;&gt;2 -->
<g id="edge2" class="edge">
<title>1&#45;&gt;2</title>
<path fill="none" stroke="#a2a2a2" stroke-width="1.5" d="M468.033,-1237.6941C467.71,-1232.0251 467.4068,-1225.7566 467.247,-1220 466.6921,-1200.0077 466.6921,-1194.9923 467.247,-1175 467.3144,-1172.5714 467.4074,-1170.0517 467.5165,-1167.5244"/>
<polygon fill="#a2a2a2" stroke="#a2a2a2" stroke-width="1.5" points="471.0237,-1167.4699 468.033,-1157.3059 464.0326,-1167.1165 471.0237,-1167.4699"/>
</g>
<!-- 1&#45;&gt;2 -->
<g id="edge15" class="edge">
<title>1&#45;&gt;2</title>
<path fill="none" stroke="#f60000" stroke-width="3.5" d="M469.247,-1237.9752C469.247,-1219.1356 469.247,-1189.3112 469.247,-1167.3213"/>
<polygon fill="#f60000" stroke="#f60000" stroke-width="3.5" points="472.7471,-1167.2381 469.247,-1157.2381 465.7471,-1167.2381 472.7471,-1167.2381"/>
<text text-anchor="middle" x="523.747" y="-1208.8" font-family="Times,serif" font-size="14.00" fill="#f60000">@1</text>
<text text-anchor="middle" x="523.747" y="-1193.8" font-family="Times,serif" font-size="14.00" fill="#f60000">load(1)</text>
<text text-anchor="middle" x="523.747" y="-1178.8" font-family="Times,serif" font-size="14.00" fill="#f60000"># element(1,D)</text>
</g>
<!-- 3 -->
<g id="node4" class="node">
<title>3</title>
<polygon fill="#e6e6e6" stroke="#4a4a4a" points="519.747,-1040 418.747,-1040 418.747,-1004 519.747,-1004 519.747,-1040"/>
<text text-anchor="middle" x="469.247" y="-1018.3" font-family="Times,serif" font-size="14.00" fill="#4a4a4a">3: beqz(x,6)</text>
</g>
<!-- 2&#45;&gt;3 -->
<g id="edge3" class="edge">
<title>2&#45;&gt;3</title>
<path fill="none" stroke="#a2a2a2" stroke-width="1.5" d="M468.033,-1120.6941C467.71,-1115.0251 467.4068,-1108.7566 467.247,-1103 466.6921,-1083.0077 466.6921,-1077.9923 467.247,-1058 467.3144,-1055.5714 467.4074,-1053.0517 467.5165,-1050.5244"/>
<polygon fill="#a2a2a2" stroke="#a2a2a2" stroke-width="1.5" points="471.0237,-1050.4699 468.033,-1040.3059 464.0326,-1050.1165 471.0237,-1050.4699"/>
</g>
<!-- 2&#45;&gt;3 -->
<g id="edge16" class="edge">
<title>2&#45;&gt;3</title>
<path fill="none" stroke="#f60000" stroke-width="3.5" d="M469.247,-1120.9752C469.247,-1102.1356 469.247,-1072.3112 469.247,-1050.3213"/>
<polygon fill="#f60000" stroke="#f60000" stroke-width="3.5" points="472.7471,-1050.2381 469.247,-1040.2381 465.7471,-1050.2381 472.7471,-1050.2381"/>
<text text-anchor="middle" x="522.747" y="-1091.8" font-family="Times,serif" font-size="14.00" fill="#f60000">@2</text>
<text text-anchor="middle" x="522.747" y="-1076.8" font-family="Times,serif" font-size="14.00" fill="#f60000">load(2)</text>
<text text-anchor="middle" x="522.747" y="-1061.8" font-family="Times,serif" font-size="14.00" fill="#f60000"># element(2,F)</text>
</g>
<!-- 4 -->
<g id="node5" class="node">
<title>4</title>
<polygon fill="#e6e6e6" stroke="#4a4a4a" points="453.747,-908 358.747,-908 358.747,-872 453.747,-872 453.747,-908"/>
<text text-anchor="middle" x="406.247" y="-886.3" font-family="Times,serif" font-size="14.00" fill="#4a4a4a">4: load(y,v)</text>
</g>
<!-- 3&#45;&gt;4 -->
<g id="edge4" class="edge">
<title>3&#45;&gt;4</title>
<path fill="none" stroke="#a2a2a2" stroke-width="1.5" d="M418.6956,-1008.2742C408.2346,-1003.0288 398.5059,-995.8354 392.247,-986 379.2695,-965.6068 385.2425,-937.9078 392.997,-917.5035"/>
<polygon fill="#a2a2a2" stroke="#a2a2a2" stroke-width="1.5" points="396.2833,-918.7154 396.8717,-908.1369 389.8149,-916.0396 396.2833,-918.7154"/>
</g>
<!-- 3&#45;&gt;4 -->
<g id="edge17" class="edge">
<title>3&#45;&gt;4</title>
<path fill="none" stroke="#f60000" stroke-width="3.5" d="M429.6055,-1003.9718C422.7544,-999.1018 416.4835,-993.1491 412.247,-986 400.1958,-965.6634 399.6378,-938.4638 401.5471,-918.2095"/>
<polygon fill="#f60000" stroke="#f60000" stroke-width="3.5" points="405.0508,-918.3871 402.7633,-908.0421 398.1003,-917.5556 405.0508,-918.3871"/>
<text text-anchor="middle" x="458.747" y="-974.8" font-family="Times,serif" font-size="14.00" fill="#f60000">@3</text>
<text text-anchor="middle" x="458.747" y="-959.8" font-family="Times,serif" font-size="14.00" fill="#f60000"># cond(B=0)</text>
<text text-anchor="middle" x="458.747" y="-944.8" font-family="Times,serif" font-size="14.00" fill="#f60000">start(0)</text>
<text text-anchor="middle" x="458.747" y="-929.8" font-family="Times,serif" font-size="14.00" fill="#f60000">pc(4)</text>
</g>
<!-- 3&#45;&gt;4 -->
<g id="edge31" class="edge">
<title>3&#45;&gt;4</title>
<path fill="none" stroke="#00934a" stroke-width="3" stroke-dasharray="5,2" d="M492.6884,-1003.9949C497.783,-998.7962 502.4734,-992.6961 505.247,-986 515.4519,-961.3632 520.5456,-947.8418 505.247,-926 498.8468,-916.8624 476.0627,-908.2581 453.9642,-901.754"/>
<text text-anchor="middle" x="522.747" y="-952.3" font-family="Times,serif" font-size="14.00" fill="#00934a">t0</text>
</g>
<!-- 6 -->
<g id="node6" class="node">
<title>6</title>
<polygon fill="#e6e6e6" stroke="#4a4a4a" points="172.247,-36 68.247,-36 68.247,0 172.247,0 172.247,-36"/>
<text text-anchor="middle" x="120.247" y="-14.3" font-family="Times,serif" font-size="14.00" fill="#4a4a4a">6: store(y,w)</text>
</g>
<!-- 3&#45;&gt;6 -->
<g id="edge5" class="edge">
<title>3&#45;&gt;6</title>
<path fill="none" stroke="#a2a2a2" stroke-width="1.5" d="M513.4492,-1003.8157C521.243,-998.98 528.6425,-993.0802 534.247,-986 561.756,-951.248 561.247,-934.3221 561.247,-890 561.247,-890 561.247,-890 561.247,-135 561.247,-57.6472 304.5641,-30.2229 182.8555,-21.5672"/>
<polygon fill="#a2a2a2" stroke="#a2a2a2" stroke-width="1.5" points="182.7845,-18.054 172.5673,-20.8574 182.3027,-25.0374 182.7845,-18.054"/>
</g>
<!-- 5 -->
<g id="node7" class="node">
<title>5</title>
<polygon fill="#e6e6e6" stroke="#4a4a4a" points="438.747,-791 357.747,-791 357.747,-755 438.747,-755 438.747,-791"/>
<text text-anchor="middle" x="398.247" y="-769.3" font-family="Times,serif" font-size="14.00" fill="#4a4a4a">5: jmp(7)</text>
</g>
<!-- 4&#45;&gt;5 -->
<g id="edge6" class="edge">
<title>4&#45;&gt;5</title>
<path fill="none" stroke="#a2a2a2" stroke-width="1.5" d="M389.1517,-871.8909C385.1159,-866.5282 381.3717,-860.374 379.247,-854 372.9225,-835.0263 374.4384,-828.4133 379.247,-809 379.9479,-806.1704 380.9163,-803.3179 382.0476,-800.5235"/>
<polygon fill="#a2a2a2" stroke="#a2a2a2" stroke-width="1.5" points="385.2677,-801.9009 386.3707,-791.3636 378.9373,-798.9132 385.2677,-801.9009"/>
</g>
<!-- 4&#45;&gt;5 -->
<g id="edge18" class="edge">
<title>4&#45;&gt;5</title>
<path fill="none" stroke="#f60000" stroke-width="3.5" d="M402.0451,-871.7808C400.9167,-866.1154 399.8446,-859.8271 399.247,-854 397.4518,-836.4948 397.1726,-816.751 397.3563,-801.1389"/>
<polygon fill="#f60000" stroke="#f60000" stroke-width="3.5" points="400.8569,-801.1326 397.5445,-791.069 393.8581,-801.0018 400.8569,-801.1326"/>
<text text-anchor="middle" x="454.247" y="-842.8" font-family="Times,serif" font-size="14.00" fill="#f60000">@4</text>
<text text-anchor="middle" x="454.247" y="-827.8" font-family="Times,serif" font-size="14.00" fill="#f60000">load(D)</text>
<text text-anchor="middle" x="454.247" y="-812.8" font-family="Times,serif" font-size="14.00" fill="#f60000"># element(D,G)</text>
</g>
<!-- 4&#45;&gt;5 -->
<g id="edge32" class="edge">
<title>4&#45;&gt;5</title>
<path fill="none" stroke="#00934a" stroke-width="3" stroke-dasharray="5,2" d="M453.892,-879.0292C477.4785,-872.5342 502.3669,-863.693 509.247,-854 520.8234,-837.6908 521.0071,-825.1772 509.247,-809 500.6999,-797.2426 466.8573,-787.3547 438.7634,-780.9347"/>
<text text-anchor="middle" x="525.747" y="-827.8" font-family="Times,serif" font-size="14.00" fill="#00934a">t0</text>
</g>
<!-- 7 -->
<g id="node8" class="node">
<title>7</title>
<polygon fill="#e6e6e6" stroke="#4a4a4a" points="381.247,-674 271.247,-674 271.247,-638 381.247,-638 381.247,-674"/>
<text text-anchor="middle" x="326.247" y="-652.3" font-family="Times,serif" font-size="14.00" fill="#4a4a4a">7: beqz(x,10)</text>
</g>
<!-- 6&#45;&gt;7 -->
<g id="edge8" class="edge">
<title>6&#45;&gt;7</title>
<path fill="none" stroke="#a2a2a2" stroke-width="1.5" d="M67.8736,-28.6897C52.7074,-34.0574 37.284,-42.0704 26.247,-54 .7484,-81.5608 2.247,-97.453 2.247,-135 2.247,-524 2.247,-524 2.247,-524 2.247,-567.9798 -6.7411,-590.9138 26.247,-620 43.5037,-635.2156 177.9934,-646.4833 260.9362,-652.0685"/>
<polygon fill="#a2a2a2" stroke="#a2a2a2" stroke-width="1.5" points="260.8237,-655.5686 271.0333,-652.7376 261.2866,-648.584 260.8237,-655.5686"/>
</g>
<!-- 6&#45;&gt;7 -->
<g id="edge25" class="edge">
<title>6&#45;&gt;7</title>
<path fill="none" stroke="#f60000" stroke-width="3.5" d="M97.5362,-36.0688C73.8847,-57.084 40.247,-94.1526 40.247,-135 40.247,-524 40.247,-524 40.247,-524 40.247,-567.7727 29.9377,-590.4677 62.247,-620 76.6971,-633.2081 187.4809,-644.6902 260.8724,-650.9532"/>
<polygon fill="#f60000" stroke="#f60000" stroke-width="3.5" points="260.7081,-654.4517 270.9662,-651.802 261.2947,-647.4763 260.7081,-654.4517"/>
<text text-anchor="middle" x="90.747" y="-344.8" font-family="Times,serif" font-size="14.00" fill="#f60000">@11</text>
<text text-anchor="middle" x="90.747" y="-329.8" font-family="Times,serif" font-size="14.00" fill="#f60000"># update(F,H)</text>
<text text-anchor="middle" x="90.747" y="-314.8" font-family="Times,serif" font-size="14.00" fill="#f60000">store(F)</text>
</g>
<!-- 5&#45;&gt;7 -->
<g id="edge7" class="edge">
<title>5&#45;&gt;7</title>
<path fill="none" stroke="#a2a2a2" stroke-width="1.5" d="M357.7131,-762.2462C335.6749,-755.4921 311.6326,-746.3191 305.247,-737 294.3,-721.0238 300.4492,-699.7211 308.8574,-682.9719"/>
<polygon fill="#a2a2a2" stroke="#a2a2a2" stroke-width="1.5" points="311.9292,-684.6494 313.6669,-674.198 305.7909,-681.2847 311.9292,-684.6494"/>
</g>
<!-- 5&#45;&gt;7 -->
<g id="edge19" class="edge">
<title>5&#45;&gt;7</title>
<path fill="none" stroke="#f60000" stroke-width="3.5" d="M357.5068,-762.2266C344.9716,-756.7919 332.5598,-748.76 325.247,-737 315.6216,-721.521 315.9989,-700.9532 318.7178,-684.417"/>
<polygon fill="#f60000" stroke="#f60000" stroke-width="3.5" points="322.2267,-684.7196 320.7609,-674.2266 315.3633,-683.3434 322.2267,-684.7196"/>
<text text-anchor="middle" x="351.747" y="-725.8" font-family="Times,serif" font-size="14.00" fill="#f60000">@5</text>
<text text-anchor="middle" x="351.747" y="-710.8" font-family="Times,serif" font-size="14.00" fill="#f60000">start(1)</text>
<text text-anchor="middle" x="351.747" y="-695.8" font-family="Times,serif" font-size="14.00" fill="#f60000">pc(7)</text>
</g>
<!-- 5&#45;&gt;7 -->
<g id="edge33" class="edge">
<title>5&#45;&gt;7</title>
<path fill="none" stroke="#00934a" stroke-width="3" stroke-dasharray="5,2" d="M397.4098,-754.7608C395.812,-737.2799 391.2385,-710.8412 378.247,-692 373.5099,-685.13 367.0025,-679.1662 360.1933,-674.176"/>
<text text-anchor="middle" x="402.747" y="-710.8" font-family="Times,serif" font-size="14.00" fill="#00934a">t0</text>
</g>
<!-- 5&#45;&gt;7 -->
<g id="edge34" class="edge">
<title>5&#45;&gt;7</title>
<path fill="none" stroke="#4363d8" stroke-width="3" stroke-dasharray="5,2" d="M409.0359,-754.7443C417.8174,-737.251 426.8708,-710.8036 414.247,-692 406.5184,-680.488 394.3871,-672.6548 381.5745,-667.3256"/>
<text text-anchor="middle" x="428.747" y="-710.8" font-family="Times,serif" font-size="14.00" fill="#4363d8">t1</text>
</g>
<!-- 8 -->
<g id="node9" class="node">
<title>8</title>
<polygon fill="#e6e6e6" stroke="#4a4a4a" points="382.247,-542 278.247,-542 278.247,-506 382.247,-506 382.247,-542"/>
<text text-anchor="middle" x="330.247" y="-520.3" font-family="Times,serif" font-size="14.00" fill="#4a4a4a">8: store(y,w)</text>
</g>
<!-- 7&#45;&gt;8 -->
<g id="edge9" class="edge">
<title>7&#45;&gt;8</title>
<path fill="none" stroke="#a2a2a2" stroke-width="1.5" d="M271.1406,-651.7502C202.2016,-645.8645 91.631,-634.3198 79.247,-620 61.8035,-599.8298 61.7806,-580.1503 79.247,-560 91.4768,-545.891 197.7353,-534.6715 268.0219,-528.7083"/>
<polygon fill="#a2a2a2" stroke="#a2a2a2" stroke-width="1.5" points="268.4409,-532.1856 278.1155,-527.8669 267.8593,-525.2098 268.4409,-532.1856"/>
</g>
<!-- 7&#45;&gt;8 -->
<g id="edge20" class="edge">
<title>7&#45;&gt;8</title>
<path fill="none" stroke="#f60000" stroke-width="3.5" d="M271.1734,-650.9916C207.6012,-644.6427 110.3079,-632.9533 99.247,-620 81.9304,-599.7208 81.9033,-580.256 99.247,-560 110.1628,-547.2513 203.4028,-535.9485 268.0311,-529.545"/>
<polygon fill="#f60000" stroke="#f60000" stroke-width="3.5" points="268.5275,-533.0133 278.1409,-528.5599 267.8485,-526.0463 268.5275,-533.0133"/>
<text text-anchor="middle" x="145.747" y="-608.8" font-family="Times,serif" font-size="14.00" fill="#f60000">@6</text>
<text text-anchor="middle" x="145.747" y="-593.8" font-family="Times,serif" font-size="14.00" fill="#f60000"># cond(B=0)</text>
<text text-anchor="middle" x="145.747" y="-578.8" font-family="Times,serif" font-size="14.00" fill="#f60000">start(2)</text>
<text text-anchor="middle" x="145.747" y="-563.8" font-family="Times,serif" font-size="14.00" fill="#f60000">pc(8)</text>
</g>
<!-- 7&#45;&gt;8 -->
<g id="edge26" class="edge">
<title>7&#45;&gt;8</title>
<path fill="none" stroke="#f60000" stroke-width="3.5" d="M270.9929,-644.4817C246.8181,-638.2145 222.3349,-629.7501 215.247,-620 199.5669,-598.4304 199.4567,-581.489 215.247,-560 222.13,-550.6329 244.7066,-542.6146 268.0552,-536.5391"/>
<polygon fill="#f60000" stroke="#f60000" stroke-width="3.5" points="269.2023,-539.8607 278.0655,-534.0561 267.517,-533.0666 269.2023,-539.8607"/>
<text text-anchor="middle" x="261.747" y="-608.8" font-family="Times,serif" font-size="14.00" fill="#f60000">@12</text>
<text text-anchor="middle" x="261.747" y="-593.8" font-family="Times,serif" font-size="14.00" fill="#f60000"># cond(B=0)</text>
<text text-anchor="middle" x="261.747" y="-578.8" font-family="Times,serif" font-size="14.00" fill="#f60000">start(4)</text>
<text text-anchor="middle" x="261.747" y="-563.8" font-family="Times,serif" font-size="14.00" fill="#f60000">pc(8)</text>
</g>
<!-- 7&#45;&gt;8 -->
<g id="edge35" class="edge">
<title>7&#45;&gt;8</title>
<path fill="none" stroke="#00934a" stroke-width="3" stroke-dasharray="5,2" d="M326.7948,-637.9227C327.5565,-612.7862 328.928,-567.5281 329.693,-542.2825"/>
<text text-anchor="middle" x="336.747" y="-586.3" font-family="Times,serif" font-size="14.00" fill="#00934a">t0</text>
</g>
<!-- 7&#45;&gt;8 -->
<g id="edge36" class="edge">
<title>7&#45;&gt;8</title>
<path fill="none" stroke="#4363d8" stroke-width="3" stroke-dasharray="5,2" d="M338.7429,-637.7062C341.8123,-632.2478 344.6688,-626.0906 346.247,-620 352.9361,-594.1859 351.7828,-586.0857 346.247,-560 344.9692,-553.9786 342.6123,-547.7415 340.093,-542.1846"/>
<text text-anchor="middle" x="358.747" y="-586.3" font-family="Times,serif" font-size="14.00" fill="#4363d8">t1</text>
</g>
<!-- 7&#45;&gt;8 -->
<g id="edge37" class="edge">
<title>7&#45;&gt;8</title>
<path fill="none" stroke="#f96714" stroke-width="3" stroke-dasharray="5,2" d="M356.1515,-637.6883C361.8519,-632.7052 367.0348,-626.7785 370.247,-620 381.6665,-595.9021 381.096,-584.36 370.247,-560 367.2822,-553.343 362.4107,-547.4005 357.0697,-542.3552"/>
<text text-anchor="middle" x="386.747" y="-586.3" font-family="Times,serif" font-size="14.00" fill="#f96714">t2</text>
</g>
<!-- 7&#45;&gt;8 -->
<g id="edge44" class="edge">
<title>7&#45;&gt;8</title>
<path fill="none" stroke="#ce5b78" stroke-width="3" stroke-dasharray="5,2" d="M380.1298,-637.7808C387.3312,-633.0917 393.7652,-627.2518 398.247,-620 412.2665,-597.316 412.0019,-582.8455 398.247,-560 393.8374,-552.676 387.3825,-546.764 380.1807,-542.0157"/>
<text text-anchor="middle" x="416.747" y="-586.3" font-family="Times,serif" font-size="14.00" fill="#ce5b78">t4</text>
</g>
<!-- 10 -->
<g id="node10" class="node">
<title>10</title>
<polygon fill="#e6e6e6" stroke="#4a4a4a" points="252.247,-153 148.247,-153 148.247,-117 252.247,-117 252.247,-153"/>
<text text-anchor="middle" x="200.247" y="-131.3" font-family="Times,serif" font-size="14.00" fill="#4a4a4a">10: load(y,v)</text>
</g>
<!-- 7&#45;&gt;10 -->
<g id="edge10" class="edge">
<title>7&#45;&gt;10</title>
<path fill="none" stroke="#a2a2a2" stroke-width="1.5" d="M381.3845,-644.0872C439.664,-627.872 523.247,-592.6498 523.247,-524 523.247,-524 523.247,-524 523.247,-271 523.247,-225.5861 535.7462,-201.6631 502.247,-171 484.9311,-155.1501 345.942,-143.9489 262.6783,-138.5863"/>
<polygon fill="#a2a2a2" stroke="#a2a2a2" stroke-width="1.5" points="262.7647,-135.0848 252.5634,-137.9458 262.3222,-142.0708 262.7647,-135.0848"/>
</g>
<!-- 9 -->
<g id="node11" class="node">
<title>9</title>
<polygon fill="#e6e6e6" stroke="#4a4a4a" points="405.247,-410 315.247,-410 315.247,-374 405.247,-374 405.247,-410"/>
<text text-anchor="middle" x="360.247" y="-388.3" font-family="Times,serif" font-size="14.00" fill="#4a4a4a">9: jmp(11)</text>
</g>
<!-- 8&#45;&gt;9 -->
<g id="edge11" class="edge">
<title>8&#45;&gt;9</title>
<path fill="none" stroke="#a2a2a2" stroke-width="1.5" d="M277.9682,-522.2795C223.5238,-519.2571 143.5175,-510.9302 124.247,-488 107.0905,-467.5852 106.8706,-448.228 124.247,-428 135.8791,-414.459 238.7401,-402.8391 304.7711,-396.6874"/>
<polygon fill="#a2a2a2" stroke="#a2a2a2" stroke-width="1.5" points="305.3938,-400.1451 315.0329,-395.7476 304.7553,-393.1743 305.3938,-400.1451"/>
</g>
<!-- 8&#45;&gt;9 -->
<g id="edge21" class="edge">
<title>8&#45;&gt;9</title>
<path fill="none" stroke="#f60000" stroke-width="3.5" d="M277.9999,-521.1355C229.0347,-517.2289 160.9398,-508.2334 144.247,-488 127.2767,-467.4301 127.0104,-448.3472 144.247,-428 154.5696,-415.8145 244.3973,-404.116 304.9144,-397.5148"/>
<polygon fill="#f60000" stroke="#f60000" stroke-width="3.5" points="305.5327,-400.9686 315.102,-396.4212 304.7855,-394.0086 305.5327,-400.9686"/>
<text text-anchor="middle" x="193.747" y="-476.8" font-family="Times,serif" font-size="14.00" fill="#f60000">@7</text>
<text text-anchor="middle" x="193.747" y="-461.8" font-family="Times,serif" font-size="14.00" fill="#f60000">commit(1)</text>
<text text-anchor="middle" x="193.747" y="-446.8" font-family="Times,serif" font-size="14.00" fill="#f60000"># update(F,G)</text>
<text text-anchor="middle" x="193.747" y="-431.8" font-family="Times,serif" font-size="14.00" fill="#f60000">store(F)</text>
</g>
<!-- 8&#45;&gt;9 -->
<g id="edge27" class="edge">
<title>8&#45;&gt;9</title>
<path fill="none" stroke="#f60000" stroke-width="3.5" d="M283.8348,-505.9469C276.8061,-501.1738 270.4947,-495.2629 266.247,-488 252.7845,-464.9811 251.1344,-449.9709 266.247,-428 271.3652,-420.5591 287.6736,-413.2583 305.3019,-407.1974"/>
<polygon fill="#f60000" stroke="#f60000" stroke-width="3.5" points="306.7553,-410.4043 315.1685,-403.9647 304.5758,-403.7523 306.7553,-410.4043"/>
<text text-anchor="middle" x="316.747" y="-469.3" font-family="Times,serif" font-size="14.00" fill="#f60000">@13</text>
<text text-anchor="middle" x="316.747" y="-454.3" font-family="Times,serif" font-size="14.00" fill="#f60000"># update(F,H)</text>
<text text-anchor="middle" x="316.747" y="-439.3" font-family="Times,serif" font-size="14.00" fill="#f60000">store(F)</text>
</g>
<!-- 8&#45;&gt;9 -->
<g id="edge38" class="edge">
<title>8&#45;&gt;9</title>
<path fill="none" stroke="#00934a" stroke-width="3" stroke-dasharray="5,2" d="M354.7106,-505.7156C359.7987,-500.5978 364.4579,-494.6052 367.247,-488 377.973,-462.5987 371.9646,-430.0609 366.3376,-410.1382"/>
<text text-anchor="middle" x="380.747" y="-454.3" font-family="Times,serif" font-size="14.00" fill="#00934a">t0</text>
</g>
<!-- 8&#45;&gt;9 -->
<g id="edge39" class="edge">
<title>8&#45;&gt;9</title>
<path fill="none" stroke="#f96714" stroke-width="3" stroke-dasharray="5,2" d="M374.926,-505.9248C381.8566,-501.1374 388.0862,-495.2273 392.247,-488 405.5518,-464.8896 401.7238,-452.9259 392.247,-428 389.7507,-421.4343 385.4473,-415.3013 380.7915,-410.0241"/>
<text text-anchor="middle" x="408.747" y="-454.3" font-family="Times,serif" font-size="14.00" fill="#f96714">t2</text>
</g>
<!-- 8&#45;&gt;9 -->
<g id="edge45" class="edge">
<title>8&#45;&gt;9</title>
<path fill="none" stroke="#ce5b78" stroke-width="3" stroke-dasharray="5,2" d="M382.5726,-514.5633C397.196,-509.2545 411.4728,-500.9598 420.247,-488 435.1971,-465.9182 433.3857,-451.2053 420.247,-428 416.1771,-420.8117 410.0359,-414.9021 403.211,-410.0992"/>
<text text-anchor="middle" x="438.747" y="-454.3" font-family="Times,serif" font-size="14.00" fill="#ce5b78">t4</text>
</g>
<!-- 10&#45;&gt;6 -->
<g id="edge24" class="edge">
<title>10&#45;&gt;6</title>
<path fill="none" stroke="#f60000" stroke-width="3.5" d="M187.9223,-116.9752C174.6893,-97.6218 153.5299,-66.6763 138.394,-44.54"/>
<polygon fill="#f60000" stroke="#f60000" stroke-width="3.5" points="141.251,-42.5174 132.7175,-36.2381 135.4727,-46.4684 141.251,-42.5174"/>
<text text-anchor="middle" x="214.247" y="-87.8" font-family="Times,serif" font-size="14.00" fill="#f60000">@10</text>
<text text-anchor="middle" x="214.247" y="-72.8" font-family="Times,serif" font-size="14.00" fill="#f60000">rollback(0)</text>
<text text-anchor="middle" x="214.247" y="-57.8" font-family="Times,serif" font-size="14.00" fill="#f60000">pc(6)</text>
</g>
<!-- 11 -->
<g id="node12" class="node">
<title>11</title>
<polygon fill="#e6e6e6" stroke="#4a4a4a" points="369.4364,-263.5442 369.4364,-278.4558 345.894,-289 312.6,-289 289.0577,-278.4558 289.0577,-263.5442 312.6,-253 345.894,-253 369.4364,-263.5442"/>
<polygon fill="none" stroke="#4a4a4a" points="373.4454,-260.9552 373.4454,-281.0448 346.7525,-293 311.7415,-293 285.0486,-281.0448 285.0486,-260.9552 311.7415,-249 346.7525,-249 373.4454,-260.9552"/>
<text text-anchor="middle" x="329.247" y="-267.3" font-family="Times,serif" font-size="14.00" fill="#4a4a4a">11: ⊥</text>
</g>
<!-- 10&#45;&gt;11 -->
<g id="edge13" class="edge">
<title>10&#45;&gt;11</title>
<path fill="none" stroke="#a2a2a2" stroke-width="1.5" d="M188.9042,-153.1984C177.5005,-174.075 163.8956,-208.3364 181.247,-231 192.783,-246.0677 237.3857,-256.76 274.6392,-263.2764"/>
<polygon fill="#a2a2a2" stroke="#a2a2a2" stroke-width="1.5" points="274.4764,-266.798 284.9182,-265.0037 275.6365,-259.8948 274.4764,-266.798"/>
</g>
<!-- 10&#45;&gt;11 -->
<g id="edge30" class="edge">
<title>10&#45;&gt;11</title>
<path fill="none" stroke="#f60000" stroke-width="3.5" d="M193.5104,-153.2569C187.064,-174.1886 180.556,-208.5016 197.247,-231 206.8381,-243.9282 242.764,-254.3099 274.7176,-261.2539"/>
<polygon fill="#f60000" stroke="#f60000" stroke-width="3.5" points="274.4094,-264.7651 284.9141,-263.3866 275.8425,-257.9134 274.4094,-264.7651"/>
<text text-anchor="middle" x="250.247" y="-212.3" font-family="Times,serif" font-size="14.00" fill="#f60000">@16</text>
<text text-anchor="middle" x="250.247" y="-197.3" font-family="Times,serif" font-size="14.00" fill="#f60000">load(D)</text>
<text text-anchor="middle" x="250.247" y="-182.3" font-family="Times,serif" font-size="14.00" fill="#f60000"># element(D,I)</text>
</g>
<!-- 9&#45;&gt;11 -->
<g id="edge12" class="edge">
<title>9&#45;&gt;11</title>
<path fill="none" stroke="#a2a2a2" stroke-width="1.5" d="M315.154,-389.8923C264.8952,-386.487 188.2902,-377.783 170.247,-356 157.489,-340.5977 157.9504,-326.7732 170.247,-311 183.1538,-294.4441 233.9714,-283.6873 274.7288,-277.5432"/>
<polygon fill="#a2a2a2" stroke="#a2a2a2" stroke-width="1.5" points="275.449,-280.9756 284.8449,-276.0798 274.4468,-274.0477 275.449,-280.9756"/>
</g>
<!-- 9&#45;&gt;11 -->
<g id="edge22" class="edge">
<title>9&#45;&gt;11</title>
<path fill="none" stroke="#f60000" stroke-width="3.5" d="M314.9562,-388.7221C270.018,-384.416 205.68,-375.0434 190.247,-356 177.6547,-340.4619 178.2183,-326.9784 190.247,-311 200.7283,-297.0772 240.7048,-286.4933 275.1118,-279.7205"/>
<polygon fill="#f60000" stroke="#f60000" stroke-width="3.5" points="275.9311,-283.1276 285.1045,-277.8267 274.6276,-276.25 275.9311,-283.1276"/>
<text text-anchor="middle" x="216.747" y="-344.8" font-family="Times,serif" font-size="14.00" fill="#f60000">@8</text>
<text text-anchor="middle" x="216.747" y="-329.8" font-family="Times,serif" font-size="14.00" fill="#f60000">start(3)</text>
<text text-anchor="middle" x="216.747" y="-314.8" font-family="Times,serif" font-size="14.00" fill="#f60000">pc(11)</text>
</g>
<!-- 9&#45;&gt;11 -->
<g id="edge28" class="edge">
<title>9&#45;&gt;11</title>
<path fill="none" stroke="#f60000" stroke-width="3.5" d="M315.1685,-380.0353C294.0975,-373.4409 272.313,-364.8188 266.247,-356 254.9125,-339.5218 256.6138,-328.5272 266.247,-311 270.7381,-302.8287 277.6831,-296.0904 285.3474,-290.6253"/>
<polygon fill="#f60000" stroke="#f60000" stroke-width="3.5" points="287.3194,-293.5188 293.8641,-285.1871 283.5522,-287.6189 287.3194,-293.5188"/>
<text text-anchor="middle" x="292.747" y="-344.8" font-family="Times,serif" font-size="14.00" fill="#f60000">@14</text>
<text text-anchor="middle" x="292.747" y="-329.8" font-family="Times,serif" font-size="14.00" fill="#f60000">start(5)</text>
<text text-anchor="middle" x="292.747" y="-314.8" font-family="Times,serif" font-size="14.00" fill="#f60000">pc(11)</text>
</g>
<!-- 9&#45;&gt;11 -->
<g id="edge40" class="edge">
<title>9&#45;&gt;11</title>
<path fill="none" stroke="#00934a" stroke-width="3" stroke-dasharray="5,2" d="M349.7596,-373.7802C346.942,-368.2224 344.1518,-361.9936 342.247,-356 335.6457,-335.2281 332.3457,-310.5023 330.7285,-293.0888"/>
<text text-anchor="middle" x="349.747" y="-329.8" font-family="Times,serif" font-size="14.00" fill="#00934a">t0</text>
</g>
<!-- 9&#45;&gt;11 -->
<g id="edge41" class="edge">
<title>9&#45;&gt;11</title>
<path fill="none" stroke="#f96714" stroke-width="3" stroke-dasharray="5,2" d="M362.456,-373.7802C363.824,-357.0101 364.1884,-331.6778 357.247,-311 355.0889,-304.5711 351.5452,-298.2541 347.6927,-292.6067"/>
<text text-anchor="middle" x="371.747" y="-329.8" font-family="Times,serif" font-size="14.00" fill="#f96714">t2</text>
</g>
<!-- 9&#45;&gt;11 -->
<g id="edge42" class="edge">
<title>9&#45;&gt;11</title>
<path fill="none" stroke="#2a4b7c" stroke-width="3" stroke-dasharray="5,2" d="M374.5973,-373.9312C378.1268,-368.4764 381.4166,-362.2647 383.247,-356 388.856,-336.8026 392.2445,-328.8618 383.247,-311 378.3133,-301.2056 369.7222,-293.2109 360.8247,-287.0148"/>
<text text-anchor="middle" x="396.747" y="-329.8" font-family="Times,serif" font-size="14.00" fill="#2a4b7c">t3</text>
</g>
<!-- 9&#45;&gt;11 -->
<g id="edge46" class="edge">
<title>9&#45;&gt;11</title>
<path fill="none" stroke="#ce5b78" stroke-width="3" stroke-dasharray="5,2" d="M393.3064,-373.7393C399.3347,-368.8112 404.7997,-362.8945 408.247,-356 417.1913,-338.1115 418.7186,-328.0395 408.247,-311 399.9564,-297.5095 385.5486,-288.3994 371.2881,-282.3287"/>
<text text-anchor="middle" x="423.747" y="-329.8" font-family="Times,serif" font-size="14.00" fill="#ce5b78">t4</text>
</g>
<!-- 9&#45;&gt;11 -->
<g id="edge47" class="edge">
<title>9&#45;&gt;11</title>
<path fill="none" stroke="#800000" stroke-width="3" stroke-dasharray="5,2" d="M405.6155,-379.9177C417.2504,-374.5458 428.4011,-366.8798 435.247,-356 445.8985,-339.0723 446.6219,-327.4503 435.247,-311 427.6119,-299.9582 397.9826,-289.3193 371.9845,-281.7928"/>
<text text-anchor="middle" x="451.747" y="-329.8" font-family="Times,serif" font-size="14.00" fill="#800000">t5</text>
</g>
<!-- 11&#45;&gt;10 -->
<g id="edge23" class="edge">
<title>11&#45;&gt;10</title>
<path fill="none" stroke="#f60000" stroke-width="3.5" d="M330.3039,-248.7073C330.1358,-226.3609 326.3625,-192.3001 307.247,-171 300.5252,-163.51 281.9775,-156.236 262.1735,-150.21"/>
<polygon fill="#f60000" stroke="#f60000" stroke-width="3.5" points="262.9771,-146.7986 252.397,-147.3566 261.0158,-153.5183 262.9771,-146.7986"/>
<text text-anchor="middle" x="368.247" y="-219.8" font-family="Times,serif" font-size="14.00" fill="#f60000">@9</text>
<text text-anchor="middle" x="368.247" y="-204.8" font-family="Times,serif" font-size="14.00" fill="#f60000">commit(3)</text>
<text text-anchor="middle" x="368.247" y="-189.8" font-family="Times,serif" font-size="14.00" fill="#f60000">rollback(2)</text>
<text text-anchor="middle" x="368.247" y="-174.8" font-family="Times,serif" font-size="14.00" fill="#f60000">pc(10)</text>
</g>
<!-- 11&#45;&gt;10 -->
<g id="edge29" class="edge">
<title>11&#45;&gt;10</title>
<path fill="none" stroke="#f60000" stroke-width="3.5" d="M371.2881,-259.6713C385.5486,-253.6006 399.9564,-244.4905 408.247,-231 422.2092,-208.2806 425.4202,-191.4008 408.247,-171 389.8996,-149.2043 317.1148,-140.6043 262.7845,-137.2112"/>
<polygon fill="#f60000" stroke="#f60000" stroke-width="3.5" points="262.7148,-133.7014 252.5293,-136.6178 262.3104,-140.6897 262.7148,-133.7014"/>
<text text-anchor="middle" x="459.247" y="-219.8" font-family="Times,serif" font-size="14.00" fill="#f60000">@15</text>
<text text-anchor="middle" x="459.247" y="-204.8" font-family="Times,serif" font-size="14.00" fill="#f60000">commit(5)</text>
<text text-anchor="middle" x="459.247" y="-189.8" font-family="Times,serif" font-size="14.00" fill="#f60000">rollback(4)</text>
<text text-anchor="middle" x="459.247" y="-174.8" font-family="Times,serif" font-size="14.00" fill="#f60000">pc(10)</text>
</g>
<!-- 11&#45;&gt;10 -->
<g id="edge43" class="edge">
<title>11&#45;&gt;10</title>
<path fill="none" stroke="#00934a" stroke-width="3" stroke-dasharray="5,2" d="M285.1264,-267.0981C238.7533,-261.9753 170.3233,-251.1655 154.247,-231 137.6239,-210.1486 142.567,-194.9726 154.247,-171 157.6228,-164.0714 163.0484,-158.0839 169.0092,-153.0892"/>
<text text-anchor="middle" x="161.747" y="-197.3" font-family="Times,serif" font-size="14.00" fill="#00934a">t0</text>
</g>
</g>
</svg>
